<svg xmlns="http://www.w3.org/2000/svg" xmlns:xlink="http://www.w3.org/1999/xlink" width="3070" zoomAndPan="magnify" viewBox="0 0 2302.5 657.750002" height="877" preserveAspectRatio="xMidYMid meet" version="1.0"><defs><g/></defs><g fill="#b6b8b6" fill-opacity="1"><g transform="translate(881.849841, 441.40226)"><g><path d="M 111.484375 0.40625 C 111.484375 0.132812 111.484375 0 111.484375 0 C 106.285156 0 101.160156 0 96.109375 0 C 91.054688 0 86.070312 0 81.15625 0 C 79.78125 0 78.476562 0 77.25 0 C 76.019531 0 74.859375 0 73.765625 0 C 65.847656 1.363281 57.925781 1.566406 50 0.609375 C 42.070312 -0.335938 34.148438 -1.222656 26.234375 -2.046875 C 13.929688 -3.410156 10.378906 -9.832031 15.578125 -21.3125 C 16.390625 -22.945312 17.070312 -24.039062 17.625 -24.59375 C 20.625 -29.78125 22.738281 -35.175781 23.96875 -40.78125 C 25.195312 -46.382812 25.675781 -52.050781 25.40625 -57.78125 C 25.132812 -63.519531 25.132812 -69.257812 25.40625 -75 C 25.675781 -80.738281 25.8125 -86.34375 25.8125 -91.8125 C 26.09375 -96.445312 26.09375 -100.953125 25.8125 -105.328125 C 25.539062 -109.703125 25 -114.070312 24.1875 -118.4375 C 23.632812 -121.71875 23.359375 -124.929688 23.359375 -128.078125 C 23.359375 -131.222656 23.492188 -134.429688 23.765625 -137.703125 C 23.765625 -142.347656 23.695312 -146.925781 23.5625 -151.4375 C 23.425781 -155.945312 23.085938 -160.523438 22.546875 -165.171875 C 21.992188 -167.359375 21.71875 -169.609375 21.71875 -171.921875 C 21.71875 -174.242188 21.71875 -176.5 21.71875 -178.6875 C 21.71875 -184.425781 21.785156 -190.164062 21.921875 -195.90625 C 22.054688 -201.644531 22.125 -207.242188 22.125 -212.703125 C 22.40625 -216.535156 22.335938 -220.363281 21.921875 -224.1875 C 21.515625 -228.007812 20.765625 -231.832031 19.671875 -235.65625 C 19.128906 -237.570312 18.582031 -239.625 18.03125 -241.8125 C 17.488281 -244 16.941406 -246.046875 16.390625 -247.953125 C 15.023438 -253.960938 12.976562 -259.425781 10.25 -264.34375 C 9.976562 -265.164062 9.632812 -265.984375 9.21875 -266.796875 C 8.8125 -267.617188 8.332031 -268.441406 7.78125 -269.265625 C 4.226562 -276.921875 6.550781 -281.976562 14.75 -284.4375 C 18.851562 -285.800781 22.816406 -286.484375 26.640625 -286.484375 C 29.921875 -286.484375 33.128906 -286.414062 36.265625 -286.28125 C 39.410156 -286.144531 42.625 -285.9375 45.90625 -285.65625 C 52.1875 -285.113281 58.398438 -284.84375 64.546875 -284.84375 C 70.691406 -284.84375 76.910156 -285.253906 83.203125 -286.078125 C 87.566406 -286.617188 91.863281 -286.957031 96.09375 -287.09375 C 100.332031 -287.226562 104.640625 -286.890625 109.015625 -286.078125 C 114.210938 -285.253906 119.472656 -284.84375 124.796875 -284.84375 C 130.128906 -284.84375 135.523438 -285.113281 140.984375 -285.65625 C 143.710938 -285.9375 146.441406 -286.003906 149.171875 -285.859375 C 151.910156 -285.722656 154.644531 -285.382812 157.375 -284.84375 C 162.019531 -284.019531 165.984375 -281.832031 169.265625 -278.28125 C 172.546875 -274.726562 174.050781 -270.90625 173.78125 -266.8125 C 173.78125 -264.625 173.503906 -262.164062 172.953125 -259.4375 C 171.316406 -250.144531 172.679688 -241.535156 177.046875 -233.609375 C 178.421875 -231.148438 179.789062 -228.414062 181.15625 -225.40625 C 183.332031 -219.945312 184.695312 -214.625 185.25 -209.4375 C 185.519531 -202.332031 183.195312 -196.179688 178.28125 -190.984375 C 176.363281 -188.796875 174.175781 -186.742188 171.71875 -184.828125 C 169.257812 -182.921875 166.800781 -181.148438 164.34375 -179.515625 C 162.707031 -178.421875 161.207031 -177.257812 159.84375 -176.03125 C 158.476562 -174.800781 157.109375 -173.503906 155.734375 -172.140625 C 151.910156 -167.765625 151.640625 -163.390625 154.921875 -159.015625 C 157.109375 -156.015625 159.429688 -153.554688 161.890625 -151.640625 C 166.804688 -148.085938 171.039062 -144.125 174.59375 -139.75 C 178.144531 -135.382812 181.695312 -130.742188 185.25 -125.828125 C 186.613281 -123.910156 187.84375 -121.445312 188.9375 -118.4375 C 192.757812 -108.332031 195.765625 -97.953125 197.953125 -87.296875 C 200.140625 -76.640625 200.957031 -65.847656 200.40625 -54.921875 C 200.132812 -51.640625 199.65625 -48.425781 198.96875 -45.28125 C 198.289062 -42.144531 197.269531 -39.207031 195.90625 -36.46875 C 193.988281 -33.195312 192.140625 -29.988281 190.359375 -26.84375 C 188.585938 -23.695312 186.75 -20.488281 184.84375 -17.21875 C 179.644531 -8.75 171.992188 -3.691406 161.890625 -2.046875 C 159.703125 -1.773438 157.648438 -1.5 155.734375 -1.21875 C 153.828125 -0.945312 151.914062 -0.8125 150 -0.8125 C 143.445312 -0.539062 136.957031 -0.335938 130.53125 -0.203125 C 124.113281 -0.0664062 117.765625 0.132812 111.484375 0.40625 Z M 79.515625 -132.375 C 75.960938 -126.09375 73.09375 -119.46875 70.90625 -112.5 C 68.71875 -105.53125 67.625 -98.085938 67.625 -90.171875 C 67.625 -88.796875 67.691406 -87.148438 67.828125 -85.234375 C 67.960938 -83.328125 68.304688 -81.421875 68.859375 -79.515625 C 70.222656 -75.140625 71.65625 -70.765625 73.15625 -66.390625 C 74.65625 -62.023438 76.5 -57.789062 78.6875 -53.6875 C 80.050781 -50.6875 81.894531 -47.953125 84.21875 -45.484375 C 86.539062 -43.023438 89.207031 -40.976562 92.21875 -39.34375 C 97.957031 -35.519531 104.101562 -34.289062 110.65625 -35.65625 C 114.207031 -36.195312 117.625 -37.21875 120.90625 -38.71875 C 124.1875 -40.226562 127.191406 -42.347656 129.921875 -45.078125 C 136.203125 -51.367188 140.84375 -58.269531 143.84375 -65.78125 C 146.851562 -73.289062 147.8125 -81.554688 146.71875 -90.578125 C 146.175781 -95.222656 145.492188 -99.796875 144.671875 -104.296875 C 143.847656 -108.804688 143.03125 -113.25 142.21875 -117.625 C 141.125 -123.363281 139.210938 -128.554688 136.484375 -133.203125 C 128.828125 -144.953125 118.441406 -150.140625 105.328125 -148.765625 C 93.847656 -147.679688 85.242188 -142.21875 79.515625 -132.375 Z M 120.5 -249.59375 C 118.851562 -249.863281 117.28125 -250.066406 115.78125 -250.203125 C 114.28125 -250.347656 112.847656 -250.421875 111.484375 -250.421875 C 105.460938 -250.421875 99.445312 -249.460938 93.4375 -247.546875 C 80.601562 -243.171875 72.679688 -234.425781 69.671875 -221.3125 C 68.578125 -216.664062 67.960938 -211.882812 67.828125 -206.96875 C 67.691406 -202.050781 67.757812 -197.132812 68.03125 -192.21875 C 68.300781 -189.757812 68.984375 -187.160156 70.078125 -184.421875 C 71.722656 -180.054688 75.140625 -178.007812 80.328125 -178.28125 C 83.054688 -178.28125 85.648438 -179.097656 88.109375 -180.734375 C 91.660156 -182.921875 94.671875 -184.972656 97.140625 -186.890625 C 100.960938 -189.617188 104.648438 -192.550781 108.203125 -195.6875 C 111.753906 -198.832031 115.578125 -201.640625 119.671875 -204.109375 C 120.765625 -204.921875 121.789062 -205.804688 122.75 -206.765625 C 123.707031 -207.722656 124.734375 -208.75 125.828125 -209.84375 C 132.378906 -216.394531 134.972656 -224.726562 133.609375 -234.84375 C 132.785156 -242.757812 128.414062 -247.675781 120.5 -249.59375 Z M 120.5 -249.59375 "/></g></g></g><g fill="#b6b8b6" fill-opacity="1"><g transform="translate(1107.26131, 441.40226)"><g><path d="M 63.53125 -0.40625 C 61.613281 -0.40625 58.054688 -0.539062 52.859375 -0.8125 C 47.671875 -1.09375 42.550781 -1.300781 37.5 -1.4375 C 32.445312 -1.570312 28.960938 -1.773438 27.046875 -2.046875 C 25.679688 -2.046875 24.382812 -2.113281 23.15625 -2.25 C 21.925781 -2.382812 20.765625 -2.59375 19.671875 -2.875 C 13.117188 -4.238281 10.523438 -8.335938 11.890625 -15.171875 C 12.160156 -16.804688 12.566406 -18.171875 13.109375 -19.265625 C 16.117188 -24.722656 18.03125 -30.390625 18.84375 -36.265625 C 19.664062 -42.140625 20.351562 -48.082031 20.90625 -54.09375 C 21.175781 -56.28125 21.3125 -58.46875 21.3125 -60.65625 C 21.039062 -69.125 21.3125 -77.59375 22.125 -86.0625 C 22.945312 -94.53125 23.632812 -103.140625 24.1875 -111.890625 C 24.457031 -117.898438 24.59375 -124.046875 24.59375 -130.328125 C 24.59375 -136.609375 24.316406 -142.894531 23.765625 -149.1875 C 22.671875 -159.84375 21.847656 -170.5 21.296875 -181.15625 C 20.753906 -191.8125 21.03125 -202.46875 22.125 -213.125 C 22.945312 -219.132812 22.675781 -224.9375 21.3125 -230.53125 C 19.945312 -236.132812 18.304688 -241.804688 16.390625 -247.546875 C 15.578125 -250.003906 14.625 -252.394531 13.53125 -254.71875 C 12.4375 -257.039062 11.476562 -259.429688 10.65625 -261.890625 C 9.832031 -263.253906 9.144531 -264.753906 8.59375 -266.390625 C 8.050781 -268.035156 7.78125 -269.675781 7.78125 -271.3125 C 7.507812 -278.144531 10.65625 -282.519531 17.21875 -284.4375 C 19.675781 -284.976562 22.269531 -285.25 25 -285.25 C 29.914062 -284.976562 34.832031 -284.976562 39.75 -285.25 C 44.664062 -285.519531 49.585938 -285.929688 54.515625 -286.484375 C 56.691406 -286.753906 58.804688 -286.890625 60.859375 -286.890625 C 62.910156 -286.890625 65.03125 -286.753906 67.21875 -286.484375 C 69.945312 -286.484375 72.269531 -285.9375 74.1875 -284.84375 C 79.375 -281.832031 81.554688 -277.867188 80.734375 -272.953125 C 80.460938 -271.046875 80.117188 -269.066406 79.703125 -267.015625 C 79.296875 -264.960938 78.820312 -262.984375 78.28125 -261.078125 C 76.914062 -256.972656 75.6875 -252.867188 74.59375 -248.765625 C 73.5 -244.671875 72.675781 -240.578125 72.125 -236.484375 C 70.757812 -225.828125 69.328125 -215.171875 67.828125 -204.515625 C 66.328125 -193.859375 66.125 -183.203125 67.21875 -172.546875 C 67.757812 -166.804688 67.347656 -160.65625 65.984375 -154.09375 C 65.160156 -148.363281 65.296875 -142.351562 66.390625 -136.0625 C 68.035156 -127.863281 68.3125 -119.394531 67.21875 -110.65625 C 66.394531 -101.644531 66.117188 -92.695312 66.390625 -83.8125 C 66.660156 -74.9375 67.070312 -66.125 67.625 -57.375 C 67.894531 -51.09375 68.710938 -44.878906 70.078125 -38.734375 C 71.441406 -32.585938 73.628906 -26.78125 76.640625 -21.3125 C 77.460938 -19.675781 78.144531 -17.628906 78.6875 -15.171875 C 80.050781 -9.429688 78.003906 -5.191406 72.546875 -2.453125 C 71.179688 -1.640625 69.742188 -1.09375 68.234375 -0.8125 C 66.734375 -0.539062 65.164062 -0.40625 63.53125 -0.40625 Z M 63.53125 -0.40625 "/></g></g></g><g fill="#b6b8b6" fill-opacity="1"><g transform="translate(1217.098335, 441.40226)"><g><path d="M 36.0625 -245.5 C 36.0625 -249.050781 36.0625 -252.671875 36.0625 -256.359375 C 36.0625 -260.046875 35.925781 -263.800781 35.65625 -267.625 C 35.382812 -273.90625 36.882812 -278.273438 40.15625 -280.734375 C 43.4375 -283.203125 47.265625 -284.4375 51.640625 -284.4375 C 57.109375 -284.707031 62.640625 -284.910156 68.234375 -285.046875 C 73.835938 -285.179688 79.375 -284.976562 84.84375 -284.4375 C 93.582031 -283.613281 102.390625 -283.203125 111.265625 -283.203125 C 120.148438 -283.203125 128.960938 -283.203125 137.703125 -283.203125 C 139.890625 -283.203125 142.078125 -283.269531 144.265625 -283.40625 C 146.453125 -283.539062 148.640625 -283.472656 150.828125 -283.203125 C 153.554688 -283.203125 155.878906 -282.925781 157.796875 -282.375 C 162.984375 -280.738281 165.710938 -277.050781 165.984375 -271.3125 C 165.984375 -270.21875 165.984375 -269.265625 165.984375 -268.453125 C 164.617188 -260.523438 164.207031 -252.597656 164.75 -244.671875 C 165.300781 -236.753906 165.847656 -228.832031 166.390625 -220.90625 C 166.941406 -217.894531 167.554688 -214.882812 168.234375 -211.875 C 168.921875 -208.875 169.675781 -206.007812 170.5 -203.28125 C 172.132812 -197.269531 173.429688 -191.328125 174.390625 -185.453125 C 175.347656 -179.578125 175.6875 -173.632812 175.40625 -167.625 C 175.40625 -163.800781 175.75 -159.90625 176.4375 -155.9375 C 177.125 -151.976562 178.148438 -148.085938 179.515625 -144.265625 C 180.328125 -141.804688 181.210938 -139.28125 182.171875 -136.6875 C 183.128906 -134.09375 184.019531 -131.425781 184.84375 -128.6875 C 186.207031 -124.59375 187.363281 -120.359375 188.3125 -115.984375 C 189.269531 -111.609375 190.023438 -107.238281 190.578125 -102.875 C 191.117188 -98.226562 191.734375 -93.648438 192.421875 -89.140625 C 193.109375 -84.628906 193.859375 -80.191406 194.671875 -75.828125 C 196.035156 -67.628906 196.445312 -59.703125 195.90625 -52.046875 C 195.351562 -45.765625 194.050781 -39.753906 192 -34.015625 C 189.957031 -28.273438 187.023438 -22.945312 183.203125 -18.03125 C 179.648438 -13.65625 175.550781 -10.238281 170.90625 -7.78125 C 166.257812 -5.320312 161.203125 -3.546875 155.734375 -2.453125 C 142.617188 0.546875 129.234375 1.09375 115.578125 -0.8125 C 107.378906 -2.1875 99.179688 -2.328125 90.984375 -1.234375 C 82.785156 -0.140625 74.585938 -0.0664062 66.390625 -1.015625 C 58.191406 -1.972656 49.992188 -3.273438 41.796875 -4.921875 C 36.335938 -6.285156 30.804688 -9.289062 25.203125 -13.9375 C 19.597656 -18.582031 14.953125 -24.25 11.265625 -30.9375 C 7.578125 -37.632812 5.867188 -44.398438 6.140625 -51.234375 C 6.421875 -56.972656 6.832031 -62.773438 7.375 -68.640625 C 7.925781 -74.515625 8.75 -80.320312 9.84375 -86.0625 C 11.75 -95.351562 12.976562 -104.644531 13.53125 -113.9375 C 13.800781 -117.488281 14.34375 -120.972656 15.15625 -124.390625 C 15.976562 -127.804688 16.9375 -131.148438 18.03125 -134.421875 C 20.757812 -140.984375 22.875 -147.609375 24.375 -154.296875 C 25.882812 -160.992188 27.1875 -167.757812 28.28125 -174.59375 C 28.550781 -178.144531 29.097656 -181.421875 29.921875 -184.421875 C 32.109375 -193.441406 33.742188 -202.457031 34.828125 -211.46875 C 35.921875 -220.488281 36.332031 -229.644531 36.0625 -238.9375 C 36.0625 -240.03125 36.0625 -241.125 36.0625 -242.21875 C 36.0625 -243.3125 36.0625 -244.40625 36.0625 -245.5 Z M 57.78125 -128.6875 C 58.0625 -126.5 58.203125 -124.242188 58.203125 -121.921875 C 58.203125 -119.597656 58.203125 -117.207031 58.203125 -114.75 C 58.203125 -114.75 58.0625 -114.75 57.78125 -114.75 C 57.78125 -113.65625 57.847656 -112.492188 57.984375 -111.265625 C 58.128906 -110.035156 58.0625 -108.738281 57.78125 -107.375 C 56.96875 -97.539062 58.128906 -88.316406 61.265625 -79.703125 C 64.410156 -71.097656 68.441406 -62.835938 73.359375 -54.921875 C 77.179688 -48.640625 81.6875 -44.335938 86.875 -42.015625 C 92.070312 -39.691406 98.359375 -39.484375 105.734375 -41.390625 C 113.660156 -43.578125 120.492188 -47.195312 126.234375 -52.25 C 131.972656 -57.3125 135.796875 -64.347656 137.703125 -73.359375 C 139.617188 -82.921875 140.914062 -92.6875 141.59375 -102.65625 C 142.28125 -112.632812 142.351562 -122.539062 141.8125 -132.375 C 141.8125 -136.75 141.671875 -141.050781 141.390625 -145.28125 C 141.117188 -149.519531 140.847656 -153.828125 140.578125 -158.203125 C 140.578125 -159.835938 140.578125 -161.472656 140.578125 -163.109375 C 140.578125 -164.753906 140.441406 -166.394531 140.171875 -168.03125 C 138.804688 -175.957031 137.4375 -183.8125 136.0625 -191.59375 C 134.695312 -199.382812 133.332031 -207.242188 131.96875 -215.171875 C 131.96875 -215.984375 131.832031 -216.9375 131.5625 -218.03125 C 128.550781 -228.414062 123.085938 -237.4375 115.171875 -245.09375 C 110.796875 -249.457031 106.007812 -251.640625 100.8125 -251.640625 C 95.625 -251.640625 90.847656 -249.59375 86.484375 -245.5 C 84.015625 -243.3125 81.550781 -240.578125 79.09375 -237.296875 C 76.632812 -233.742188 74.65625 -229.988281 73.15625 -226.03125 C 71.65625 -222.070312 70.492188 -217.90625 69.671875 -213.53125 C 68.304688 -207.519531 67.078125 -201.644531 65.984375 -195.90625 C 65.160156 -192.082031 64.269531 -188.328125 63.3125 -184.640625 C 62.363281 -180.953125 61.613281 -177.191406 61.0625 -173.359375 C 59.695312 -165.984375 58.601562 -158.609375 57.78125 -151.234375 C 56.96875 -143.859375 56.96875 -136.34375 57.78125 -128.6875 Z M 57.78125 -128.6875 "/></g></g></g></svg>