<svg xmlns="http://www.w3.org/2000/svg" xmlns:xlink="http://www.w3.org/1999/xlink" width="4669" zoomAndPan="magnify" viewBox="0 0 3501.75 962.999993" height="1284" preserveAspectRatio="xMidYMid meet" version="1.0"><defs><g/></defs><g fill="#b6b8b6" fill-opacity="1"><g transform="translate(632.643092, 646.938183)"><g><path d="M 73.1875 -421.765625 C 79.1875 -421.765625 85.085938 -421.765625 90.890625 -421.765625 C 96.691406 -421.765625 102.390625 -421.765625 107.984375 -421.765625 C 116.390625 -421.765625 124.691406 -421.460938 132.890625 -420.859375 C 141.085938 -420.265625 149.382812 -419.367188 157.78125 -418.171875 C 161.382812 -417.765625 164.984375 -417.5625 168.578125 -417.5625 C 172.179688 -417.5625 175.785156 -417.363281 179.390625 -416.96875 C 183.785156 -416.96875 188.179688 -416.96875 192.578125 -416.96875 C 196.984375 -416.96875 201.382812 -416.96875 205.78125 -416.96875 C 210.976562 -416.570312 215.378906 -415.769531 218.984375 -414.5625 C 228.578125 -411.769531 232.976562 -405.375 232.1875 -395.375 C 232.1875 -394.164062 231.984375 -392.863281 231.578125 -391.46875 C 231.179688 -390.070312 230.984375 -388.769531 230.984375 -387.5625 C 227.378906 -371.570312 229.78125 -356.972656 238.1875 -343.765625 C 241.78125 -338.566406 244.773438 -333.269531 247.171875 -327.875 C 249.578125 -322.476562 251.378906 -316.578125 252.578125 -310.171875 C 254.179688 -301.773438 253.582031 -294.378906 250.78125 -287.984375 C 245.582031 -275.578125 236.382812 -268.578125 223.1875 -266.984375 C 221.582031 -266.984375 219.878906 -266.984375 218.078125 -266.984375 C 216.285156 -266.984375 214.585938 -266.984375 212.984375 -266.984375 C 207.785156 -266.984375 202.582031 -266.878906 197.375 -266.671875 C 192.175781 -266.472656 186.976562 -265.972656 181.78125 -265.171875 C 176.988281 -264.378906 171.59375 -264.378906 165.59375 -265.171875 C 151.988281 -267.578125 143.1875 -275.378906 139.1875 -288.578125 C 137.988281 -291.378906 137.1875 -294.378906 136.78125 -297.578125 C 136.382812 -300.773438 136.390625 -303.972656 136.796875 -307.171875 C 137.585938 -313.171875 140.984375 -316.570312 146.984375 -317.375 C 149.390625 -317.769531 151.691406 -317.867188 153.890625 -317.671875 C 156.085938 -317.472656 158.382812 -317.570312 160.78125 -317.96875 C 173.582031 -318.769531 179.382812 -325.171875 178.1875 -337.171875 C 177.382812 -344.367188 175.179688 -350.867188 171.578125 -356.671875 C 167.984375 -362.472656 162.988281 -367.171875 156.59375 -370.765625 C 150.59375 -373.566406 144.789062 -374.566406 139.1875 -373.765625 C 133.59375 -372.972656 128.191406 -370.773438 122.984375 -367.171875 C 117.785156 -363.171875 112.882812 -358.769531 108.28125 -353.96875 C 103.6875 -349.164062 99.988281 -343.566406 97.1875 -337.171875 C 96.394531 -334.367188 95.5 -331.769531 94.5 -329.375 C 93.5 -326.976562 92.796875 -324.378906 92.390625 -321.578125 C 89.585938 -310.378906 87.1875 -299.078125 85.1875 -287.671875 C 83.1875 -276.273438 82.390625 -264.578125 82.796875 -252.578125 C 82.796875 -246.984375 82.691406 -241.382812 82.484375 -235.78125 C 82.285156 -230.175781 81.585938 -224.578125 80.390625 -218.984375 C 79.585938 -213.785156 79.488281 -205.984375 80.09375 -195.578125 C 80.695312 -185.179688 81.695312 -174.179688 83.09375 -162.578125 C 84.488281 -150.984375 86.1875 -140.988281 88.1875 -132.59375 C 89.789062 -125.394531 92.394531 -118.796875 96 -112.796875 C 98.789062 -107.992188 101.6875 -103.191406 104.6875 -98.390625 C 107.6875 -93.585938 110.785156 -88.789062 113.984375 -84 C 122.390625 -71.59375 132.988281 -63.191406 145.78125 -58.796875 C 161.382812 -53.992188 174.585938 -56.992188 185.390625 -67.796875 C 191.785156 -74.191406 196.78125 -81.085938 200.375 -88.484375 C 203.976562 -95.890625 205.582031 -104.191406 205.1875 -113.390625 C 205.1875 -116.992188 205.285156 -120.59375 205.484375 -124.1875 C 205.679688 -127.789062 205.78125 -131.390625 205.78125 -134.984375 C 205.78125 -140.179688 206.78125 -144.382812 208.78125 -147.59375 C 212.382812 -154.382812 217.582031 -156.179688 224.375 -152.984375 C 226.375 -152.179688 228.578125 -150.78125 230.984375 -148.78125 C 233.378906 -146.78125 235.375 -144.582031 236.96875 -142.1875 C 238.570312 -139.789062 239.976562 -137.191406 241.1875 -134.390625 C 243.976562 -128.390625 246.773438 -122.289062 249.578125 -116.09375 C 252.378906 -109.894531 254.976562 -103.796875 257.375 -97.796875 C 264.175781 -79.390625 266.378906 -59.988281 263.984375 -39.59375 C 262.773438 -29.195312 257.570312 -20.597656 248.375 -13.796875 C 240.375 -7.398438 231.773438 -2.800781 222.578125 0 C 213.378906 2.800781 203.582031 3.398438 193.1875 1.796875 C 183.582031 -0.203125 173.78125 -0.203125 163.78125 1.796875 C 149.78125 4.597656 135.582031 5 121.1875 3 C 113.59375 1.800781 106.09375 0.800781 98.6875 0 C 91.289062 -0.800781 83.789062 -1.800781 76.1875 -3 C 70.988281 -3.394531 66.289062 -4.691406 62.09375 -6.890625 C 57.894531 -9.097656 53.796875 -12 49.796875 -15.59375 C 34.191406 -29.195312 24.191406 -46.195312 19.796875 -66.59375 C 17.796875 -76.195312 16.09375 -85.894531 14.6875 -95.6875 C 13.289062 -105.488281 13.195312 -115.390625 14.40625 -125.390625 C 14.800781 -127.390625 15 -129.390625 15 -131.390625 C 15 -133.390625 15 -135.390625 15 -137.390625 C 15.800781 -152.191406 16.800781 -167.085938 18 -182.078125 C 19.195312 -197.078125 20.796875 -211.976562 22.796875 -226.78125 C 24.398438 -237.582031 26.398438 -247.582031 28.796875 -256.78125 C 30.398438 -261.976562 31.703125 -267.078125 32.703125 -272.078125 C 33.703125 -277.078125 34.203125 -282.175781 34.203125 -287.375 C 34.203125 -291.78125 34.597656 -296.082031 35.390625 -300.28125 C 36.191406 -304.476562 36.992188 -308.578125 37.796875 -312.578125 C 40.992188 -325.378906 42.59375 -338.078125 42.59375 -350.671875 C 42.59375 -363.273438 41.992188 -375.972656 40.796875 -388.765625 C 40.398438 -389.960938 40.097656 -391.257812 39.890625 -392.65625 C 39.691406 -394.0625 39.59375 -395.363281 39.59375 -396.5625 C 39.195312 -407.769531 44.195312 -415.375 54.59375 -419.375 C 57.789062 -420.164062 60.890625 -420.757812 63.890625 -421.15625 C 66.890625 -421.5625 69.988281 -421.765625 73.1875 -421.765625 Z M 73.1875 -421.765625 "/></g></g></g><g fill="#b6b8b6" fill-opacity="1"><g transform="translate(936.820936, 646.938183)"><g><path d="M 52.796875 -359.375 C 52.796875 -364.570312 52.796875 -369.867188 52.796875 -375.265625 C 52.796875 -380.671875 52.597656 -386.171875 52.203125 -391.765625 C 51.796875 -400.960938 53.992188 -407.363281 58.796875 -410.96875 C 63.597656 -414.570312 69.195312 -416.375 75.59375 -416.375 C 83.59375 -416.769531 91.691406 -417.066406 99.890625 -417.265625 C 108.085938 -417.460938 116.1875 -417.164062 124.1875 -416.375 C 136.988281 -415.164062 149.890625 -414.5625 162.890625 -414.5625 C 175.890625 -414.5625 188.785156 -414.5625 201.578125 -414.5625 C 204.785156 -414.5625 207.988281 -414.660156 211.1875 -414.859375 C 214.382812 -415.066406 217.582031 -414.96875 220.78125 -414.5625 C 224.78125 -414.5625 228.179688 -414.164062 230.984375 -413.375 C 238.578125 -410.96875 242.578125 -405.566406 242.984375 -397.171875 C 242.984375 -395.566406 242.984375 -394.164062 242.984375 -392.96875 C 240.984375 -381.375 240.378906 -369.773438 241.171875 -358.171875 C 241.972656 -346.566406 242.773438 -334.96875 243.578125 -323.375 C 244.378906 -318.976562 245.28125 -314.578125 246.28125 -310.171875 C 247.28125 -305.773438 248.378906 -301.578125 249.578125 -297.578125 C 251.984375 -288.773438 253.882812 -280.070312 255.28125 -271.46875 C 256.675781 -262.875 257.175781 -254.175781 256.78125 -245.375 C 256.78125 -239.78125 257.28125 -234.082031 258.28125 -228.28125 C 259.28125 -222.476562 260.78125 -216.78125 262.78125 -211.1875 C 263.976562 -207.582031 265.273438 -203.878906 266.671875 -200.078125 C 268.078125 -196.285156 269.378906 -192.390625 270.578125 -188.390625 C 272.578125 -182.390625 274.273438 -176.1875 275.671875 -169.78125 C 277.078125 -163.382812 278.179688 -156.988281 278.984375 -150.59375 C 279.773438 -143.789062 280.671875 -137.085938 281.671875 -130.484375 C 282.671875 -123.890625 283.773438 -117.390625 284.984375 -110.984375 C 286.984375 -98.992188 287.582031 -87.394531 286.78125 -76.1875 C 285.976562 -66.988281 284.078125 -58.191406 281.078125 -49.796875 C 278.078125 -41.398438 273.773438 -33.597656 268.171875 -26.390625 C 262.972656 -19.992188 256.972656 -14.992188 250.171875 -11.390625 C 243.378906 -7.796875 235.984375 -5.195312 227.984375 -3.59375 C 208.785156 0.800781 189.1875 1.597656 169.1875 -1.203125 C 157.1875 -3.203125 145.1875 -3.398438 133.1875 -1.796875 C 121.1875 -0.203125 109.1875 -0.101562 97.1875 -1.5 C 85.1875 -2.894531 73.1875 -4.796875 61.1875 -7.203125 C 53.195312 -9.203125 45.097656 -13.597656 36.890625 -20.390625 C 28.691406 -27.191406 21.894531 -35.492188 16.5 -45.296875 C 11.101562 -55.097656 8.601562 -65 9 -75 C 9.394531 -83.394531 9.992188 -91.890625 10.796875 -100.484375 C 11.597656 -109.085938 12.800781 -117.585938 14.40625 -125.984375 C 17.195312 -139.585938 18.992188 -153.1875 19.796875 -166.78125 C 20.191406 -171.988281 20.988281 -177.085938 22.1875 -182.078125 C 23.394531 -187.078125 24.796875 -191.976562 26.390625 -196.78125 C 30.390625 -206.382812 33.488281 -216.082031 35.6875 -225.875 C 37.894531 -235.675781 39.796875 -245.578125 41.390625 -255.578125 C 41.796875 -260.773438 42.597656 -265.578125 43.796875 -269.984375 C 46.992188 -283.179688 49.390625 -296.378906 50.984375 -309.578125 C 52.585938 -322.773438 53.191406 -336.171875 52.796875 -349.765625 C 52.796875 -351.367188 52.796875 -352.96875 52.796875 -354.5625 C 52.796875 -356.164062 52.796875 -357.769531 52.796875 -359.375 Z M 84.59375 -188.390625 C 84.988281 -185.179688 85.1875 -181.878906 85.1875 -178.484375 C 85.1875 -175.085938 85.1875 -171.585938 85.1875 -167.984375 C 85.1875 -167.984375 84.988281 -167.984375 84.59375 -167.984375 C 84.59375 -166.390625 84.691406 -164.691406 84.890625 -162.890625 C 85.085938 -161.085938 84.988281 -159.1875 84.59375 -157.1875 C 83.394531 -142.789062 85.09375 -129.289062 89.6875 -116.6875 C 94.289062 -104.09375 100.191406 -91.992188 107.390625 -80.390625 C 112.992188 -71.191406 119.59375 -64.890625 127.1875 -61.484375 C 134.789062 -58.085938 143.988281 -57.789062 154.78125 -60.59375 C 166.382812 -63.789062 176.382812 -69.085938 184.78125 -76.484375 C 193.1875 -83.890625 198.785156 -94.191406 201.578125 -107.390625 C 204.378906 -121.390625 206.28125 -135.6875 207.28125 -150.28125 C 208.28125 -164.882812 208.378906 -179.382812 207.578125 -193.78125 C 207.578125 -200.1875 207.378906 -206.488281 206.984375 -212.6875 C 206.585938 -218.882812 206.1875 -225.179688 205.78125 -231.578125 C 205.78125 -233.984375 205.78125 -236.382812 205.78125 -238.78125 C 205.78125 -241.175781 205.582031 -243.578125 205.1875 -245.984375 C 203.1875 -257.578125 201.1875 -269.070312 199.1875 -280.46875 C 197.1875 -291.875 195.1875 -303.375 193.1875 -314.96875 C 193.1875 -316.175781 192.984375 -317.578125 192.578125 -319.171875 C 188.179688 -334.367188 180.1875 -347.566406 168.59375 -358.765625 C 162.1875 -365.171875 155.179688 -368.375 147.578125 -368.375 C 139.984375 -368.375 132.988281 -365.375 126.59375 -359.375 C 122.988281 -356.175781 119.390625 -352.175781 115.796875 -347.375 C 112.191406 -342.175781 109.289062 -336.675781 107.09375 -330.875 C 104.894531 -325.070312 103.191406 -318.972656 101.984375 -312.578125 C 99.992188 -303.773438 98.195312 -295.175781 96.59375 -286.78125 C 95.394531 -281.175781 94.09375 -275.671875 92.6875 -270.265625 C 91.289062 -264.867188 90.191406 -259.375 89.390625 -253.78125 C 87.390625 -242.976562 85.789062 -232.175781 84.59375 -221.375 C 83.394531 -210.582031 83.394531 -199.585938 84.59375 -188.390625 Z M 84.59375 -188.390625 "/></g></g></g><g fill="#b6b8b6" fill-opacity="1"><g transform="translate(1263.197172, 646.938183)"><g><path d="M 75 -297.578125 C 73.394531 -285.578125 72.492188 -273.476562 72.296875 -261.28125 C 72.097656 -249.082031 72 -236.984375 72 -224.984375 C 72 -218.585938 72 -212.085938 72 -205.484375 C 72 -198.878906 72 -192.378906 72 -185.984375 C 72 -183.984375 72 -181.78125 72 -179.375 C 72 -176.976562 71.796875 -174.78125 71.390625 -172.78125 C 69.390625 -162.78125 68.890625 -152.78125 69.890625 -142.78125 C 70.890625 -132.789062 72.59375 -122.796875 75 -112.796875 C 76.195312 -107.585938 77.09375 -102.285156 77.6875 -96.890625 C 78.289062 -91.492188 78.992188 -86.195312 79.796875 -81 C 80.597656 -77.394531 81.296875 -73.890625 81.890625 -70.484375 C 82.492188 -67.085938 83.195312 -63.59375 84 -60 C 86.394531 -49.59375 91.191406 -41.191406 98.390625 -34.796875 C 101.585938 -31.191406 104.1875 -27.992188 106.1875 -25.203125 C 112.988281 -15.203125 110.789062 -8 99.59375 -3.59375 C 94.394531 -1.59375 89.195312 -0.59375 84 -0.59375 C 75.195312 -0.59375 66.394531 -0.59375 57.59375 -0.59375 C 48.789062 -0.59375 40.191406 -0.394531 31.796875 0 C 26.191406 0 21.394531 -1.195312 17.40625 -3.59375 C 8.601562 -9.195312 6.203125 -16.597656 10.203125 -25.796875 C 12.203125 -30.191406 14.601562 -33.992188 17.40625 -37.203125 C 23.800781 -44.796875 28.394531 -52.890625 31.1875 -61.484375 C 33.988281 -70.085938 35.191406 -79.390625 34.796875 -89.390625 C 33.597656 -111.390625 35.398438 -133.1875 40.203125 -154.78125 C 42.597656 -163.988281 42.992188 -173.789062 41.390625 -184.1875 C 39.390625 -200.1875 39.191406 -216.1875 40.796875 -232.1875 C 41.992188 -240.1875 42.289062 -248.285156 41.6875 -256.484375 C 41.09375 -264.679688 40.195312 -272.578125 39 -280.171875 C 36.59375 -292.171875 34.789062 -304.070312 33.59375 -315.875 C 32.394531 -327.675781 30.992188 -339.375 29.390625 -350.96875 C 28.597656 -356.96875 27.597656 -363.066406 26.390625 -369.265625 C 25.191406 -375.472656 23.191406 -381.375 20.390625 -386.96875 C 19.191406 -389.363281 18.195312 -391.960938 17.40625 -394.765625 C 15 -403.960938 18.195312 -410.5625 27 -414.5625 C 29.394531 -415.769531 31.796875 -416.375 34.203125 -416.375 C 41.398438 -417.164062 48.597656 -417.757812 55.796875 -418.15625 C 62.992188 -418.5625 70.191406 -417.96875 77.390625 -416.375 C 92.191406 -413.96875 105.191406 -407.566406 116.390625 -397.171875 C 126.785156 -388.367188 135.382812 -378.367188 142.1875 -367.171875 C 148.988281 -355.972656 153.585938 -343.570312 155.984375 -329.96875 C 157.585938 -317.570312 160.1875 -305.375 163.78125 -293.375 C 167.382812 -281.375 170.785156 -269.375 173.984375 -257.375 C 175.984375 -250.582031 177.882812 -243.6875 179.6875 -236.6875 C 181.488281 -229.6875 182.785156 -222.585938 183.578125 -215.390625 C 185.984375 -194.984375 191.984375 -175.78125 201.578125 -157.78125 C 202.378906 -155.78125 203.179688 -153.78125 203.984375 -151.78125 C 204.785156 -149.78125 205.785156 -147.78125 206.984375 -145.78125 C 207.378906 -144.582031 207.878906 -143.382812 208.484375 -142.1875 C 209.085938 -140.988281 209.785156 -139.789062 210.578125 -138.59375 C 212.179688 -136.59375 214.179688 -135.691406 216.578125 -135.890625 C 218.984375 -136.085938 220.785156 -137.1875 221.984375 -139.1875 C 223.578125 -141.582031 224.578125 -144.179688 224.984375 -146.984375 C 225.378906 -150.984375 225.578125 -154.382812 225.578125 -157.1875 C 225.578125 -167.1875 225.578125 -177.082031 225.578125 -186.875 C 225.578125 -196.675781 224.78125 -206.578125 223.1875 -216.578125 C 222.78125 -220.179688 222.675781 -223.78125 222.875 -227.375 C 223.082031 -230.976562 223.582031 -234.582031 224.375 -238.1875 C 226.375 -252.582031 225.976562 -266.378906 223.1875 -279.578125 C 221.1875 -289.179688 219.882812 -298.878906 219.28125 -308.671875 C 218.6875 -318.472656 218.1875 -328.375 217.78125 -338.375 C 217.78125 -353.175781 213.582031 -366.578125 205.1875 -378.578125 C 203.582031 -380.566406 202.078125 -382.660156 200.671875 -384.859375 C 199.273438 -387.066406 198.179688 -389.570312 197.390625 -392.375 C 195.390625 -397.96875 195.6875 -402.863281 198.28125 -407.0625 C 200.882812 -411.269531 204.984375 -414.171875 210.578125 -415.765625 C 212.984375 -416.171875 215.285156 -416.375 217.484375 -416.375 C 219.679688 -416.375 221.78125 -416.171875 223.78125 -415.765625 C 234.976562 -414.171875 246.578125 -412.769531 258.578125 -411.5625 C 268.179688 -410.363281 274.378906 -407.5625 277.171875 -403.15625 C 279.972656 -398.757812 280.175781 -391.960938 277.78125 -382.765625 C 276.175781 -376.765625 274.175781 -370.96875 271.78125 -365.375 C 268.175781 -356.96875 265.570312 -348.363281 263.96875 -339.5625 C 262.375 -330.769531 261.175781 -321.972656 260.375 -313.171875 C 259.976562 -301.578125 259.679688 -289.878906 259.484375 -278.078125 C 259.285156 -266.273438 259.984375 -254.578125 261.578125 -242.984375 C 261.972656 -240.578125 262.171875 -238.375 262.171875 -236.375 C 261.378906 -226.78125 260.78125 -217.179688 260.375 -207.578125 C 259.976562 -197.984375 259.378906 -188.382812 258.578125 -178.78125 C 257.773438 -169.1875 257.375 -159.585938 257.375 -149.984375 C 257.375 -140.390625 257.773438 -130.789062 258.578125 -121.1875 C 260.179688 -106.789062 261.378906 -92.59375 262.171875 -78.59375 C 263.378906 -64.195312 266.378906 -50.195312 271.171875 -36.59375 C 271.972656 -33.789062 272.773438 -30.988281 273.578125 -28.1875 C 274.378906 -25.394531 275.179688 -22.597656 275.984375 -19.796875 C 277.578125 -9.398438 272.972656 -2.601562 262.171875 0.59375 C 260.578125 1 259.378906 1.203125 258.578125 1.203125 C 250.984375 1.597656 243.484375 1.894531 236.078125 2.09375 C 228.679688 2.300781 221.382812 2.203125 214.1875 1.796875 C 203.382812 0.597656 194.582031 -4.398438 187.78125 -13.203125 C 179.382812 -23.992188 172.085938 -35.1875 165.890625 -46.78125 C 159.691406 -58.382812 155.59375 -71.1875 153.59375 -85.1875 C 151.988281 -96.382812 148.585938 -107.785156 143.390625 -119.390625 C 136.992188 -133.390625 133.191406 -148.1875 131.984375 -163.78125 C 130.390625 -180.582031 126.59375 -196.984375 120.59375 -212.984375 C 118.59375 -218.179688 116.890625 -223.179688 115.484375 -227.984375 C 114.085938 -232.785156 112.988281 -237.785156 112.1875 -242.984375 C 111.382812 -246.179688 110.785156 -248.78125 110.390625 -250.78125 C 107.191406 -258.78125 104.289062 -266.976562 101.6875 -275.375 C 99.09375 -283.78125 96.992188 -292.179688 95.390625 -300.578125 C 94.585938 -305.378906 92.789062 -308.976562 90 -311.375 C 85.59375 -315.375 81.59375 -314.972656 78 -310.171875 C 76.789062 -308.171875 75.988281 -306.171875 75.59375 -304.171875 C 75.195312 -302.171875 75 -299.972656 75 -297.578125 Z M 75 -297.578125 "/></g></g></g><g fill="#b6b8b6" fill-opacity="1"><g transform="translate(1585.973672, 646.938183)"><g><path d="M 113.984375 -419.375 C 113.984375 -419.375 117.179688 -419.375 123.578125 -419.375 C 129.984375 -419.375 135.1875 -419.570312 139.1875 -419.96875 C 149.1875 -420.363281 159.285156 -420.460938 169.484375 -420.265625 C 179.679688 -420.066406 189.78125 -419.367188 199.78125 -418.171875 C 204.1875 -417.765625 208.585938 -417.5625 212.984375 -417.5625 C 217.378906 -417.5625 221.976562 -417.5625 226.78125 -417.5625 C 229.175781 -417.5625 231.570312 -417.460938 233.96875 -417.265625 C 236.375 -417.066406 238.78125 -416.96875 241.1875 -416.96875 C 257.175781 -415.769531 269.375 -408.171875 277.78125 -394.171875 C 290.976562 -372.171875 294.773438 -348.570312 289.171875 -323.375 C 287.972656 -317.769531 286.175781 -313.171875 283.78125 -309.578125 C 281.375 -306.773438 278.472656 -305.171875 275.078125 -304.765625 C 271.679688 -304.367188 268.78125 -305.570312 266.375 -308.375 C 263.976562 -310.769531 261.78125 -313.570312 259.78125 -316.78125 C 258.582031 -319.570312 257.28125 -322.46875 255.875 -325.46875 C 254.476562 -328.46875 253.179688 -331.367188 251.984375 -334.171875 C 249.578125 -339.773438 246.472656 -345.078125 242.671875 -350.078125 C 238.878906 -355.078125 234.582031 -359.773438 229.78125 -364.171875 C 226.582031 -367.367188 223.179688 -369.367188 219.578125 -370.171875 C 211.578125 -372.566406 204.578125 -371.164062 198.578125 -365.96875 C 192.179688 -360.375 187.785156 -353.175781 185.390625 -344.375 C 181.785156 -332.375 179.785156 -320.570312 179.390625 -308.96875 C 178.984375 -301.769531 178.878906 -294.570312 179.078125 -287.375 C 179.285156 -280.175781 179.785156 -272.976562 180.578125 -265.78125 C 181.785156 -256.175781 181.785156 -246.773438 180.578125 -237.578125 C 179.785156 -232.773438 179.285156 -227.875 179.078125 -222.875 C 178.878906 -217.882812 178.78125 -212.988281 178.78125 -208.1875 C 178.78125 -199.78125 178.78125 -191.273438 178.78125 -182.671875 C 178.78125 -174.078125 178.984375 -165.582031 179.390625 -157.1875 C 180.179688 -146.382812 181.078125 -135.679688 182.078125 -125.078125 C 183.078125 -114.484375 185.179688 -103.988281 188.390625 -93.59375 C 190.390625 -85.988281 192.1875 -78.382812 193.78125 -70.78125 C 195.382812 -63.1875 197.382812 -55.59375 199.78125 -48 C 200.976562 -45.195312 202.078125 -42.296875 203.078125 -39.296875 C 204.078125 -36.296875 204.976562 -33.195312 205.78125 -30 C 206.1875 -28.394531 206.6875 -26.691406 207.28125 -24.890625 C 207.882812 -23.097656 208.1875 -21.398438 208.1875 -19.796875 C 208.988281 -12.597656 205.988281 -7.800781 199.1875 -5.40625 C 195.988281 -4.195312 192.785156 -3.59375 189.578125 -3.59375 C 183.578125 -3.59375 177.476562 -3.09375 171.28125 -2.09375 C 165.082031 -1.09375 158.785156 -0.195312 152.390625 0.59375 C 146.390625 1.800781 140.1875 2.503906 133.78125 2.703125 C 127.382812 2.898438 121.1875 2.800781 115.1875 2.40625 C 109.1875 2.40625 103.988281 1.203125 99.59375 -1.203125 C 90.394531 -5.203125 86.796875 -12 88.796875 -21.59375 C 89.191406 -24 89.789062 -26.398438 90.59375 -28.796875 C 91.394531 -31.191406 92.394531 -33.390625 93.59375 -35.390625 C 95.195312 -38.992188 96.796875 -42.492188 98.390625 -45.890625 C 99.992188 -49.296875 101.59375 -52.597656 103.1875 -55.796875 C 105.988281 -61.390625 107.988281 -66.988281 109.1875 -72.59375 C 110.382812 -78.195312 111.1875 -84 111.59375 -90 C 113.59375 -105.59375 114.59375 -121.390625 114.59375 -137.390625 C 114.59375 -153.390625 114.59375 -169.1875 114.59375 -184.78125 C 114.59375 -189.976562 114.488281 -194.976562 114.28125 -199.78125 C 114.082031 -204.582031 113.785156 -209.382812 113.390625 -214.1875 C 113.390625 -215.78125 113.289062 -217.273438 113.09375 -218.671875 C 112.894531 -220.078125 112.796875 -221.378906 112.796875 -222.578125 C 113.585938 -234.179688 113.679688 -245.984375 113.078125 -257.984375 C 112.484375 -269.984375 111.988281 -281.78125 111.59375 -293.375 C 111.59375 -301.769531 110.789062 -310.066406 109.1875 -318.265625 C 107.59375 -326.472656 105.59375 -334.578125 103.1875 -342.578125 C 101.1875 -347.367188 99.1875 -351.765625 97.1875 -355.765625 C 89.988281 -367.765625 79.988281 -371.367188 67.1875 -366.578125 C 55.988281 -362.171875 47.789062 -355.367188 42.59375 -346.171875 C 41 -342.972656 39.398438 -339.773438 37.796875 -336.578125 C 36.191406 -333.378906 34.59375 -330.175781 33 -326.96875 C 30.59375 -321.375 27.59375 -316.976562 24 -313.78125 C 16.394531 -307.375 9.796875 -308.375 4.203125 -316.78125 C 1.796875 -320.78125 0.195312 -325.78125 -0.59375 -331.78125 C -1.394531 -340.175781 -1.195312 -348.171875 0 -355.765625 C 0.394531 -360.972656 1.09375 -366.078125 2.09375 -371.078125 C 3.09375 -376.078125 3.992188 -381.175781 4.796875 -386.375 C 5.597656 -392.375 7.597656 -397.769531 10.796875 -402.5625 C 15.992188 -410.96875 22.992188 -415.96875 31.796875 -417.5625 C 36.597656 -418.363281 41.195312 -418.765625 45.59375 -418.765625 C 56.789062 -419.171875 68.988281 -419.269531 82.1875 -419.0625 C 95.382812 -418.863281 105.984375 -418.96875 113.984375 -419.375 Z M 113.984375 -419.375 "/></g></g></g><g fill="#b6b8b6" fill-opacity="1"><g transform="translate(1906.950195, 646.938183)"><g><path d="M 61.1875 -416.375 C 73.1875 -417.164062 85.1875 -418.160156 97.1875 -419.359375 C 109.1875 -420.566406 120.585938 -420.769531 131.390625 -419.96875 C 151.785156 -420.769531 170.382812 -420.171875 187.1875 -418.171875 C 190.382812 -417.765625 193.679688 -417.5625 197.078125 -417.5625 C 200.484375 -417.5625 203.785156 -417.5625 206.984375 -417.5625 C 221.378906 -417.5625 232.976562 -411.5625 241.78125 -399.5625 C 247.78125 -391.5625 253.078125 -383.363281 257.671875 -374.96875 C 262.273438 -366.570312 265.773438 -357.375 268.171875 -347.375 C 270.578125 -337.375 273.175781 -327.375 275.96875 -317.375 C 278.769531 -307.375 281.570312 -297.578125 284.375 -287.984375 C 286.375 -280.378906 288.070312 -272.875 289.46875 -265.46875 C 290.875 -258.070312 291.976562 -250.578125 292.78125 -242.984375 C 293.175781 -239.378906 293.875 -235.875 294.875 -232.46875 C 295.875 -229.070312 296.972656 -225.578125 298.171875 -221.984375 C 299.378906 -219.179688 300.476562 -216.28125 301.46875 -213.28125 C 302.46875 -210.28125 303.367188 -207.179688 304.171875 -203.984375 C 306.171875 -195.585938 308.171875 -186.988281 310.171875 -178.1875 C 312.171875 -169.382812 314.171875 -160.582031 316.171875 -151.78125 C 318.578125 -143.382812 320.078125 -134.882812 320.671875 -126.28125 C 321.273438 -117.6875 321.773438 -108.988281 322.171875 -100.1875 C 322.171875 -94.1875 322.570312 -88.1875 323.375 -82.1875 C 324.175781 -76.1875 325.175781 -70.1875 326.375 -64.1875 C 327.976562 -57.789062 329.078125 -51.390625 329.671875 -44.984375 C 330.273438 -38.585938 329.976562 -31.992188 328.78125 -25.203125 C 326.375 -10.796875 318.375 -3.394531 304.78125 -3 C 295.175781 -2.601562 285.570312 -2.003906 275.96875 -1.203125 C 266.375 -0.398438 256.78125 0.597656 247.1875 1.796875 C 239.976562 2.597656 232.375 2 224.375 0 C 221.175781 -1.195312 218.378906 -2.597656 215.984375 -4.203125 C 211.585938 -7.796875 210.390625 -12.195312 212.390625 -17.40625 C 214.390625 -22.195312 216.585938 -25.992188 218.984375 -28.796875 C 226.578125 -37.992188 232.472656 -47.992188 236.671875 -58.796875 C 240.878906 -69.597656 244.582031 -80.597656 247.78125 -91.796875 C 250.976562 -102.191406 251.378906 -112.789062 248.984375 -123.59375 C 247.785156 -131.988281 246.582031 -140.285156 245.375 -148.484375 C 244.175781 -156.679688 243.175781 -164.78125 242.375 -172.78125 C 241.175781 -183.976562 238.375 -194.175781 233.96875 -203.375 C 229.570312 -212.582031 223.175781 -220.984375 214.78125 -228.578125 C 209.582031 -232.984375 203.984375 -236.484375 197.984375 -239.078125 C 191.984375 -241.679688 185.382812 -242.78125 178.1875 -242.375 C 173.789062 -241.976562 169.390625 -241.476562 164.984375 -240.875 C 160.585938 -240.28125 156.1875 -239.78125 151.78125 -239.375 C 145.78125 -238.175781 139.785156 -235.378906 133.796875 -230.984375 C 118.585938 -219.378906 105.585938 -205.78125 94.796875 -190.1875 C 88.796875 -181.789062 85.394531 -171.789062 84.59375 -160.1875 C 84.195312 -153.789062 83.796875 -147.289062 83.390625 -140.6875 C 82.992188 -134.09375 82.992188 -127.59375 83.390625 -121.1875 C 83.796875 -108.789062 86 -97.191406 90 -86.390625 C 94 -75.585938 100.394531 -65.585938 109.1875 -56.390625 C 112.382812 -52.796875 115.785156 -49.394531 119.390625 -46.1875 C 122.992188 -42.988281 126.59375 -39.59375 130.1875 -36 C 132.1875 -34 134.1875 -32.097656 136.1875 -30.296875 C 138.1875 -28.492188 139.988281 -26.59375 141.59375 -24.59375 C 145.59375 -19.394531 146.691406 -14.394531 144.890625 -9.59375 C 143.085938 -4.800781 138.988281 -1.800781 132.59375 -0.59375 C 123.789062 0.195312 115.1875 0.992188 106.78125 1.796875 C 98.382812 2.597656 89.988281 2.398438 81.59375 1.203125 C 74.789062 0.398438 67.59375 -0.195312 60 -0.59375 C 57.195312 -0.59375 54.492188 -0.789062 51.890625 -1.1875 C 49.296875 -1.59375 46.796875 -2.394531 44.390625 -3.59375 C 32.796875 -7.59375 25.195312 -15.191406 21.59375 -26.390625 C 19.195312 -33.992188 18.597656 -41.992188 19.796875 -50.390625 C 21.796875 -62.390625 23.394531 -74.289062 24.59375 -86.09375 C 25.789062 -97.894531 27.992188 -109.394531 31.203125 -120.59375 C 31.992188 -122.988281 32.585938 -125.285156 32.984375 -127.484375 C 33.390625 -129.691406 33.992188 -131.796875 34.796875 -133.796875 C 37.597656 -142.191406 39.894531 -150.6875 41.6875 -159.28125 C 43.488281 -167.882812 44.992188 -176.382812 46.203125 -184.78125 C 46.597656 -188.78125 47.195312 -192.378906 48 -195.578125 C 50.800781 -206.378906 53.597656 -217.179688 56.390625 -227.984375 C 59.191406 -238.785156 62.191406 -249.582031 65.390625 -260.375 C 66.992188 -266.375 68.394531 -272.273438 69.59375 -278.078125 C 70.789062 -283.878906 71.59375 -289.78125 72 -295.78125 C 73.195312 -306.570312 75.394531 -316.769531 78.59375 -326.375 C 81.394531 -334.375 82.195312 -343.171875 81 -352.765625 C 80.59375 -359.566406 78.191406 -365.769531 73.796875 -371.375 C 69.390625 -376.96875 64.085938 -379.566406 57.890625 -379.171875 C 51.691406 -378.773438 46.796875 -375.375 43.203125 -368.96875 C 42.398438 -367.375 41.695312 -365.773438 41.09375 -364.171875 C 40.5 -362.566406 39.800781 -360.96875 39 -359.375 C 38.59375 -358.175781 38.085938 -356.875 37.484375 -355.46875 C 36.890625 -354.070312 36.191406 -352.972656 35.390625 -352.171875 C 31.796875 -346.972656 27.398438 -345.972656 22.203125 -349.171875 C 13.398438 -354.367188 8.296875 -361.367188 6.890625 -370.171875 C 5.492188 -378.972656 7.394531 -386.570312 12.59375 -392.96875 C 17.394531 -399.363281 22.796875 -403.960938 28.796875 -406.765625 C 33.992188 -409.566406 39.289062 -411.765625 44.6875 -413.359375 C 50.09375 -414.960938 55.59375 -415.96875 61.1875 -416.375 Z M 194.984375 -298.78125 C 205.785156 -300.78125 210.984375 -307.378906 210.578125 -318.578125 C 210.578125 -323.773438 209.378906 -329.671875 206.984375 -336.265625 C 204.585938 -342.867188 201.785156 -348.171875 198.578125 -352.171875 C 197.378906 -353.773438 195.984375 -355.375 194.390625 -356.96875 C 184.390625 -366.164062 173.585938 -367.765625 161.984375 -361.765625 C 157.179688 -359.367188 152.976562 -356.367188 149.375 -352.765625 C 145.78125 -349.171875 142.1875 -345.375 138.59375 -341.375 C 132.59375 -335.375 127.988281 -328.472656 124.78125 -320.671875 C 121.582031 -312.867188 119.1875 -304.570312 117.59375 -295.78125 C 117.1875 -294.175781 117.1875 -292.375 117.59375 -290.375 C 117.988281 -283.570312 121.785156 -279.972656 128.984375 -279.578125 C 132.585938 -279.578125 135.988281 -280.378906 139.1875 -281.984375 C 143.582031 -283.984375 147.984375 -286.179688 152.390625 -288.578125 C 161.191406 -293.378906 170.191406 -295.976562 179.390625 -296.375 C 184.984375 -296.78125 190.179688 -297.582031 194.984375 -298.78125 Z M 194.984375 -298.78125 "/></g></g></g><g fill="#b6b8b6" fill-opacity="1"><g transform="translate(2273.523499, 646.938183)"><g><path d="M 73.1875 -421.765625 C 79.1875 -421.765625 85.085938 -421.765625 90.890625 -421.765625 C 96.691406 -421.765625 102.390625 -421.765625 107.984375 -421.765625 C 116.390625 -421.765625 124.691406 -421.460938 132.890625 -420.859375 C 141.085938 -420.265625 149.382812 -419.367188 157.78125 -418.171875 C 161.382812 -417.765625 164.984375 -417.5625 168.578125 -417.5625 C 172.179688 -417.5625 175.785156 -417.363281 179.390625 -416.96875 C 183.785156 -416.96875 188.179688 -416.96875 192.578125 -416.96875 C 196.984375 -416.96875 201.382812 -416.96875 205.78125 -416.96875 C 210.976562 -416.570312 215.378906 -415.769531 218.984375 -414.5625 C 228.578125 -411.769531 232.976562 -405.375 232.1875 -395.375 C 232.1875 -394.164062 231.984375 -392.863281 231.578125 -391.46875 C 231.179688 -390.070312 230.984375 -388.769531 230.984375 -387.5625 C 227.378906 -371.570312 229.78125 -356.972656 238.1875 -343.765625 C 241.78125 -338.566406 244.773438 -333.269531 247.171875 -327.875 C 249.578125 -322.476562 251.378906 -316.578125 252.578125 -310.171875 C 254.179688 -301.773438 253.582031 -294.378906 250.78125 -287.984375 C 245.582031 -275.578125 236.382812 -268.578125 223.1875 -266.984375 C 221.582031 -266.984375 219.878906 -266.984375 218.078125 -266.984375 C 216.285156 -266.984375 214.585938 -266.984375 212.984375 -266.984375 C 207.785156 -266.984375 202.582031 -266.878906 197.375 -266.671875 C 192.175781 -266.472656 186.976562 -265.972656 181.78125 -265.171875 C 176.988281 -264.378906 171.59375 -264.378906 165.59375 -265.171875 C 151.988281 -267.578125 143.1875 -275.378906 139.1875 -288.578125 C 137.988281 -291.378906 137.1875 -294.378906 136.78125 -297.578125 C 136.382812 -300.773438 136.390625 -303.972656 136.796875 -307.171875 C 137.585938 -313.171875 140.984375 -316.570312 146.984375 -317.375 C 149.390625 -317.769531 151.691406 -317.867188 153.890625 -317.671875 C 156.085938 -317.472656 158.382812 -317.570312 160.78125 -317.96875 C 173.582031 -318.769531 179.382812 -325.171875 178.1875 -337.171875 C 177.382812 -344.367188 175.179688 -350.867188 171.578125 -356.671875 C 167.984375 -362.472656 162.988281 -367.171875 156.59375 -370.765625 C 150.59375 -373.566406 144.789062 -374.566406 139.1875 -373.765625 C 133.59375 -372.972656 128.191406 -370.773438 122.984375 -367.171875 C 117.785156 -363.171875 112.882812 -358.769531 108.28125 -353.96875 C 103.6875 -349.164062 99.988281 -343.566406 97.1875 -337.171875 C 96.394531 -334.367188 95.5 -331.769531 94.5 -329.375 C 93.5 -326.976562 92.796875 -324.378906 92.390625 -321.578125 C 89.585938 -310.378906 87.1875 -299.078125 85.1875 -287.671875 C 83.1875 -276.273438 82.390625 -264.578125 82.796875 -252.578125 C 82.796875 -246.984375 82.691406 -241.382812 82.484375 -235.78125 C 82.285156 -230.175781 81.585938 -224.578125 80.390625 -218.984375 C 79.585938 -213.785156 79.488281 -205.984375 80.09375 -195.578125 C 80.695312 -185.179688 81.695312 -174.179688 83.09375 -162.578125 C 84.488281 -150.984375 86.1875 -140.988281 88.1875 -132.59375 C 89.789062 -125.394531 92.394531 -118.796875 96 -112.796875 C 98.789062 -107.992188 101.6875 -103.191406 104.6875 -98.390625 C 107.6875 -93.585938 110.785156 -88.789062 113.984375 -84 C 122.390625 -71.59375 132.988281 -63.191406 145.78125 -58.796875 C 161.382812 -53.992188 174.585938 -56.992188 185.390625 -67.796875 C 191.785156 -74.191406 196.78125 -81.085938 200.375 -88.484375 C 203.976562 -95.890625 205.582031 -104.191406 205.1875 -113.390625 C 205.1875 -116.992188 205.285156 -120.59375 205.484375 -124.1875 C 205.679688 -127.789062 205.78125 -131.390625 205.78125 -134.984375 C 205.78125 -140.179688 206.78125 -144.382812 208.78125 -147.59375 C 212.382812 -154.382812 217.582031 -156.179688 224.375 -152.984375 C 226.375 -152.179688 228.578125 -150.78125 230.984375 -148.78125 C 233.378906 -146.78125 235.375 -144.582031 236.96875 -142.1875 C 238.570312 -139.789062 239.976562 -137.191406 241.1875 -134.390625 C 243.976562 -128.390625 246.773438 -122.289062 249.578125 -116.09375 C 252.378906 -109.894531 254.976562 -103.796875 257.375 -97.796875 C 264.175781 -79.390625 266.378906 -59.988281 263.984375 -39.59375 C 262.773438 -29.195312 257.570312 -20.597656 248.375 -13.796875 C 240.375 -7.398438 231.773438 -2.800781 222.578125 0 C 213.378906 2.800781 203.582031 3.398438 193.1875 1.796875 C 183.582031 -0.203125 173.78125 -0.203125 163.78125 1.796875 C 149.78125 4.597656 135.582031 5 121.1875 3 C 113.59375 1.800781 106.09375 0.800781 98.6875 0 C 91.289062 -0.800781 83.789062 -1.800781 76.1875 -3 C 70.988281 -3.394531 66.289062 -4.691406 62.09375 -6.890625 C 57.894531 -9.097656 53.796875 -12 49.796875 -15.59375 C 34.191406 -29.195312 24.191406 -46.195312 19.796875 -66.59375 C 17.796875 -76.195312 16.09375 -85.894531 14.6875 -95.6875 C 13.289062 -105.488281 13.195312 -115.390625 14.40625 -125.390625 C 14.800781 -127.390625 15 -129.390625 15 -131.390625 C 15 -133.390625 15 -135.390625 15 -137.390625 C 15.800781 -152.191406 16.800781 -167.085938 18 -182.078125 C 19.195312 -197.078125 20.796875 -211.976562 22.796875 -226.78125 C 24.398438 -237.582031 26.398438 -247.582031 28.796875 -256.78125 C 30.398438 -261.976562 31.703125 -267.078125 32.703125 -272.078125 C 33.703125 -277.078125 34.203125 -282.175781 34.203125 -287.375 C 34.203125 -291.78125 34.597656 -296.082031 35.390625 -300.28125 C 36.191406 -304.476562 36.992188 -308.578125 37.796875 -312.578125 C 40.992188 -325.378906 42.59375 -338.078125 42.59375 -350.671875 C 42.59375 -363.273438 41.992188 -375.972656 40.796875 -388.765625 C 40.398438 -389.960938 40.097656 -391.257812 39.890625 -392.65625 C 39.691406 -394.0625 39.59375 -395.363281 39.59375 -396.5625 C 39.195312 -407.769531 44.195312 -415.375 54.59375 -419.375 C 57.789062 -420.164062 60.890625 -420.757812 63.890625 -421.15625 C 66.890625 -421.5625 69.988281 -421.765625 73.1875 -421.765625 Z M 73.1875 -421.765625 "/></g></g></g><g fill="#b6b8b6" fill-opacity="1"><g transform="translate(2577.701298, 646.938183)"><g><path d="M 113.984375 -419.375 C 113.984375 -419.375 117.179688 -419.375 123.578125 -419.375 C 129.984375 -419.375 135.1875 -419.570312 139.1875 -419.96875 C 149.1875 -420.363281 159.285156 -420.460938 169.484375 -420.265625 C 179.679688 -420.066406 189.78125 -419.367188 199.78125 -418.171875 C 204.1875 -417.765625 208.585938 -417.5625 212.984375 -417.5625 C 217.378906 -417.5625 221.976562 -417.5625 226.78125 -417.5625 C 229.175781 -417.5625 231.570312 -417.460938 233.96875 -417.265625 C 236.375 -417.066406 238.78125 -416.96875 241.1875 -416.96875 C 257.175781 -415.769531 269.375 -408.171875 277.78125 -394.171875 C 290.976562 -372.171875 294.773438 -348.570312 289.171875 -323.375 C 287.972656 -317.769531 286.175781 -313.171875 283.78125 -309.578125 C 281.375 -306.773438 278.472656 -305.171875 275.078125 -304.765625 C 271.679688 -304.367188 268.78125 -305.570312 266.375 -308.375 C 263.976562 -310.769531 261.78125 -313.570312 259.78125 -316.78125 C 258.582031 -319.570312 257.28125 -322.46875 255.875 -325.46875 C 254.476562 -328.46875 253.179688 -331.367188 251.984375 -334.171875 C 249.578125 -339.773438 246.472656 -345.078125 242.671875 -350.078125 C 238.878906 -355.078125 234.582031 -359.773438 229.78125 -364.171875 C 226.582031 -367.367188 223.179688 -369.367188 219.578125 -370.171875 C 211.578125 -372.566406 204.578125 -371.164062 198.578125 -365.96875 C 192.179688 -360.375 187.785156 -353.175781 185.390625 -344.375 C 181.785156 -332.375 179.785156 -320.570312 179.390625 -308.96875 C 178.984375 -301.769531 178.878906 -294.570312 179.078125 -287.375 C 179.285156 -280.175781 179.785156 -272.976562 180.578125 -265.78125 C 181.785156 -256.175781 181.785156 -246.773438 180.578125 -237.578125 C 179.785156 -232.773438 179.285156 -227.875 179.078125 -222.875 C 178.878906 -217.882812 178.78125 -212.988281 178.78125 -208.1875 C 178.78125 -199.78125 178.78125 -191.273438 178.78125 -182.671875 C 178.78125 -174.078125 178.984375 -165.582031 179.390625 -157.1875 C 180.179688 -146.382812 181.078125 -135.679688 182.078125 -125.078125 C 183.078125 -114.484375 185.179688 -103.988281 188.390625 -93.59375 C 190.390625 -85.988281 192.1875 -78.382812 193.78125 -70.78125 C 195.382812 -63.1875 197.382812 -55.59375 199.78125 -48 C 200.976562 -45.195312 202.078125 -42.296875 203.078125 -39.296875 C 204.078125 -36.296875 204.976562 -33.195312 205.78125 -30 C 206.1875 -28.394531 206.6875 -26.691406 207.28125 -24.890625 C 207.882812 -23.097656 208.1875 -21.398438 208.1875 -19.796875 C 208.988281 -12.597656 205.988281 -7.800781 199.1875 -5.40625 C 195.988281 -4.195312 192.785156 -3.59375 189.578125 -3.59375 C 183.578125 -3.59375 177.476562 -3.09375 171.28125 -2.09375 C 165.082031 -1.09375 158.785156 -0.195312 152.390625 0.59375 C 146.390625 1.800781 140.1875 2.503906 133.78125 2.703125 C 127.382812 2.898438 121.1875 2.800781 115.1875 2.40625 C 109.1875 2.40625 103.988281 1.203125 99.59375 -1.203125 C 90.394531 -5.203125 86.796875 -12 88.796875 -21.59375 C 89.191406 -24 89.789062 -26.398438 90.59375 -28.796875 C 91.394531 -31.191406 92.394531 -33.390625 93.59375 -35.390625 C 95.195312 -38.992188 96.796875 -42.492188 98.390625 -45.890625 C 99.992188 -49.296875 101.59375 -52.597656 103.1875 -55.796875 C 105.988281 -61.390625 107.988281 -66.988281 109.1875 -72.59375 C 110.382812 -78.195312 111.1875 -84 111.59375 -90 C 113.59375 -105.59375 114.59375 -121.390625 114.59375 -137.390625 C 114.59375 -153.390625 114.59375 -169.1875 114.59375 -184.78125 C 114.59375 -189.976562 114.488281 -194.976562 114.28125 -199.78125 C 114.082031 -204.582031 113.785156 -209.382812 113.390625 -214.1875 C 113.390625 -215.78125 113.289062 -217.273438 113.09375 -218.671875 C 112.894531 -220.078125 112.796875 -221.378906 112.796875 -222.578125 C 113.585938 -234.179688 113.679688 -245.984375 113.078125 -257.984375 C 112.484375 -269.984375 111.988281 -281.78125 111.59375 -293.375 C 111.59375 -301.769531 110.789062 -310.066406 109.1875 -318.265625 C 107.59375 -326.472656 105.59375 -334.578125 103.1875 -342.578125 C 101.1875 -347.367188 99.1875 -351.765625 97.1875 -355.765625 C 89.988281 -367.765625 79.988281 -371.367188 67.1875 -366.578125 C 55.988281 -362.171875 47.789062 -355.367188 42.59375 -346.171875 C 41 -342.972656 39.398438 -339.773438 37.796875 -336.578125 C 36.191406 -333.378906 34.59375 -330.175781 33 -326.96875 C 30.59375 -321.375 27.59375 -316.976562 24 -313.78125 C 16.394531 -307.375 9.796875 -308.375 4.203125 -316.78125 C 1.796875 -320.78125 0.195312 -325.78125 -0.59375 -331.78125 C -1.394531 -340.175781 -1.195312 -348.171875 0 -355.765625 C 0.394531 -360.972656 1.09375 -366.078125 2.09375 -371.078125 C 3.09375 -376.078125 3.992188 -381.175781 4.796875 -386.375 C 5.597656 -392.375 7.597656 -397.769531 10.796875 -402.5625 C 15.992188 -410.96875 22.992188 -415.96875 31.796875 -417.5625 C 36.597656 -418.363281 41.195312 -418.765625 45.59375 -418.765625 C 56.789062 -419.171875 68.988281 -419.269531 82.1875 -419.0625 C 95.382812 -418.863281 105.984375 -418.96875 113.984375 -419.375 Z M 113.984375 -419.375 "/></g></g></g></svg>