<svg xmlns="http://www.w3.org/2000/svg" xmlns:xlink="http://www.w3.org/1999/xlink" viewBox="0,0,256,256" width="150px" height="150px" fill-rule="nonzero"><g fill="#b6b8b6" fill-rule="nonzero" stroke="none" stroke-width="1" stroke-linecap="butt" stroke-linejoin="miter" stroke-miterlimit="10" stroke-dasharray="" stroke-dashoffset="0" font-family="none" font-weight="none" font-size="none" text-anchor="none" style="mix-blend-mode: normal"><g transform="scale(5.12,5.12)"><path d="M41,4h-32c-2.757,0 -5,2.243 -5,5v32c0,2.757 2.243,5 5,5h32c2.757,0 5,-2.243 5,-5v-32c0,-2.757 -2.243,-5 -5,-5zM28,37h-11l-3,-22l8,-1.001l2,16.001c1.833,-2.918 4,-7.873 4,-11c0,-1.711 -0.531,-3.04 -1,-4l8,-2c0.853,1.377 1,3.795 1,5.586c0,5.714 -3.95,13.202 -8,18.414z"></path></g></g></svg>