<svg xmlns="http://www.w3.org/2000/svg" xmlns:xlink="http://www.w3.org/1999/xlink" width="4669" zoomAndPan="magnify" viewBox="0 0 3501.75 962.999993" height="1284" preserveAspectRatio="xMidYMid meet" version="1.0"><defs><g/></defs><g fill="#b6b8b6" fill-opacity="1"><g transform="translate(329.969401, 646.938183)"><g><path d="M 209.390625 0 C 201.390625 -0.394531 193.390625 -0.691406 185.390625 -0.890625 C 177.390625 -1.097656 170.1875 -1 163.78125 -0.59375 C 154.582031 -0.59375 145.882812 -0.691406 137.6875 -0.890625 C 129.488281 -1.097656 121.585938 -0.800781 113.984375 0 C 103.191406 0.800781 92.59375 1.300781 82.1875 1.5 C 71.789062 1.695312 61.394531 1.796875 51 1.796875 C 48.59375 1.796875 46.289062 1.796875 44.09375 1.796875 C 41.894531 1.796875 39.597656 1.796875 37.203125 1.796875 C 32.796875 0.992188 28.992188 -0.00390625 25.796875 -1.203125 C 17.796875 -4.398438 13.796875 -10.195312 13.796875 -18.59375 C 13.796875 -24.195312 14.796875 -28.597656 16.796875 -31.796875 C 22.398438 -42.191406 25.898438 -52.988281 27.296875 -64.1875 C 28.691406 -75.394531 29.59375 -86.796875 30 -98.390625 C 30.394531 -109.191406 30.691406 -119.988281 30.890625 -130.78125 C 31.097656 -141.582031 30.800781 -152.1875 30 -162.59375 C 30 -166.1875 30.097656 -169.679688 30.296875 -173.078125 C 30.492188 -176.484375 30.59375 -179.785156 30.59375 -182.984375 C 32.195312 -196.984375 33.097656 -210.878906 33.296875 -224.671875 C 33.492188 -238.472656 32.796875 -252.375 31.203125 -266.375 C 30.796875 -268.375 30.59375 -269.972656 30.59375 -271.171875 C 31 -284.773438 30.398438 -298.273438 28.796875 -311.671875 C 27.191406 -325.078125 25.789062 -338.378906 24.59375 -351.578125 C 23.789062 -357.972656 22.789062 -364.367188 21.59375 -370.765625 C 20.394531 -377.171875 18.796875 -383.570312 16.796875 -389.96875 C 15.597656 -393.96875 15 -397.367188 15 -400.171875 C 13.800781 -411.367188 18.597656 -417.566406 29.390625 -418.765625 C 34.191406 -419.566406 39.191406 -419.566406 44.390625 -418.765625 C 48.390625 -418.367188 52.390625 -418.171875 56.390625 -418.171875 C 60.390625 -418.171875 64.390625 -418.367188 68.390625 -418.765625 C 77.191406 -419.566406 85.890625 -419.96875 94.484375 -419.96875 C 103.085938 -419.96875 111.789062 -419.769531 120.59375 -419.375 C 126.59375 -419.375 132.191406 -418.171875 137.390625 -415.765625 C 143.390625 -412.960938 147.390625 -408.960938 149.390625 -403.765625 C 152.984375 -394.566406 150.382812 -388.367188 141.59375 -385.171875 C 137.988281 -383.566406 134.390625 -382.765625 130.796875 -382.765625 C 120.796875 -381.960938 112.796875 -378.0625 106.796875 -371.0625 C 100.796875 -364.070312 96.992188 -356.375 95.390625 -347.96875 C 94.191406 -340.769531 93.09375 -333.46875 92.09375 -326.0625 C 91.09375 -318.664062 90.59375 -311.367188 90.59375 -304.171875 C 90.195312 -289.378906 89.894531 -274.582031 89.6875 -259.78125 C 89.488281 -244.976562 89.390625 -230.179688 89.390625 -215.390625 C 89.390625 -210.585938 89.585938 -205.882812 89.984375 -201.28125 C 90.390625 -196.6875 90.789062 -191.988281 91.1875 -187.1875 C 92.789062 -177.988281 94.289062 -168.785156 95.6875 -159.578125 C 97.09375 -150.378906 98.59375 -140.984375 100.1875 -131.390625 C 100.988281 -127.785156 101.585938 -124.082031 101.984375 -120.28125 C 102.390625 -116.488281 102.789062 -112.789062 103.1875 -109.1875 C 103.59375 -105.59375 103.992188 -102.191406 104.390625 -98.984375 C 104.785156 -95.785156 105.382812 -92.585938 106.1875 -89.390625 C 111.382812 -69.796875 122.984375 -55.597656 140.984375 -46.796875 C 158.179688 -38.796875 173.378906 -41.992188 186.578125 -56.390625 C 195.378906 -65.992188 199.984375 -76.796875 200.390625 -88.796875 C 200.390625 -91.597656 200.390625 -94.296875 200.390625 -96.890625 C 200.390625 -99.492188 199.988281 -102.191406 199.1875 -104.984375 C 198.382812 -110.191406 197.382812 -115.394531 196.1875 -120.59375 C 194.988281 -125.789062 193.785156 -130.988281 192.578125 -136.1875 C 191.785156 -139.382812 190.1875 -143.1875 187.78125 -147.59375 C 182.976562 -157.988281 174.976562 -163.382812 163.78125 -163.78125 C 161.78125 -163.78125 159.78125 -163.878906 157.78125 -164.078125 C 155.78125 -164.285156 153.78125 -164.390625 151.78125 -164.390625 C 144.988281 -164.785156 140.191406 -168.382812 137.390625 -175.1875 C 134.191406 -184.78125 133.789062 -194.578125 136.1875 -204.578125 C 137.382812 -210.179688 140.28125 -214.679688 144.875 -218.078125 C 149.476562 -221.484375 154.78125 -223.1875 160.78125 -223.1875 C 165.582031 -223.1875 170.785156 -222.1875 176.390625 -220.1875 C 191.585938 -214.1875 203.1875 -204.585938 211.1875 -191.390625 C 218.382812 -179.785156 225.082031 -167.882812 231.28125 -155.6875 C 237.476562 -143.488281 243.378906 -131.191406 248.984375 -118.796875 C 250.179688 -116.390625 251.078125 -113.882812 251.671875 -111.28125 C 252.273438 -108.6875 252.976562 -106.191406 253.78125 -103.796875 C 254.582031 -98.992188 255.484375 -94.09375 256.484375 -89.09375 C 257.484375 -84.09375 258.582031 -79.191406 259.78125 -74.390625 C 262.976562 -61.597656 262.378906 -48.398438 257.984375 -34.796875 C 254.378906 -23.992188 248.175781 -15.394531 239.375 -9 C 230.582031 -2.601562 220.585938 0.394531 209.390625 0 Z M 209.390625 0 "/></g></g></g><g fill="#b6b8b6" fill-opacity="1"><g transform="translate(622.748044, 646.938183)"><g><path d="M 93 -0.59375 C 90.195312 -0.59375 84.992188 -0.789062 77.390625 -1.1875 C 69.796875 -1.59375 62.296875 -1.894531 54.890625 -2.09375 C 47.492188 -2.300781 42.394531 -2.601562 39.59375 -3 C 37.59375 -3 35.691406 -3.097656 33.890625 -3.296875 C 32.097656 -3.492188 30.398438 -3.796875 28.796875 -4.203125 C 19.203125 -6.203125 15.40625 -12.203125 17.40625 -22.203125 C 17.800781 -24.597656 18.398438 -26.597656 19.203125 -28.203125 C 23.597656 -36.203125 26.394531 -44.5 27.59375 -53.09375 C 28.789062 -61.695312 29.789062 -70.394531 30.59375 -79.1875 C 31 -82.394531 31.203125 -85.597656 31.203125 -88.796875 C 30.796875 -101.191406 31.191406 -113.585938 32.390625 -125.984375 C 33.597656 -138.390625 34.597656 -150.988281 35.390625 -163.78125 C 35.796875 -172.582031 36 -181.582031 36 -190.78125 C 36 -199.976562 35.597656 -209.179688 34.796875 -218.390625 C 33.191406 -233.984375 31.988281 -249.578125 31.1875 -265.171875 C 30.394531 -280.773438 30.796875 -296.375 32.390625 -311.96875 C 33.597656 -320.769531 33.203125 -329.269531 31.203125 -337.46875 C 29.203125 -345.664062 26.800781 -353.96875 24 -362.375 C 22.800781 -365.96875 21.398438 -369.460938 19.796875 -372.859375 C 18.203125 -376.265625 16.800781 -379.769531 15.59375 -383.375 C 14.394531 -385.375 13.394531 -387.570312 12.59375 -389.96875 C 11.800781 -392.363281 11.40625 -394.765625 11.40625 -397.171875 C 11 -407.171875 15.597656 -413.570312 25.203125 -416.375 C 28.796875 -417.164062 32.59375 -417.5625 36.59375 -417.5625 C 43.789062 -417.164062 50.988281 -417.164062 58.1875 -417.5625 C 65.394531 -417.96875 72.597656 -418.570312 79.796875 -419.375 C 82.992188 -419.769531 86.09375 -419.96875 89.09375 -419.96875 C 92.09375 -419.96875 95.191406 -419.769531 98.390625 -419.375 C 102.390625 -419.375 105.789062 -418.570312 108.59375 -416.96875 C 116.1875 -412.570312 119.382812 -406.769531 118.1875 -399.5625 C 117.789062 -396.769531 117.289062 -393.875 116.6875 -390.875 C 116.09375 -387.875 115.394531 -384.972656 114.59375 -382.171875 C 112.59375 -376.171875 110.789062 -370.171875 109.1875 -364.171875 C 107.59375 -358.171875 106.394531 -352.171875 105.59375 -346.171875 C 103.59375 -330.578125 101.492188 -314.976562 99.296875 -299.375 C 97.097656 -283.78125 96.796875 -268.179688 98.390625 -252.578125 C 99.191406 -244.179688 98.59375 -235.179688 96.59375 -225.578125 C 95.394531 -217.179688 95.59375 -208.382812 97.1875 -199.1875 C 99.59375 -187.1875 99.992188 -174.785156 98.390625 -161.984375 C 97.191406 -148.785156 96.789062 -135.6875 97.1875 -122.6875 C 97.59375 -109.6875 98.195312 -96.789062 99 -84 C 99.394531 -74.789062 100.59375 -65.6875 102.59375 -56.6875 C 104.59375 -47.695312 107.789062 -39.203125 112.1875 -31.203125 C 113.382812 -28.796875 114.382812 -25.796875 115.1875 -22.203125 C 117.1875 -13.796875 114.1875 -7.59375 106.1875 -3.59375 C 104.1875 -2.394531 102.085938 -1.59375 99.890625 -1.1875 C 97.691406 -0.789062 95.394531 -0.59375 93 -0.59375 Z M 93 -0.59375 "/></g></g></g><g fill="#b6b8b6" fill-opacity="1"><g transform="translate(783.536393, 646.938183)"><g><path d="M 206.984375 -241.78125 C 211.378906 -254.175781 214.675781 -266.570312 216.875 -278.96875 C 219.082031 -291.375 219.785156 -303.976562 218.984375 -316.78125 C 218.984375 -320.78125 218.984375 -324.675781 218.984375 -328.46875 C 218.984375 -332.269531 218.984375 -335.972656 218.984375 -339.578125 C 219.378906 -351.171875 216.179688 -362.367188 209.390625 -373.171875 C 208.179688 -375.171875 206.878906 -377.367188 205.484375 -379.765625 C 204.085938 -382.171875 202.785156 -384.570312 201.578125 -386.96875 C 200.378906 -388.164062 199.378906 -389.664062 198.578125 -391.46875 C 197.785156 -393.269531 197.1875 -394.96875 196.78125 -396.5625 C 194.382812 -402.96875 196.1875 -408.367188 202.1875 -412.765625 C 206.1875 -415.171875 210.382812 -416.570312 214.78125 -416.96875 C 222.78125 -417.363281 230.679688 -417.5625 238.484375 -417.5625 C 246.285156 -417.5625 254.179688 -416.960938 262.171875 -415.765625 C 268.972656 -415.367188 275.375 -413.570312 281.375 -410.375 C 291.375 -404.375 296.375 -395.972656 296.375 -385.171875 C 296.375 -378.367188 295.773438 -371.769531 294.578125 -365.375 C 292.972656 -358.570312 291.472656 -351.769531 290.078125 -344.96875 C 288.679688 -338.175781 287.179688 -331.378906 285.578125 -324.578125 C 285.179688 -323.378906 284.878906 -322.28125 284.671875 -321.28125 C 284.472656 -320.28125 284.175781 -319.175781 283.78125 -317.96875 C 278.976562 -302.769531 274.175781 -287.671875 269.375 -272.671875 C 264.570312 -257.679688 259.570312 -242.582031 254.375 -227.375 C 251.582031 -217.78125 247.785156 -208.785156 242.984375 -200.390625 C 236.179688 -187.585938 230.878906 -174.484375 227.078125 -161.078125 C 223.273438 -147.679688 220.578125 -133.785156 218.984375 -119.390625 C 217.785156 -106.992188 215.382812 -94.394531 211.78125 -81.59375 C 211.78125 -81.195312 211.679688 -80.796875 211.484375 -80.390625 C 211.285156 -79.992188 211.1875 -79.394531 211.1875 -78.59375 C 206.78125 -65.394531 207.976562 -52.597656 214.78125 -40.203125 C 217.1875 -35.796875 218.785156 -31.992188 219.578125 -28.796875 C 224.773438 -14.796875 219.976562 -6 205.1875 -2.40625 C 198.382812 -1.195312 191.484375 -0.09375 184.484375 0.90625 C 177.484375 1.90625 170.1875 1.800781 162.59375 0.59375 C 159.382812 0.195312 155.976562 -0.0976562 152.375 -0.296875 C 148.78125 -0.492188 145.1875 -0.59375 141.59375 -0.59375 C 123.1875 -1 109.984375 -9.597656 101.984375 -26.390625 C 99.992188 -31.191406 98.195312 -35.992188 96.59375 -40.796875 C 94.988281 -45.597656 93.585938 -50.597656 92.390625 -55.796875 C 91.585938 -59.390625 90.6875 -63.1875 89.6875 -67.1875 C 88.6875 -71.1875 87.585938 -74.988281 86.390625 -78.59375 C 82.390625 -89.789062 78.988281 -101.085938 76.1875 -112.484375 C 73.394531 -123.890625 70.796875 -135.191406 68.390625 -146.390625 C 67.585938 -151.585938 66.585938 -156.785156 65.390625 -161.984375 C 64.191406 -167.179688 62.789062 -172.382812 61.1875 -177.59375 C 57.988281 -191.1875 54.585938 -204.679688 50.984375 -218.078125 C 47.390625 -231.484375 43.992188 -244.984375 40.796875 -258.578125 C 39.597656 -263.378906 38.597656 -268.175781 37.796875 -272.96875 C 36.992188 -277.769531 36.394531 -282.570312 36 -287.375 C 35.195312 -298.570312 32.992188 -309.171875 29.390625 -319.171875 C 26.597656 -326.773438 24.203125 -334.375 22.203125 -341.96875 C 19.796875 -351.570312 15.992188 -361.171875 10.796875 -370.765625 C 8.796875 -373.566406 7.09375 -376.46875 5.6875 -379.46875 C 4.289062 -382.46875 2.992188 -385.566406 1.796875 -388.765625 C 0.992188 -390.765625 0.195312 -392.765625 -0.59375 -394.765625 C -3.394531 -406.367188 0.800781 -414.171875 12 -418.171875 C 16 -419.367188 20 -420.164062 24 -420.5625 C 28 -420.96875 32 -420.96875 36 -420.5625 C 38 -420.5625 40 -420.460938 42 -420.265625 C 44 -420.066406 46 -419.96875 48 -419.96875 C 55.59375 -418.363281 62.988281 -417.460938 70.1875 -417.265625 C 77.394531 -417.066406 84.796875 -416.96875 92.390625 -416.96875 C 97.585938 -416.570312 101.988281 -415.972656 105.59375 -415.171875 C 120.394531 -411.972656 124.992188 -403.375 119.390625 -389.375 C 118.585938 -386.570312 117.585938 -383.96875 116.390625 -381.5625 C 115.191406 -379.164062 113.992188 -376.769531 112.796875 -374.375 C 105.992188 -361.96875 103.789062 -348.164062 106.1875 -332.96875 C 107.789062 -323.375 108.890625 -313.773438 109.484375 -304.171875 C 110.085938 -294.578125 110.390625 -284.976562 110.390625 -275.375 C 110.390625 -268.175781 110.789062 -261.078125 111.59375 -254.078125 C 112.394531 -247.078125 113.796875 -239.976562 115.796875 -232.78125 C 116.191406 -231.175781 116.585938 -229.472656 116.984375 -227.671875 C 117.390625 -225.878906 117.789062 -224.179688 118.1875 -222.578125 C 118.59375 -215.378906 119.59375 -208.476562 121.1875 -201.875 C 122.789062 -195.28125 124.59375 -188.582031 126.59375 -181.78125 C 128.1875 -176.988281 129.382812 -172.191406 130.1875 -167.390625 C 130.988281 -162.585938 131.585938 -157.785156 131.984375 -152.984375 C 132.785156 -143.785156 134.785156 -134.984375 137.984375 -126.578125 C 141.179688 -118.179688 144.582031 -109.984375 148.1875 -101.984375 C 149.382812 -99.585938 150.882812 -97.390625 152.6875 -95.390625 C 154.488281 -93.390625 156.988281 -92.59375 160.1875 -93 C 163.382812 -93 165.78125 -94 167.375 -96 C 168.976562 -98 170.382812 -100.394531 171.59375 -103.1875 C 172.382812 -105.59375 172.984375 -108.59375 173.390625 -112.1875 C 175.390625 -122.1875 177.785156 -132.1875 180.578125 -142.1875 C 183.378906 -152.1875 186.582031 -161.988281 190.1875 -171.59375 C 192.1875 -176.789062 193.785156 -182.085938 194.984375 -187.484375 C 196.179688 -192.878906 197.179688 -198.378906 197.984375 -203.984375 C 198.785156 -210.378906 199.882812 -216.773438 201.28125 -223.171875 C 202.6875 -229.578125 204.585938 -235.78125 206.984375 -241.78125 Z M 206.984375 -241.78125 "/></g></g></g><g fill="#b6b8b6" fill-opacity="1"><g transform="translate(1112.312375, 646.938183)"><g><path d="M 37.203125 -417.5625 C 39.992188 -417.5625 45.289062 -417.5625 53.09375 -417.5625 C 60.894531 -417.5625 68.894531 -417.660156 77.09375 -417.859375 C 85.289062 -418.066406 91.390625 -418.367188 95.390625 -418.765625 C 98.191406 -418.765625 100.988281 -418.863281 103.78125 -419.0625 C 106.582031 -419.269531 109.585938 -419.375 112.796875 -419.375 C 123.992188 -419.375 135.191406 -419.472656 146.390625 -419.671875 C 157.585938 -419.867188 168.785156 -419.96875 179.984375 -419.96875 C 184.378906 -419.96875 188.773438 -419.867188 193.171875 -419.671875 C 197.578125 -419.472656 201.984375 -418.769531 206.390625 -417.5625 C 223.179688 -412.769531 232.976562 -402.171875 235.78125 -385.765625 C 236.582031 -380.972656 237.484375 -376.175781 238.484375 -371.375 C 239.484375 -366.570312 240.582031 -361.769531 241.78125 -356.96875 C 242.582031 -354.164062 242.984375 -351.460938 242.984375 -348.859375 C 242.984375 -346.265625 242.582031 -343.769531 241.78125 -341.375 C 240.582031 -338.570312 238.78125 -336.570312 236.375 -335.375 C 233.976562 -334.175781 231.378906 -334.375 228.578125 -335.96875 C 226.984375 -337.175781 225.382812 -338.378906 223.78125 -339.578125 C 222.175781 -340.773438 220.578125 -342.171875 218.984375 -343.765625 C 215.378906 -346.972656 211.773438 -350.273438 208.171875 -353.671875 C 204.578125 -357.066406 200.984375 -360.367188 197.390625 -363.578125 C 183.390625 -375.171875 167.390625 -378.769531 149.390625 -374.375 C 140.191406 -371.96875 131.59375 -368.460938 123.59375 -363.859375 C 115.59375 -359.265625 108.390625 -353.367188 101.984375 -346.171875 C 97.585938 -340.578125 94.085938 -334.78125 91.484375 -328.78125 C 88.890625 -322.78125 87.59375 -316.378906 87.59375 -309.578125 C 87.59375 -305.972656 87.691406 -302.472656 87.890625 -299.078125 C 88.085938 -295.679688 88.1875 -292.378906 88.1875 -289.171875 C 88.59375 -283.578125 89.992188 -278.378906 92.390625 -273.578125 C 97.992188 -263.984375 105.992188 -260.984375 116.390625 -264.578125 C 118.785156 -265.773438 120.984375 -267.070312 122.984375 -268.46875 C 124.984375 -269.875 126.785156 -271.378906 128.390625 -272.984375 C 133.585938 -276.984375 138.785156 -280.679688 143.984375 -284.078125 C 149.179688 -287.472656 154.78125 -290.375 160.78125 -292.78125 C 163.1875 -293.582031 165.785156 -294.378906 168.578125 -295.171875 C 171.378906 -295.972656 174.382812 -296.375 177.59375 -296.375 C 185.1875 -296.375 191.179688 -293.773438 195.578125 -288.578125 C 201.179688 -282.179688 205.984375 -275.28125 209.984375 -267.875 C 213.984375 -260.476562 216.984375 -252.582031 218.984375 -244.1875 C 220.179688 -240.1875 220.582031 -235.1875 220.1875 -229.1875 C 219.382812 -218.382812 213.382812 -214.179688 202.1875 -216.578125 C 200.1875 -216.984375 198.082031 -217.582031 195.875 -218.375 C 193.675781 -219.175781 191.578125 -220.175781 189.578125 -221.375 C 184.785156 -223.375 179.890625 -224.773438 174.890625 -225.578125 C 169.890625 -226.378906 164.789062 -226.78125 159.59375 -226.78125 C 153.1875 -226.78125 147.179688 -225.78125 141.578125 -223.78125 C 135.984375 -221.78125 130.585938 -219.179688 125.390625 -215.984375 C 115.785156 -209.585938 109.382812 -201.1875 106.1875 -190.78125 C 104.988281 -186.78125 103.890625 -182.878906 102.890625 -179.078125 C 101.890625 -175.285156 101.191406 -171.390625 100.796875 -167.390625 C 99.597656 -157.785156 98.894531 -148.285156 98.6875 -138.890625 C 98.488281 -129.492188 98.789062 -120.191406 99.59375 -110.984375 C 100.789062 -96.585938 105.390625 -85.085938 113.390625 -76.484375 C 121.390625 -67.890625 131.585938 -60.796875 143.984375 -55.203125 C 151.585938 -51.597656 160.585938 -51.691406 170.984375 -55.484375 C 181.378906 -59.285156 188.378906 -64.585938 191.984375 -71.390625 C 195.179688 -76.992188 196.679688 -82.492188 196.484375 -87.890625 C 196.285156 -93.296875 194.984375 -98.796875 192.578125 -104.390625 C 191.378906 -106.785156 189.976562 -109.179688 188.375 -111.578125 C 186.78125 -113.984375 184.984375 -116.390625 182.984375 -118.796875 C 181.785156 -119.992188 180.585938 -121.289062 179.390625 -122.6875 C 178.191406 -124.09375 177.191406 -125.59375 176.390625 -127.1875 C 172.390625 -134.789062 174.390625 -140.191406 182.390625 -143.390625 C 183.984375 -144.191406 185.378906 -144.59375 186.578125 -144.59375 C 192.984375 -145.382812 199.582031 -146.179688 206.375 -146.984375 C 213.175781 -147.785156 219.78125 -147.988281 226.1875 -147.59375 C 227.382812 -147.1875 228.78125 -146.984375 230.375 -146.984375 C 238.78125 -145.390625 244.679688 -142.789062 248.078125 -139.1875 C 251.484375 -135.59375 253.785156 -129.796875 254.984375 -121.796875 C 256.179688 -114.585938 256.976562 -107.582031 257.375 -100.78125 C 257.78125 -93.988281 257.382812 -86.992188 256.1875 -79.796875 C 255.78125 -75.390625 255.875 -70.785156 256.46875 -65.984375 C 257.070312 -61.191406 257.773438 -56.597656 258.578125 -52.203125 C 258.984375 -48.992188 259.285156 -45.789062 259.484375 -42.59375 C 259.679688 -39.394531 259.976562 -36.394531 260.375 -33.59375 C 260.375 -26.394531 258.773438 -20.492188 255.578125 -15.890625 C 252.378906 -11.296875 247.78125 -7.597656 241.78125 -4.796875 C 238.976562 -3.203125 236.078125 -2.101562 233.078125 -1.5 C 230.078125 -0.894531 226.976562 -0.59375 223.78125 -0.59375 C 217.78125 -0.195312 211.878906 0.296875 206.078125 0.890625 C 200.285156 1.492188 194.585938 1.597656 188.984375 1.203125 C 179.785156 0.796875 170.585938 0.492188 161.390625 0.296875 C 152.191406 0.0976562 142.992188 0.398438 133.796875 1.203125 C 131.390625 1.597656 128.984375 1.492188 126.578125 0.890625 C 124.179688 0.296875 121.785156 -0.195312 119.390625 -0.59375 C 112.191406 -1.800781 105.191406 -2.503906 98.390625 -2.703125 C 91.585938 -2.898438 84.585938 -3 77.390625 -3 C 70.992188 -3 64.394531 -2.898438 57.59375 -2.703125 C 50.789062 -2.503906 43.992188 -2.40625 37.203125 -2.40625 C 35.203125 -2.40625 33.203125 -2.503906 31.203125 -2.703125 C 29.203125 -2.898438 27.203125 -3.195312 25.203125 -3.59375 C 16.398438 -5.59375 12.597656 -11.394531 13.796875 -21 C 14.203125 -23 14.800781 -25 15.59375 -27 C 16.394531 -28.59375 17.09375 -30.085938 17.6875 -31.484375 C 18.289062 -32.890625 18.992188 -34.394531 19.796875 -36 C 25.796875 -46.394531 30.09375 -57.191406 32.6875 -68.390625 C 35.289062 -79.585938 36.796875 -90.988281 37.203125 -102.59375 C 37.597656 -115.394531 37.796875 -127.992188 37.796875 -140.390625 C 37.796875 -152.785156 37.597656 -165.382812 37.203125 -178.1875 C 37.203125 -180.1875 37 -181.382812 36.59375 -181.78125 C 34.195312 -197.78125 32.894531 -213.679688 32.6875 -229.484375 C 32.488281 -245.285156 32.191406 -261.179688 31.796875 -277.171875 C 31.398438 -288.773438 30.898438 -300.375 30.296875 -311.96875 C 29.691406 -323.570312 29.59375 -335.171875 30 -346.765625 C 30 -353.171875 29.097656 -359.171875 27.296875 -364.765625 C 25.492188 -370.367188 22.992188 -375.96875 19.796875 -381.5625 C 18.597656 -383.5625 17.296875 -385.5625 15.890625 -387.5625 C 14.492188 -389.5625 13.394531 -391.765625 12.59375 -394.171875 C 10.195312 -399.765625 10.195312 -404.660156 12.59375 -408.859375 C 15 -413.066406 19.203125 -415.769531 25.203125 -416.96875 C 27.203125 -417.363281 29.203125 -417.460938 31.203125 -417.265625 C 33.203125 -417.066406 35.203125 -417.164062 37.203125 -417.5625 Z M 37.203125 -417.5625 "/></g></g></g><g fill="#b6b8b6" fill-opacity="1"><g transform="translate(1412.290579, 646.938183)"><g/></g></g><g fill="#b6b8b6" fill-opacity="1"><g transform="translate(1610.876063, 646.938183)"><g><path d="M 284.375 -152.984375 C 284.78125 -150.984375 285.082031 -148.78125 285.28125 -146.375 C 285.476562 -143.976562 285.578125 -141.382812 285.578125 -138.59375 C 285.578125 -136.1875 285.476562 -133.582031 285.28125 -130.78125 C 285.082031 -127.988281 284.582031 -125.191406 283.78125 -122.390625 C 282.976562 -116.785156 282.175781 -111.082031 281.375 -105.28125 C 280.570312 -99.488281 279.972656 -93.59375 279.578125 -87.59375 C 279.179688 -79.59375 276.78125 -71.992188 272.375 -64.796875 C 269.570312 -59.597656 266.570312 -54.394531 263.375 -49.1875 C 260.175781 -43.988281 257.175781 -38.789062 254.375 -33.59375 C 247.582031 -21.59375 237.1875 -13.59375 223.1875 -9.59375 C 205.1875 -4 187.585938 -0.398438 170.390625 1.203125 C 164.785156 2.003906 158.984375 2.003906 152.984375 1.203125 C 144.585938 0.00390625 136.289062 -0.492188 128.09375 -0.296875 C 119.894531 -0.0976562 111.59375 0.195312 103.1875 0.59375 C 79.59375 2.59375 56.394531 2.195312 33.59375 -0.59375 C 32.394531 -0.59375 31.09375 -0.691406 29.6875 -0.890625 C 28.289062 -1.097656 26.992188 -1.398438 25.796875 -1.796875 C 13.796875 -5.398438 9 -13.203125 11.40625 -25.203125 C 12.195312 -29.597656 13.394531 -33.394531 15 -36.59375 C 21 -47.789062 25 -56.585938 27 -62.984375 C 29 -69.390625 30.296875 -75.492188 30.890625 -81.296875 C 31.492188 -87.097656 32.394531 -94.597656 33.59375 -103.796875 C 34.789062 -113.390625 35.789062 -122.882812 36.59375 -132.28125 C 37.394531 -141.6875 37.796875 -151.390625 37.796875 -161.390625 C 37.796875 -164.984375 37.59375 -168.476562 37.1875 -171.875 C 36.789062 -175.28125 36.394531 -178.785156 36 -182.390625 C 34 -193.585938 33.796875 -205.1875 35.390625 -217.1875 C 36.597656 -225.1875 37.203125 -233.285156 37.203125 -241.484375 C 37.203125 -249.679688 36.800781 -257.78125 36 -265.78125 C 36 -267.78125 35.796875 -269.78125 35.390625 -271.78125 C 34.992188 -273.78125 34.796875 -275.78125 34.796875 -277.78125 C 35.191406 -288.175781 35.085938 -298.472656 34.484375 -308.671875 C 33.890625 -318.867188 33.191406 -328.96875 32.390625 -338.96875 C 31.597656 -346.96875 30.398438 -354.566406 28.796875 -361.765625 C 27.191406 -368.972656 24.191406 -375.972656 19.796875 -382.765625 C 17.796875 -386.367188 16.195312 -389.570312 15 -392.375 C 12.601562 -398.769531 12.703125 -404.164062 15.296875 -408.5625 C 17.898438 -412.96875 22.597656 -415.570312 29.390625 -416.375 C 35.390625 -417.164062 41.191406 -417.164062 46.796875 -416.375 C 55.992188 -415.164062 65.09375 -414.5625 74.09375 -414.5625 C 83.09375 -414.5625 92.191406 -415.164062 101.390625 -416.375 C 108.992188 -417.164062 116.492188 -417.460938 123.890625 -417.265625 C 131.285156 -417.066406 138.582031 -416.566406 145.78125 -415.765625 C 160.1875 -414.566406 172.988281 -410.566406 184.1875 -403.765625 C 195.382812 -396.960938 205.582031 -388.164062 214.78125 -377.375 C 216.382812 -375.769531 217.785156 -373.867188 218.984375 -371.671875 C 220.179688 -369.472656 221.179688 -367.171875 221.984375 -364.765625 C 224.785156 -359.972656 227.484375 -354.972656 230.078125 -349.765625 C 232.679688 -344.566406 235.382812 -339.171875 238.1875 -333.578125 C 238.976562 -331.972656 239.773438 -330.367188 240.578125 -328.765625 C 241.378906 -327.171875 241.976562 -325.570312 242.375 -323.96875 C 244.375 -317.570312 246.875 -311.171875 249.875 -304.765625 C 252.875 -298.367188 255.976562 -292.171875 259.1875 -286.171875 C 262.382812 -278.972656 264.878906 -271.675781 266.671875 -264.28125 C 268.472656 -256.882812 269.972656 -249.382812 271.171875 -241.78125 C 271.972656 -236.582031 272.773438 -231.179688 273.578125 -225.578125 C 274.378906 -219.984375 275.179688 -214.382812 275.984375 -208.78125 C 277.578125 -199.582031 279.070312 -190.28125 280.46875 -180.875 C 281.875 -171.476562 283.175781 -162.179688 284.375 -152.984375 Z M 93 -272.375 C 92.195312 -266.375 91.59375 -260.472656 91.1875 -254.671875 C 90.789062 -248.878906 90.59375 -242.984375 90.59375 -236.984375 C 90.988281 -231.785156 91.382812 -226.382812 91.78125 -220.78125 C 92.1875 -215.1875 92.59375 -209.585938 93 -203.984375 C 93.789062 -195.984375 94.488281 -188.082031 95.09375 -180.28125 C 95.695312 -172.488281 96.394531 -164.789062 97.1875 -157.1875 C 98.394531 -145.988281 100.195312 -135.085938 102.59375 -124.484375 C 104.988281 -113.890625 107.785156 -103.394531 110.984375 -93 C 112.585938 -87.394531 114.988281 -82.492188 118.1875 -78.296875 C 121.382812 -74.097656 124.984375 -70 128.984375 -66 C 132.984375 -62 138.679688 -59.195312 146.078125 -57.59375 C 153.484375 -56 160.984375 -56.097656 168.578125 -57.890625 C 176.179688 -59.691406 182.582031 -63.992188 187.78125 -70.796875 C 193.382812 -78.390625 196.984375 -85.988281 198.578125 -93.59375 C 199.378906 -96.789062 200.179688 -100.085938 200.984375 -103.484375 C 201.785156 -106.890625 202.585938 -110.191406 203.390625 -113.390625 C 207.390625 -124.992188 209.585938 -136.789062 209.984375 -148.78125 C 210.378906 -160.78125 209.976562 -172.78125 208.78125 -184.78125 C 208.382812 -191.1875 207.984375 -197.488281 207.578125 -203.6875 C 207.179688 -209.882812 207.179688 -216.179688 207.578125 -222.578125 C 207.578125 -226.578125 207.378906 -230.578125 206.984375 -234.578125 C 206.585938 -238.578125 205.785156 -242.578125 204.578125 -246.578125 C 202.984375 -252.179688 201.582031 -257.78125 200.375 -263.375 C 199.175781 -268.976562 197.976562 -274.78125 196.78125 -280.78125 C 195.582031 -289.582031 192.582031 -298.78125 187.78125 -308.375 C 184.976562 -313.976562 182.175781 -319.578125 179.375 -325.171875 C 176.582031 -330.773438 173.785156 -336.375 170.984375 -341.96875 C 170.179688 -343.96875 169.28125 -345.867188 168.28125 -347.671875 C 167.28125 -349.472656 166.179688 -351.171875 164.984375 -352.765625 C 155.390625 -365.566406 143.59375 -368.566406 129.59375 -361.765625 C 123.59375 -358.972656 118.289062 -355.273438 113.6875 -350.671875 C 109.09375 -346.066406 105.59375 -340.566406 103.1875 -334.171875 C 101.59375 -329.773438 100.191406 -325.273438 98.984375 -320.671875 C 97.785156 -316.078125 96.789062 -311.378906 96 -306.578125 C 95.59375 -300.972656 95.1875 -295.269531 94.78125 -289.46875 C 94.382812 -283.675781 93.789062 -277.976562 93 -272.375 Z M 93 -272.375 "/></g></g></g><g fill="#b6b8b6" fill-opacity="1"><g transform="translate(1933.052388, 646.938183)"><g><path d="M 61.1875 -416.375 C 73.1875 -417.164062 85.1875 -418.160156 97.1875 -419.359375 C 109.1875 -420.566406 120.585938 -420.769531 131.390625 -419.96875 C 151.785156 -420.769531 170.382812 -420.171875 187.1875 -418.171875 C 190.382812 -417.765625 193.679688 -417.5625 197.078125 -417.5625 C 200.484375 -417.5625 203.785156 -417.5625 206.984375 -417.5625 C 221.378906 -417.5625 232.976562 -411.5625 241.78125 -399.5625 C 247.78125 -391.5625 253.078125 -383.363281 257.671875 -374.96875 C 262.273438 -366.570312 265.773438 -357.375 268.171875 -347.375 C 270.578125 -337.375 273.175781 -327.375 275.96875 -317.375 C 278.769531 -307.375 281.570312 -297.578125 284.375 -287.984375 C 286.375 -280.378906 288.070312 -272.875 289.46875 -265.46875 C 290.875 -258.070312 291.976562 -250.578125 292.78125 -242.984375 C 293.175781 -239.378906 293.875 -235.875 294.875 -232.46875 C 295.875 -229.070312 296.972656 -225.578125 298.171875 -221.984375 C 299.378906 -219.179688 300.476562 -216.28125 301.46875 -213.28125 C 302.46875 -210.28125 303.367188 -207.179688 304.171875 -203.984375 C 306.171875 -195.585938 308.171875 -186.988281 310.171875 -178.1875 C 312.171875 -169.382812 314.171875 -160.582031 316.171875 -151.78125 C 318.578125 -143.382812 320.078125 -134.882812 320.671875 -126.28125 C 321.273438 -117.6875 321.773438 -108.988281 322.171875 -100.1875 C 322.171875 -94.1875 322.570312 -88.1875 323.375 -82.1875 C 324.175781 -76.1875 325.175781 -70.1875 326.375 -64.1875 C 327.976562 -57.789062 329.078125 -51.390625 329.671875 -44.984375 C 330.273438 -38.585938 329.976562 -31.992188 328.78125 -25.203125 C 326.375 -10.796875 318.375 -3.394531 304.78125 -3 C 295.175781 -2.601562 285.570312 -2.003906 275.96875 -1.203125 C 266.375 -0.398438 256.78125 0.597656 247.1875 1.796875 C 239.976562 2.597656 232.375 2 224.375 0 C 221.175781 -1.195312 218.378906 -2.597656 215.984375 -4.203125 C 211.585938 -7.796875 210.390625 -12.195312 212.390625 -17.40625 C 214.390625 -22.195312 216.585938 -25.992188 218.984375 -28.796875 C 226.578125 -37.992188 232.472656 -47.992188 236.671875 -58.796875 C 240.878906 -69.597656 244.582031 -80.597656 247.78125 -91.796875 C 250.976562 -102.191406 251.378906 -112.789062 248.984375 -123.59375 C 247.785156 -131.988281 246.582031 -140.285156 245.375 -148.484375 C 244.175781 -156.679688 243.175781 -164.78125 242.375 -172.78125 C 241.175781 -183.976562 238.375 -194.175781 233.96875 -203.375 C 229.570312 -212.582031 223.175781 -220.984375 214.78125 -228.578125 C 209.582031 -232.984375 203.984375 -236.484375 197.984375 -239.078125 C 191.984375 -241.679688 185.382812 -242.78125 178.1875 -242.375 C 173.789062 -241.976562 169.390625 -241.476562 164.984375 -240.875 C 160.585938 -240.28125 156.1875 -239.78125 151.78125 -239.375 C 145.78125 -238.175781 139.785156 -235.378906 133.796875 -230.984375 C 118.585938 -219.378906 105.585938 -205.78125 94.796875 -190.1875 C 88.796875 -181.789062 85.394531 -171.789062 84.59375 -160.1875 C 84.195312 -153.789062 83.796875 -147.289062 83.390625 -140.6875 C 82.992188 -134.09375 82.992188 -127.59375 83.390625 -121.1875 C 83.796875 -108.789062 86 -97.191406 90 -86.390625 C 94 -75.585938 100.394531 -65.585938 109.1875 -56.390625 C 112.382812 -52.796875 115.785156 -49.394531 119.390625 -46.1875 C 122.992188 -42.988281 126.59375 -39.59375 130.1875 -36 C 132.1875 -34 134.1875 -32.097656 136.1875 -30.296875 C 138.1875 -28.492188 139.988281 -26.59375 141.59375 -24.59375 C 145.59375 -19.394531 146.691406 -14.394531 144.890625 -9.59375 C 143.085938 -4.800781 138.988281 -1.800781 132.59375 -0.59375 C 123.789062 0.195312 115.1875 0.992188 106.78125 1.796875 C 98.382812 2.597656 89.988281 2.398438 81.59375 1.203125 C 74.789062 0.398438 67.59375 -0.195312 60 -0.59375 C 57.195312 -0.59375 54.492188 -0.789062 51.890625 -1.1875 C 49.296875 -1.59375 46.796875 -2.394531 44.390625 -3.59375 C 32.796875 -7.59375 25.195312 -15.191406 21.59375 -26.390625 C 19.195312 -33.992188 18.597656 -41.992188 19.796875 -50.390625 C 21.796875 -62.390625 23.394531 -74.289062 24.59375 -86.09375 C 25.789062 -97.894531 27.992188 -109.394531 31.203125 -120.59375 C 31.992188 -122.988281 32.585938 -125.285156 32.984375 -127.484375 C 33.390625 -129.691406 33.992188 -131.796875 34.796875 -133.796875 C 37.597656 -142.191406 39.894531 -150.6875 41.6875 -159.28125 C 43.488281 -167.882812 44.992188 -176.382812 46.203125 -184.78125 C 46.597656 -188.78125 47.195312 -192.378906 48 -195.578125 C 50.800781 -206.378906 53.597656 -217.179688 56.390625 -227.984375 C 59.191406 -238.785156 62.191406 -249.582031 65.390625 -260.375 C 66.992188 -266.375 68.394531 -272.273438 69.59375 -278.078125 C 70.789062 -283.878906 71.59375 -289.78125 72 -295.78125 C 73.195312 -306.570312 75.394531 -316.769531 78.59375 -326.375 C 81.394531 -334.375 82.195312 -343.171875 81 -352.765625 C 80.59375 -359.566406 78.191406 -365.769531 73.796875 -371.375 C 69.390625 -376.96875 64.085938 -379.566406 57.890625 -379.171875 C 51.691406 -378.773438 46.796875 -375.375 43.203125 -368.96875 C 42.398438 -367.375 41.695312 -365.773438 41.09375 -364.171875 C 40.5 -362.566406 39.800781 -360.96875 39 -359.375 C 38.59375 -358.175781 38.085938 -356.875 37.484375 -355.46875 C 36.890625 -354.070312 36.191406 -352.972656 35.390625 -352.171875 C 31.796875 -346.972656 27.398438 -345.972656 22.203125 -349.171875 C 13.398438 -354.367188 8.296875 -361.367188 6.890625 -370.171875 C 5.492188 -378.972656 7.394531 -386.570312 12.59375 -392.96875 C 17.394531 -399.363281 22.796875 -403.960938 28.796875 -406.765625 C 33.992188 -409.566406 39.289062 -411.765625 44.6875 -413.359375 C 50.09375 -414.960938 55.59375 -415.96875 61.1875 -416.375 Z M 194.984375 -298.78125 C 205.785156 -300.78125 210.984375 -307.378906 210.578125 -318.578125 C 210.578125 -323.773438 209.378906 -329.671875 206.984375 -336.265625 C 204.585938 -342.867188 201.785156 -348.171875 198.578125 -352.171875 C 197.378906 -353.773438 195.984375 -355.375 194.390625 -356.96875 C 184.390625 -366.164062 173.585938 -367.765625 161.984375 -361.765625 C 157.179688 -359.367188 152.976562 -356.367188 149.375 -352.765625 C 145.78125 -349.171875 142.1875 -345.375 138.59375 -341.375 C 132.59375 -335.375 127.988281 -328.472656 124.78125 -320.671875 C 121.582031 -312.867188 119.1875 -304.570312 117.59375 -295.78125 C 117.1875 -294.175781 117.1875 -292.375 117.59375 -290.375 C 117.988281 -283.570312 121.785156 -279.972656 128.984375 -279.578125 C 132.585938 -279.578125 135.988281 -280.378906 139.1875 -281.984375 C 143.582031 -283.984375 147.984375 -286.179688 152.390625 -288.578125 C 161.191406 -293.378906 170.191406 -295.976562 179.390625 -296.375 C 184.984375 -296.78125 190.179688 -297.582031 194.984375 -298.78125 Z M 194.984375 -298.78125 "/></g></g></g><g fill="#b6b8b6" fill-opacity="1"><g transform="translate(2269.627835, 646.938183)"><g><path d="M 113.984375 -419.375 C 113.984375 -419.375 117.179688 -419.375 123.578125 -419.375 C 129.984375 -419.375 135.1875 -419.570312 139.1875 -419.96875 C 149.1875 -420.363281 159.285156 -420.460938 169.484375 -420.265625 C 179.679688 -420.066406 189.78125 -419.367188 199.78125 -418.171875 C 204.1875 -417.765625 208.585938 -417.5625 212.984375 -417.5625 C 217.378906 -417.5625 221.976562 -417.5625 226.78125 -417.5625 C 229.175781 -417.5625 231.570312 -417.460938 233.96875 -417.265625 C 236.375 -417.066406 238.78125 -416.96875 241.1875 -416.96875 C 257.175781 -415.769531 269.375 -408.171875 277.78125 -394.171875 C 290.976562 -372.171875 294.773438 -348.570312 289.171875 -323.375 C 287.972656 -317.769531 286.175781 -313.171875 283.78125 -309.578125 C 281.375 -306.773438 278.472656 -305.171875 275.078125 -304.765625 C 271.679688 -304.367188 268.78125 -305.570312 266.375 -308.375 C 263.976562 -310.769531 261.78125 -313.570312 259.78125 -316.78125 C 258.582031 -319.570312 257.28125 -322.46875 255.875 -325.46875 C 254.476562 -328.46875 253.179688 -331.367188 251.984375 -334.171875 C 249.578125 -339.773438 246.472656 -345.078125 242.671875 -350.078125 C 238.878906 -355.078125 234.582031 -359.773438 229.78125 -364.171875 C 226.582031 -367.367188 223.179688 -369.367188 219.578125 -370.171875 C 211.578125 -372.566406 204.578125 -371.164062 198.578125 -365.96875 C 192.179688 -360.375 187.785156 -353.175781 185.390625 -344.375 C 181.785156 -332.375 179.785156 -320.570312 179.390625 -308.96875 C 178.984375 -301.769531 178.878906 -294.570312 179.078125 -287.375 C 179.285156 -280.175781 179.785156 -272.976562 180.578125 -265.78125 C 181.785156 -256.175781 181.785156 -246.773438 180.578125 -237.578125 C 179.785156 -232.773438 179.285156 -227.875 179.078125 -222.875 C 178.878906 -217.882812 178.78125 -212.988281 178.78125 -208.1875 C 178.78125 -199.78125 178.78125 -191.273438 178.78125 -182.671875 C 178.78125 -174.078125 178.984375 -165.582031 179.390625 -157.1875 C 180.179688 -146.382812 181.078125 -135.679688 182.078125 -125.078125 C 183.078125 -114.484375 185.179688 -103.988281 188.390625 -93.59375 C 190.390625 -85.988281 192.1875 -78.382812 193.78125 -70.78125 C 195.382812 -63.1875 197.382812 -55.59375 199.78125 -48 C 200.976562 -45.195312 202.078125 -42.296875 203.078125 -39.296875 C 204.078125 -36.296875 204.976562 -33.195312 205.78125 -30 C 206.1875 -28.394531 206.6875 -26.691406 207.28125 -24.890625 C 207.882812 -23.097656 208.1875 -21.398438 208.1875 -19.796875 C 208.988281 -12.597656 205.988281 -7.800781 199.1875 -5.40625 C 195.988281 -4.195312 192.785156 -3.59375 189.578125 -3.59375 C 183.578125 -3.59375 177.476562 -3.09375 171.28125 -2.09375 C 165.082031 -1.09375 158.785156 -0.195312 152.390625 0.59375 C 146.390625 1.800781 140.1875 2.503906 133.78125 2.703125 C 127.382812 2.898438 121.1875 2.800781 115.1875 2.40625 C 109.1875 2.40625 103.988281 1.203125 99.59375 -1.203125 C 90.394531 -5.203125 86.796875 -12 88.796875 -21.59375 C 89.191406 -24 89.789062 -26.398438 90.59375 -28.796875 C 91.394531 -31.191406 92.394531 -33.390625 93.59375 -35.390625 C 95.195312 -38.992188 96.796875 -42.492188 98.390625 -45.890625 C 99.992188 -49.296875 101.59375 -52.597656 103.1875 -55.796875 C 105.988281 -61.390625 107.988281 -66.988281 109.1875 -72.59375 C 110.382812 -78.195312 111.1875 -84 111.59375 -90 C 113.59375 -105.59375 114.59375 -121.390625 114.59375 -137.390625 C 114.59375 -153.390625 114.59375 -169.1875 114.59375 -184.78125 C 114.59375 -189.976562 114.488281 -194.976562 114.28125 -199.78125 C 114.082031 -204.582031 113.785156 -209.382812 113.390625 -214.1875 C 113.390625 -215.78125 113.289062 -217.273438 113.09375 -218.671875 C 112.894531 -220.078125 112.796875 -221.378906 112.796875 -222.578125 C 113.585938 -234.179688 113.679688 -245.984375 113.078125 -257.984375 C 112.484375 -269.984375 111.988281 -281.78125 111.59375 -293.375 C 111.59375 -301.769531 110.789062 -310.066406 109.1875 -318.265625 C 107.59375 -326.472656 105.59375 -334.578125 103.1875 -342.578125 C 101.1875 -347.367188 99.1875 -351.765625 97.1875 -355.765625 C 89.988281 -367.765625 79.988281 -371.367188 67.1875 -366.578125 C 55.988281 -362.171875 47.789062 -355.367188 42.59375 -346.171875 C 41 -342.972656 39.398438 -339.773438 37.796875 -336.578125 C 36.191406 -333.378906 34.59375 -330.175781 33 -326.96875 C 30.59375 -321.375 27.59375 -316.976562 24 -313.78125 C 16.394531 -307.375 9.796875 -308.375 4.203125 -316.78125 C 1.796875 -320.78125 0.195312 -325.78125 -0.59375 -331.78125 C -1.394531 -340.175781 -1.195312 -348.171875 0 -355.765625 C 0.394531 -360.972656 1.09375 -366.078125 2.09375 -371.078125 C 3.09375 -376.078125 3.992188 -381.175781 4.796875 -386.375 C 5.597656 -392.375 7.597656 -397.769531 10.796875 -402.5625 C 15.992188 -410.96875 22.992188 -415.96875 31.796875 -417.5625 C 36.597656 -418.363281 41.195312 -418.765625 45.59375 -418.765625 C 56.789062 -419.171875 68.988281 -419.269531 82.1875 -419.0625 C 95.382812 -418.863281 105.984375 -418.96875 113.984375 -419.375 Z M 113.984375 -419.375 "/></g></g></g><g fill="#b6b8b6" fill-opacity="1"><g transform="translate(2590.604539, 646.938183)"><g><path d="M 37.203125 -417.5625 C 39.992188 -417.5625 45.289062 -417.5625 53.09375 -417.5625 C 60.894531 -417.5625 68.894531 -417.660156 77.09375 -417.859375 C 85.289062 -418.066406 91.390625 -418.367188 95.390625 -418.765625 C 98.191406 -418.765625 100.988281 -418.863281 103.78125 -419.0625 C 106.582031 -419.269531 109.585938 -419.375 112.796875 -419.375 C 123.992188 -419.375 135.191406 -419.472656 146.390625 -419.671875 C 157.585938 -419.867188 168.785156 -419.96875 179.984375 -419.96875 C 184.378906 -419.96875 188.773438 -419.867188 193.171875 -419.671875 C 197.578125 -419.472656 201.984375 -418.769531 206.390625 -417.5625 C 223.179688 -412.769531 232.976562 -402.171875 235.78125 -385.765625 C 236.582031 -380.972656 237.484375 -376.175781 238.484375 -371.375 C 239.484375 -366.570312 240.582031 -361.769531 241.78125 -356.96875 C 242.582031 -354.164062 242.984375 -351.460938 242.984375 -348.859375 C 242.984375 -346.265625 242.582031 -343.769531 241.78125 -341.375 C 240.582031 -338.570312 238.78125 -336.570312 236.375 -335.375 C 233.976562 -334.175781 231.378906 -334.375 228.578125 -335.96875 C 226.984375 -337.175781 225.382812 -338.378906 223.78125 -339.578125 C 222.175781 -340.773438 220.578125 -342.171875 218.984375 -343.765625 C 215.378906 -346.972656 211.773438 -350.273438 208.171875 -353.671875 C 204.578125 -357.066406 200.984375 -360.367188 197.390625 -363.578125 C 183.390625 -375.171875 167.390625 -378.769531 149.390625 -374.375 C 140.191406 -371.96875 131.59375 -368.460938 123.59375 -363.859375 C 115.59375 -359.265625 108.390625 -353.367188 101.984375 -346.171875 C 97.585938 -340.578125 94.085938 -334.78125 91.484375 -328.78125 C 88.890625 -322.78125 87.59375 -316.378906 87.59375 -309.578125 C 87.59375 -305.972656 87.691406 -302.472656 87.890625 -299.078125 C 88.085938 -295.679688 88.1875 -292.378906 88.1875 -289.171875 C 88.59375 -283.578125 89.992188 -278.378906 92.390625 -273.578125 C 97.992188 -263.984375 105.992188 -260.984375 116.390625 -264.578125 C 118.785156 -265.773438 120.984375 -267.070312 122.984375 -268.46875 C 124.984375 -269.875 126.785156 -271.378906 128.390625 -272.984375 C 133.585938 -276.984375 138.785156 -280.679688 143.984375 -284.078125 C 149.179688 -287.472656 154.78125 -290.375 160.78125 -292.78125 C 163.1875 -293.582031 165.785156 -294.378906 168.578125 -295.171875 C 171.378906 -295.972656 174.382812 -296.375 177.59375 -296.375 C 185.1875 -296.375 191.179688 -293.773438 195.578125 -288.578125 C 201.179688 -282.179688 205.984375 -275.28125 209.984375 -267.875 C 213.984375 -260.476562 216.984375 -252.582031 218.984375 -244.1875 C 220.179688 -240.1875 220.582031 -235.1875 220.1875 -229.1875 C 219.382812 -218.382812 213.382812 -214.179688 202.1875 -216.578125 C 200.1875 -216.984375 198.082031 -217.582031 195.875 -218.375 C 193.675781 -219.175781 191.578125 -220.175781 189.578125 -221.375 C 184.785156 -223.375 179.890625 -224.773438 174.890625 -225.578125 C 169.890625 -226.378906 164.789062 -226.78125 159.59375 -226.78125 C 153.1875 -226.78125 147.179688 -225.78125 141.578125 -223.78125 C 135.984375 -221.78125 130.585938 -219.179688 125.390625 -215.984375 C 115.785156 -209.585938 109.382812 -201.1875 106.1875 -190.78125 C 104.988281 -186.78125 103.890625 -182.878906 102.890625 -179.078125 C 101.890625 -175.285156 101.191406 -171.390625 100.796875 -167.390625 C 99.597656 -157.785156 98.894531 -148.285156 98.6875 -138.890625 C 98.488281 -129.492188 98.789062 -120.191406 99.59375 -110.984375 C 100.789062 -96.585938 105.390625 -85.085938 113.390625 -76.484375 C 121.390625 -67.890625 131.585938 -60.796875 143.984375 -55.203125 C 151.585938 -51.597656 160.585938 -51.691406 170.984375 -55.484375 C 181.378906 -59.285156 188.378906 -64.585938 191.984375 -71.390625 C 195.179688 -76.992188 196.679688 -82.492188 196.484375 -87.890625 C 196.285156 -93.296875 194.984375 -98.796875 192.578125 -104.390625 C 191.378906 -106.785156 189.976562 -109.179688 188.375 -111.578125 C 186.78125 -113.984375 184.984375 -116.390625 182.984375 -118.796875 C 181.785156 -119.992188 180.585938 -121.289062 179.390625 -122.6875 C 178.191406 -124.09375 177.191406 -125.59375 176.390625 -127.1875 C 172.390625 -134.789062 174.390625 -140.191406 182.390625 -143.390625 C 183.984375 -144.191406 185.378906 -144.59375 186.578125 -144.59375 C 192.984375 -145.382812 199.582031 -146.179688 206.375 -146.984375 C 213.175781 -147.785156 219.78125 -147.988281 226.1875 -147.59375 C 227.382812 -147.1875 228.78125 -146.984375 230.375 -146.984375 C 238.78125 -145.390625 244.679688 -142.789062 248.078125 -139.1875 C 251.484375 -135.59375 253.785156 -129.796875 254.984375 -121.796875 C 256.179688 -114.585938 256.976562 -107.582031 257.375 -100.78125 C 257.78125 -93.988281 257.382812 -86.992188 256.1875 -79.796875 C 255.78125 -75.390625 255.875 -70.785156 256.46875 -65.984375 C 257.070312 -61.191406 257.773438 -56.597656 258.578125 -52.203125 C 258.984375 -48.992188 259.285156 -45.789062 259.484375 -42.59375 C 259.679688 -39.394531 259.976562 -36.394531 260.375 -33.59375 C 260.375 -26.394531 258.773438 -20.492188 255.578125 -15.890625 C 252.378906 -11.296875 247.78125 -7.597656 241.78125 -4.796875 C 238.976562 -3.203125 236.078125 -2.101562 233.078125 -1.5 C 230.078125 -0.894531 226.976562 -0.59375 223.78125 -0.59375 C 217.78125 -0.195312 211.878906 0.296875 206.078125 0.890625 C 200.285156 1.492188 194.585938 1.597656 188.984375 1.203125 C 179.785156 0.796875 170.585938 0.492188 161.390625 0.296875 C 152.191406 0.0976562 142.992188 0.398438 133.796875 1.203125 C 131.390625 1.597656 128.984375 1.492188 126.578125 0.890625 C 124.179688 0.296875 121.785156 -0.195312 119.390625 -0.59375 C 112.191406 -1.800781 105.191406 -2.503906 98.390625 -2.703125 C 91.585938 -2.898438 84.585938 -3 77.390625 -3 C 70.992188 -3 64.394531 -2.898438 57.59375 -2.703125 C 50.789062 -2.503906 43.992188 -2.40625 37.203125 -2.40625 C 35.203125 -2.40625 33.203125 -2.503906 31.203125 -2.703125 C 29.203125 -2.898438 27.203125 -3.195312 25.203125 -3.59375 C 16.398438 -5.59375 12.597656 -11.394531 13.796875 -21 C 14.203125 -23 14.800781 -25 15.59375 -27 C 16.394531 -28.59375 17.09375 -30.085938 17.6875 -31.484375 C 18.289062 -32.890625 18.992188 -34.394531 19.796875 -36 C 25.796875 -46.394531 30.09375 -57.191406 32.6875 -68.390625 C 35.289062 -79.585938 36.796875 -90.988281 37.203125 -102.59375 C 37.597656 -115.394531 37.796875 -127.992188 37.796875 -140.390625 C 37.796875 -152.785156 37.597656 -165.382812 37.203125 -178.1875 C 37.203125 -180.1875 37 -181.382812 36.59375 -181.78125 C 34.195312 -197.78125 32.894531 -213.679688 32.6875 -229.484375 C 32.488281 -245.285156 32.191406 -261.179688 31.796875 -277.171875 C 31.398438 -288.773438 30.898438 -300.375 30.296875 -311.96875 C 29.691406 -323.570312 29.59375 -335.171875 30 -346.765625 C 30 -353.171875 29.097656 -359.171875 27.296875 -364.765625 C 25.492188 -370.367188 22.992188 -375.96875 19.796875 -381.5625 C 18.597656 -383.5625 17.296875 -385.5625 15.890625 -387.5625 C 14.492188 -389.5625 13.394531 -391.765625 12.59375 -394.171875 C 10.195312 -399.765625 10.195312 -404.660156 12.59375 -408.859375 C 15 -413.066406 19.203125 -415.769531 25.203125 -416.96875 C 27.203125 -417.363281 29.203125 -417.460938 31.203125 -417.265625 C 33.203125 -417.066406 35.203125 -417.164062 37.203125 -417.5625 Z M 37.203125 -417.5625 "/></g></g></g><g fill="#b6b8b6" fill-opacity="1"><g transform="translate(2890.582743, 646.938183)"><g><path d="M 184.1875 0.59375 C 174.1875 -0.195312 164.382812 -0.492188 154.78125 -0.296875 C 145.1875 -0.0976562 136.191406 0 127.796875 0 C 114.992188 -0.394531 102.59375 -0.691406 90.59375 -0.890625 C 78.59375 -1.097656 66.796875 -0.800781 55.203125 0 C 41.597656 0.800781 29.992188 -3.796875 20.390625 -13.796875 C 15.992188 -18.597656 13.796875 -23.796875 13.796875 -29.390625 C 13.796875 -30.992188 13.796875 -32.59375 13.796875 -34.1875 C 13.796875 -35.789062 13.796875 -37.394531 13.796875 -39 C 15.796875 -53 17.695312 -66.992188 19.5 -80.984375 C 21.300781 -94.984375 23.800781 -108.785156 27 -122.390625 C 27.800781 -124.390625 28.5 -126.488281 29.09375 -128.6875 C 29.695312 -130.882812 30.398438 -133.1875 31.203125 -135.59375 C 34.398438 -144.382812 40.195312 -150.582031 48.59375 -154.1875 C 59.789062 -159.382812 71.59375 -161.582031 84 -160.78125 C 86.789062 -160.382812 89.585938 -159.785156 92.390625 -158.984375 C 101.992188 -156.179688 105.191406 -149.984375 101.984375 -140.390625 C 101.585938 -137.992188 100.890625 -135.796875 99.890625 -133.796875 C 98.890625 -131.796875 97.789062 -129.992188 96.59375 -128.390625 C 92.988281 -122.390625 90.785156 -116.390625 89.984375 -110.390625 C 89.191406 -104.390625 89.195312 -98.191406 90 -91.796875 C 92 -74.597656 100.195312 -62 114.59375 -54 C 122.988281 -49.59375 132.1875 -48.085938 142.1875 -49.484375 C 152.1875 -50.890625 160.585938 -54.789062 167.390625 -61.1875 C 172.585938 -65.988281 176.585938 -70.988281 179.390625 -76.1875 C 180.585938 -78.59375 181.6875 -80.992188 182.6875 -83.390625 C 183.6875 -85.796875 184.785156 -88.195312 185.984375 -90.59375 C 196.378906 -113.789062 195.976562 -136.585938 184.78125 -158.984375 C 182.78125 -163.390625 180.878906 -167.789062 179.078125 -172.1875 C 177.285156 -176.582031 175.390625 -180.78125 173.390625 -184.78125 C 168.585938 -194.78125 160.785156 -202.582031 149.984375 -208.1875 C 142.390625 -212.1875 134.488281 -215.382812 126.28125 -217.78125 C 118.082031 -220.175781 109.785156 -221.976562 101.390625 -223.1875 C 92.191406 -224.78125 82.992188 -223.78125 73.796875 -220.1875 C 70.992188 -219.382812 68.191406 -218.484375 65.390625 -217.484375 C 62.585938 -216.484375 59.789062 -215.582031 57 -214.78125 C 43.394531 -211.582031 33.59375 -216.582031 27.59375 -229.78125 C 26 -232.976562 24.597656 -237.175781 23.390625 -242.375 C 22.191406 -249.976562 21.492188 -257.578125 21.296875 -265.171875 C 21.097656 -272.773438 21.597656 -280.378906 22.796875 -287.984375 C 23.597656 -291.179688 24.296875 -294.378906 24.890625 -297.578125 C 25.492188 -300.773438 26.195312 -304.175781 27 -307.78125 C 32.59375 -333.769531 33.390625 -360.363281 29.390625 -387.5625 C 28.992188 -389.164062 28.695312 -390.867188 28.5 -392.671875 C 28.300781 -394.472656 28.203125 -396.375 28.203125 -398.375 C 28.597656 -409.164062 33.992188 -415.164062 44.390625 -416.375 C 49.992188 -417.164062 55.796875 -417.164062 61.796875 -416.375 C 76.191406 -415.164062 90.390625 -415.0625 104.390625 -416.0625 C 118.390625 -417.0625 132.390625 -417.960938 146.390625 -418.765625 C 148.785156 -418.765625 151.082031 -418.765625 153.28125 -418.765625 C 155.488281 -418.765625 157.59375 -418.765625 159.59375 -418.765625 C 165.988281 -417.960938 172.484375 -417.160156 179.078125 -416.359375 C 185.679688 -415.566406 192.179688 -414.769531 198.578125 -413.96875 C 214.578125 -412.363281 225.976562 -404.164062 232.78125 -389.375 C 234.78125 -384.164062 236.378906 -379.164062 237.578125 -374.375 C 239.984375 -361.96875 240.785156 -348.96875 239.984375 -335.375 C 239.179688 -318.976562 230.582031 -309.175781 214.1875 -305.96875 C 208.988281 -304.769531 203.6875 -304.46875 198.28125 -305.0625 C 192.882812 -305.664062 187.585938 -306.769531 182.390625 -308.375 C 174.785156 -310.375 170.785156 -315.570312 170.390625 -323.96875 C 170.390625 -325.96875 170.585938 -327.867188 170.984375 -329.671875 C 171.390625 -331.472656 171.59375 -333.175781 171.59375 -334.78125 C 171.988281 -337.175781 172.382812 -339.671875 172.78125 -342.265625 C 173.1875 -344.867188 173.1875 -347.367188 172.78125 -349.765625 C 172.382812 -356.566406 170.085938 -362.164062 165.890625 -366.5625 C 161.691406 -370.96875 155.988281 -373.367188 148.78125 -373.765625 C 141.988281 -374.566406 135.390625 -373.96875 128.984375 -371.96875 C 122.585938 -369.96875 116.390625 -367.367188 110.390625 -364.171875 C 105.191406 -360.566406 100.691406 -355.164062 96.890625 -347.96875 C 93.085938 -340.769531 90.882812 -332.96875 90.28125 -324.5625 C 89.6875 -316.164062 91.390625 -308.769531 95.390625 -302.375 C 99.390625 -295.570312 104.585938 -290.171875 110.984375 -286.171875 C 122.585938 -278.578125 134.488281 -271.179688 146.6875 -263.984375 C 158.882812 -256.785156 171.382812 -250.382812 184.1875 -244.78125 C 193.382812 -240.78125 201.78125 -235.976562 209.375 -230.375 C 216.976562 -224.78125 224.378906 -218.785156 231.578125 -212.390625 C 236.773438 -207.585938 241.375 -201.984375 245.375 -195.578125 C 246.582031 -192.785156 247.984375 -190.1875 249.578125 -187.78125 C 251.179688 -185.382812 252.78125 -182.984375 254.375 -180.578125 C 260.375 -172.179688 264.671875 -163.285156 267.265625 -153.890625 C 269.867188 -144.492188 271.375 -134.796875 271.78125 -124.796875 C 272.175781 -120.390625 272.273438 -115.785156 272.078125 -110.984375 C 271.878906 -106.191406 271.78125 -101.394531 271.78125 -96.59375 C 271.78125 -90.59375 270.976562 -84.394531 269.375 -78 C 267.375 -70.394531 265.375 -62.59375 263.375 -54.59375 C 261.375 -46.195312 257.972656 -38.5 253.171875 -31.5 C 248.378906 -24.5 242.78125 -18.195312 236.375 -12.59375 C 233.976562 -10.195312 231.28125 -8.296875 228.28125 -6.890625 C 225.28125 -5.492188 222.179688 -4.394531 218.984375 -3.59375 C 206.984375 0 195.382812 1.394531 184.1875 0.59375 Z M 184.1875 0.59375 "/></g></g></g></svg>