<svg xmlns="http://www.w3.org/2000/svg" xmlns:xlink="http://www.w3.org/1999/xlink" width="1920" zoomAndPan="magnify" viewBox="0 0 1440 809.999993" height="1080" preserveAspectRatio="xMidYMid meet" version="1.0"><defs><g/><clipPath id="ae7158d1bf"><rect x="0" width="1330" y="0" height="393"/></clipPath></defs><g transform="matrix(1, 0, 0, 1, 52, 208)"><g clip-path="url(#ae7158d1bf)"><g fill="#c3cc44" fill-opacity="1"><g transform="translate(0.538099, 298.770806)"><g><path d="M 31.03125 46.5625 C 23.0625 46.5625 16.703125 44.78125 11.953125 41.21875 C 7.210938 37.664062 4.84375 33.085938 4.84375 27.484375 C 4.84375 22.953125 6.191406 19.609375 8.890625 17.453125 C 11.585938 15.296875 14.550781 14.21875 17.78125 14.21875 C 20.800781 14.21875 23.550781 15.1875 26.03125 17.125 C 28.507812 19.070312 29.75 21.878906 29.75 25.546875 C 29.75 28.554688 28.882812 31.03125 27.15625 32.96875 C 28.445312 33.40625 29.738281 33.675781 31.03125 33.78125 C 32.320312 33.894531 33.507812 33.953125 34.59375 33.953125 C 48.382812 33.953125 59.859375 28.453125 69.015625 17.453125 C 78.179688 6.460938 83.84375 -8.515625 86 -27.484375 L 99.578125 -138.6875 C 101.085938 -150.113281 101.625 -158.734375 101.1875 -164.546875 C 100.757812 -170.367188 99.628906 -174.570312 97.796875 -177.15625 C 95.960938 -179.75 93.535156 -181.582031 90.515625 -182.65625 L 90.84375 -183.3125 C 100.332031 -184.175781 109.113281 -187.515625 117.1875 -193.328125 C 125.269531 -199.148438 131.363281 -206.375 135.46875 -215 C 121.457031 -215.851562 109.113281 -214.664062 98.4375 -211.4375 C 87.769531 -208.207031 78.828125 -203.894531 71.609375 -198.5 C 64.390625 -193.113281 58.945312 -187.507812 55.28125 -181.6875 C 51.613281 -175.875 49.78125 -170.703125 49.78125 -166.171875 C 49.78125 -161.648438 51.234375 -158.523438 54.140625 -156.796875 C 57.054688 -155.078125 60.289062 -154.753906 63.84375 -155.828125 C 67.40625 -156.910156 70.046875 -159.175781 71.765625 -162.625 C 69.609375 -150.769531 64.867188 -141.820312 57.546875 -135.78125 C 50.222656 -129.75 42.785156 -126.734375 35.234375 -126.734375 C 27.265625 -126.734375 21.125 -129.210938 16.8125 -134.171875 C 12.5 -139.128906 10.34375 -145.269531 10.34375 -152.59375 C 10.34375 -159.925781 12.601562 -167.738281 17.125 -176.03125 C 21.65625 -184.332031 28.660156 -192.203125 38.140625 -199.640625 C 47.628906 -207.078125 59.863281 -213.164062 74.84375 -217.90625 C 89.820312 -222.644531 107.765625 -225.015625 128.671875 -225.015625 C 134.273438 -225.015625 139.71875 -224.851562 145 -224.53125 C 150.28125 -224.207031 155.179688 -223.503906 159.703125 -222.421875 L 160.03125 -221.78125 C 153.5625 -219.625 148.816406 -215.582031 145.796875 -209.65625 C 142.785156 -203.726562 141.28125 -197.101562 141.28125 -189.78125 C 141.28125 -181.375 142.734375 -173.773438 145.640625 -166.984375 C 148.554688 -160.191406 152.164062 -153.671875 156.46875 -147.421875 C 160.78125 -141.171875 165.035156 -134.648438 169.234375 -127.859375 C 173.441406 -121.078125 177.054688 -113.535156 180.078125 -105.234375 C 183.097656 -96.929688 184.609375 -87.394531 184.609375 -76.625 L 217.25 -158.421875 C 219.40625 -163.585938 221.5625 -169.566406 223.71875 -176.359375 C 225.875 -183.148438 226.953125 -189.5625 226.953125 -195.59375 C 226.953125 -199.6875 226.25 -203.296875 224.84375 -206.421875 C 223.445312 -209.546875 220.914062 -211.863281 217.25 -213.375 L 217.25 -214.34375 L 278.03125 -214.34375 L 278.03125 -213.375 C 273.9375 -211.863281 271.023438 -209.003906 269.296875 -204.796875 C 267.578125 -200.597656 266.71875 -194.726562 266.71875 -187.1875 C 266.71875 -182.019531 267.039062 -175.878906 267.6875 -168.765625 L 282.5625 -18.75 C 283.851562 -5.601562 286.222656 4.578125 289.671875 11.796875 C 293.117188 19.015625 297.863281 23.703125 303.90625 25.859375 L 303.90625 26.828125 L 237.625 26.828125 L 237.625 25.859375 C 243.226562 23.703125 247 19.015625 248.9375 11.796875 C 250.875 4.578125 251.195312 -5.601562 249.90625 -18.75 L 237.625 -143.546875 L 182.984375 -6.796875 L 179.109375 -7.109375 C 180.179688 -17.023438 179.101562 -26.289062 175.875 -34.90625 C 172.644531 -43.53125 168.390625 -52.046875 163.109375 -60.453125 C 157.828125 -68.859375 152.597656 -77.585938 147.421875 -86.640625 C 142.253906 -95.691406 138.050781 -105.390625 134.8125 -115.734375 C 131.582031 -126.085938 130.503906 -137.515625 131.578125 -150.015625 L 128.671875 -150.015625 C 126.515625 -131.472656 124.359375 -112.828125 122.203125 -94.078125 C 120.046875 -75.328125 117.785156 -56.578125 115.421875 -37.828125 C 113.265625 -20.148438 112.992188 -6.460938 114.609375 3.234375 C 116.222656 12.929688 120.265625 19.503906 126.734375 22.953125 L 122.203125 30.390625 C 115.304688 27.585938 107.976562 26.722656 100.21875 27.796875 L 100.21875 26.828125 C 100.21875 24.460938 99.410156 22.523438 97.796875 21.015625 C 96.179688 19.503906 94.1875 18.75 91.8125 18.75 C 89.65625 18.75 87.769531 19.503906 86.15625 21.015625 C 84.539062 22.523438 83.734375 24.460938 83.734375 26.828125 C 83.734375 28.554688 84.164062 29.957031 85.03125 31.03125 C 76.1875 33.832031 67.5625 37.117188 59.15625 40.890625 C 50.757812 44.671875 41.382812 46.5625 31.03125 46.5625 Z M 31.03125 46.5625 "/></g></g></g><g fill="#c3cc44" fill-opacity="1"><g transform="translate(287.945907, 298.770806)"><g><path d="M -14.21875 51.078125 C -22.84375 51.078125 -28.929688 49.191406 -32.484375 45.421875 C -36.046875 41.648438 -37.828125 37.71875 -37.828125 33.625 C -37.828125 28.664062 -36.425781 25 -33.625 22.625 C -30.820312 20.257812 -27.695312 19.078125 -24.25 19.078125 C -21.226562 19.078125 -18.585938 19.992188 -16.328125 21.828125 C -14.066406 23.660156 -12.9375 26.40625 -12.9375 30.0625 C -12.9375 32.65625 -13.90625 35.242188 -15.84375 37.828125 C -14.757812 38.253906 -13.570312 38.519531 -12.28125 38.625 C -10.988281 38.738281 -9.804688 38.796875 -8.734375 38.796875 C 4.628906 38.796875 16.914062 33.515625 28.125 22.953125 C 39.332031 12.390625 47.738281 -1.941406 53.34375 -20.046875 C 40.84375 -22.628906 30.65625 -26.882812 22.78125 -32.8125 C 14.914062 -38.738281 10.984375 -45.472656 10.984375 -53.015625 C 10.984375 -59.910156 13.785156 -66.050781 19.390625 -71.4375 C 24.992188 -76.832031 32.484375 -81.414062 41.859375 -85.1875 C 51.242188 -88.957031 61.644531 -91.597656 73.0625 -93.109375 L 97.640625 -183.625 C 99.578125 -191.601562 100.867188 -197.859375 101.515625 -202.390625 L 94.078125 -202.390625 C 86.960938 -202.390625 80.550781 -200.070312 74.84375 -195.4375 C 69.132812 -190.800781 65.09375 -184.492188 62.71875 -176.515625 L 61.421875 -176.84375 L 67.25 -224.375 C 68.101562 -223.507812 69.769531 -222.859375 72.25 -222.421875 C 74.726562 -221.992188 77.476562 -221.78125 80.5 -221.78125 L 173.609375 -221.78125 C 176.628906 -221.78125 179.378906 -221.992188 181.859375 -222.421875 C 184.335938 -222.859375 186.003906 -223.507812 186.859375 -224.375 L 192.6875 -176.84375 L 191.390625 -176.515625 C 189.015625 -184.492188 184.972656 -190.800781 179.265625 -195.4375 C 173.554688 -200.070312 167.144531 -202.390625 160.03125 -202.390625 L 154.53125 -202.390625 C 154.96875 -200.015625 155.507812 -197.265625 156.15625 -194.140625 C 156.800781 -191.015625 157.660156 -187.507812 158.734375 -183.625 L 207.234375 -11.640625 C 210.898438 1.503906 214.238281 10.554688 217.25 15.515625 C 220.269531 20.472656 224.472656 23.816406 229.859375 25.546875 L 229.859375 26.515625 L 171.03125 26.515625 L 171.03125 25.546875 C 175.769531 23.816406 178.40625 20.203125 178.9375 14.703125 C 179.476562 9.210938 178.023438 0.429688 174.578125 -11.640625 L 170.375 -26.515625 L 163.59375 -50.75 C 157.125 -62.175781 147.476562 -70.53125 134.65625 -75.8125 C 121.832031 -81.09375 108.738281 -83.734375 95.375 -83.734375 L 80.171875 -27.796875 C 82.765625 -27.796875 86.109375 -28.007812 90.203125 -28.4375 C 94.296875 -28.875 98.5 -29.6875 102.8125 -30.875 C 107.125 -32.0625 110.734375 -33.734375 113.640625 -35.890625 C 116.546875 -38.046875 118 -40.847656 118 -44.296875 C 118 -47.304688 116.707031 -49.457031 114.125 -50.75 C 111.539062 -52.050781 109.0625 -52.703125 106.6875 -52.703125 C 103.664062 -52.703125 100.863281 -52.050781 98.28125 -50.75 C 100.863281 -56.351562 104.847656 -60.503906 110.234375 -63.203125 C 115.628906 -65.898438 121.019531 -67.25 126.40625 -67.25 C 132.007812 -67.25 136.96875 -65.898438 141.28125 -63.203125 C 145.59375 -60.503906 147.75 -56.570312 147.75 -51.40625 C 147.75 -45.15625 144.675781 -39.441406 138.53125 -34.265625 C 132.382812 -29.097656 124.140625 -25.003906 113.796875 -21.984375 C 103.453125 -18.960938 91.921875 -17.453125 79.203125 -17.453125 L 77.265625 -17.453125 C 74.460938 -4.953125 73.597656 4.957031 74.671875 12.28125 C 75.753906 19.613281 78.773438 24.785156 83.734375 27.796875 L 78.234375 35.234375 C 73.492188 32.648438 67.460938 31.789062 60.140625 32.65625 C 60.566406 29.632812 59.972656 27.421875 58.359375 26.015625 C 56.742188 24.617188 54.859375 23.921875 52.703125 23.921875 C 50.546875 23.921875 48.492188 24.726562 46.546875 26.34375 C 44.609375 27.957031 43.640625 30.273438 43.640625 33.296875 C 43.640625 34.585938 43.75 35.554688 43.96875 36.203125 C 34.695312 39.003906 25.316406 42.179688 15.828125 45.734375 C 6.347656 49.296875 -3.664062 51.078125 -14.21875 51.078125 Z M 42.671875 -55.609375 C 42.671875 -51.296875 44.015625 -47.253906 46.703125 -43.484375 C 49.398438 -39.710938 52.90625 -36.535156 57.21875 -33.953125 L 69.828125 -80.5 C 61.640625 -78.34375 55.066406 -75.054688 50.109375 -70.640625 C 45.148438 -66.222656 42.671875 -61.210938 42.671875 -55.609375 Z M 98.28125 -94.40625 C 108.414062 -94.1875 118.332031 -92.890625 128.03125 -90.515625 C 137.726562 -88.148438 146.78125 -84.597656 155.1875 -79.859375 L 124.140625 -189.78125 Z M 170.375 -26.1875 L 170.375 -26.515625 Z M 170.375 -26.1875 "/></g></g></g><g fill="#c3cc44" fill-opacity="1"><g transform="translate(492.590652, 298.770806)"><g><path d="M 45.265625 46.234375 C 35.347656 46.234375 28.179688 44.1875 23.765625 40.09375 C 19.347656 36 17.140625 31.796875 17.140625 27.484375 C 17.140625 23.171875 18.378906 19.878906 20.859375 17.609375 C 23.335938 15.347656 26.082031 14.21875 29.09375 14.21875 C 32.113281 14.21875 34.914062 15.1875 37.5 17.125 C 40.082031 19.070312 41.375 22.203125 41.375 26.515625 C 41.375 28.453125 40.835938 30.5 39.765625 32.65625 C 41.054688 33.082031 42.347656 33.347656 43.640625 33.453125 C 44.929688 33.566406 46.117188 33.625 47.203125 33.625 C 58.628906 33.625 67.628906 30.5 74.203125 24.25 C 80.773438 18 85.515625 10.1875 88.421875 0.8125 C 91.328125 -8.5625 92.78125 -18.097656 92.78125 -27.796875 L 92.78125 -127.0625 C 92.78125 -141.71875 92.296875 -152.707031 91.328125 -160.03125 C 90.359375 -167.363281 88.847656 -172.535156 86.796875 -175.546875 C 84.753906 -178.566406 82.007812 -180.722656 78.5625 -182.015625 L 78.5625 -182.65625 C 88.039062 -183.519531 97.144531 -186.859375 105.875 -192.671875 C 114.601562 -198.492188 120.476562 -205.71875 123.5 -214.34375 C 113.582031 -214.5625 103.828125 -213.484375 94.234375 -211.109375 C 84.648438 -208.742188 76.03125 -205.347656 68.375 -200.921875 C 60.726562 -196.503906 54.640625 -191.28125 50.109375 -185.25 C 45.585938 -179.21875 43.328125 -172.75 43.328125 -165.84375 C 43.328125 -161.96875 44.347656 -159.003906 46.390625 -156.953125 C 48.441406 -154.910156 50.867188 -153.890625 53.671875 -153.890625 C 56.035156 -153.890625 58.296875 -154.484375 60.453125 -155.671875 C 62.609375 -156.859375 64.441406 -158.957031 65.953125 -161.96875 C 65.523438 -152.050781 62.507812 -143.695312 56.90625 -136.90625 C 51.300781 -130.125 43.429688 -126.734375 33.296875 -126.734375 C 25.109375 -126.734375 18.316406 -129.476562 12.921875 -134.96875 C 7.535156 -140.46875 4.84375 -147.960938 4.84375 -157.453125 C 4.84375 -168.003906 8.078125 -177.429688 14.546875 -185.734375 C 21.015625 -194.035156 29.582031 -201.09375 40.25 -206.90625 C 50.914062 -212.726562 62.710938 -217.144531 75.640625 -220.15625 C 88.578125 -223.175781 101.515625 -224.6875 114.453125 -224.6875 C 126.085938 -224.6875 136.863281 -223.71875 146.78125 -221.78125 L 147.09375 -221.140625 C 139.769531 -217.253906 134.488281 -211.484375 131.25 -203.828125 C 128.019531 -196.179688 126.023438 -187.238281 125.265625 -177 C 124.515625 -166.757812 124.140625 -155.710938 124.140625 -143.859375 L 124.140625 -38.15625 C 124.140625 -20.476562 125.648438 -6.789062 128.671875 2.90625 C 131.691406 12.601562 136.648438 19.175781 143.546875 22.625 L 139.984375 30.0625 C 132.441406 27.257812 124.679688 26.398438 116.703125 27.484375 C 116.921875 25.109375 116.273438 23.054688 114.765625 21.328125 C 113.253906 19.609375 111.207031 18.75 108.625 18.75 C 103.238281 18.75 100.546875 21.660156 100.546875 27.484375 C 100.546875 28.773438 100.867188 29.957031 101.515625 31.03125 C 92.890625 33.832031 84 37.066406 74.84375 40.734375 C 65.6875 44.398438 55.828125 46.234375 45.265625 46.234375 Z M 45.265625 46.234375 "/></g></g></g><g fill="#c3cc44" fill-opacity="1"><g transform="translate(626.757359, 298.770806)"><g><path d="M 57.21875 84.0625 C 51.832031 84.0625 47.46875 82.226562 44.125 78.5625 C 40.789062 74.894531 39.125 70.367188 39.125 64.984375 C 39.125 58.734375 41.171875 52.050781 45.265625 44.9375 C 49.359375 37.820312 54.53125 30.816406 60.78125 23.921875 C 50.4375 17.671875 41.976562 9.425781 35.40625 -0.8125 C 28.832031 -11.050781 25.546875 -23.066406 25.546875 -36.859375 C 25.546875 -50.429688 28.722656 -62.015625 35.078125 -71.609375 C 41.429688 -81.203125 49.832031 -88.851562 60.28125 -94.5625 C 70.738281 -100.269531 81.894531 -104.097656 93.75 -106.046875 L 93.75 -127.703125 C 93.75 -141.066406 93.375 -151.460938 92.625 -158.890625 C 91.875 -166.328125 90.472656 -171.820312 88.421875 -175.375 C 86.367188 -178.9375 83.40625 -181.363281 79.53125 -182.65625 L 79.53125 -183.625 C 83.84375 -184.0625 89.226562 -185.410156 95.6875 -187.671875 C 102.15625 -189.929688 108.460938 -192.785156 114.609375 -196.234375 C 120.753906 -199.679688 125.332031 -203.023438 128.34375 -206.265625 L 129.3125 -205.609375 C 126.507812 -201.304688 125.109375 -188.914062 125.109375 -168.4375 L 125.109375 -106.6875 C 134.597656 -105.820312 144.191406 -103.554688 153.890625 -99.890625 C 163.585938 -96.234375 171.664062 -91.0625 178.125 -84.375 C 184.59375 -77.695312 187.828125 -68.96875 187.828125 -58.1875 C 187.828125 -50.863281 185.507812 -44.613281 180.875 -39.4375 C 176.25 -34.269531 170.164062 -31.6875 162.625 -31.6875 C 157.019531 -31.6875 152.222656 -33.515625 148.234375 -37.171875 C 144.242188 -40.835938 142.25 -45.582031 142.25 -51.40625 C 143.976562 -50.113281 145.703125 -49.46875 147.421875 -49.46875 C 150.648438 -49.46875 152.910156 -50.8125 154.203125 -53.5 C 155.503906 -56.195312 156.15625 -58.835938 156.15625 -61.421875 C 156.15625 -69.828125 152.867188 -76.398438 146.296875 -81.140625 C 139.722656 -85.890625 132.660156 -89.015625 125.109375 -90.515625 L 125.109375 -71.125 C 125.109375 -56.6875 125.59375 -45.691406 126.5625 -38.140625 C 127.539062 -30.597656 129.050781 -25.375 131.09375 -22.46875 C 133.144531 -19.5625 135.894531 -17.460938 139.34375 -16.171875 L 139.34375 -15.1875 C 130.289062 -13.6875 120.753906 -10.347656 110.734375 -5.171875 C 100.710938 0.00390625 91.601562 6.039062 83.40625 12.9375 C 94.613281 20.039062 107.222656 23.59375 121.234375 23.59375 C 136.535156 23.59375 149.953125 20.359375 161.484375 13.890625 C 173.015625 7.429688 182.601562 -1.289062 190.25 -12.28125 C 197.90625 -23.269531 203.671875 -35.660156 207.546875 -49.453125 C 211.429688 -63.253906 213.375 -77.484375 213.375 -92.140625 C 213.375 -107.441406 211.269531 -122.472656 207.0625 -137.234375 C 202.863281 -152.003906 196.507812 -165.367188 188 -177.328125 C 179.488281 -189.285156 168.875 -198.820312 156.15625 -205.9375 C 143.4375 -213.050781 128.5625 -216.609375 111.53125 -216.609375 C 99.25 -216.609375 87.9375 -214.664062 77.59375 -210.78125 C 67.25 -206.90625 58.953125 -201.734375 52.703125 -195.265625 C 46.453125 -188.804688 43.328125 -181.695312 43.328125 -173.9375 C 43.328125 -170.050781 44.296875 -166.867188 46.234375 -164.390625 C 48.171875 -161.910156 50.648438 -160.671875 53.671875 -160.671875 C 56.253906 -160.671875 58.675781 -161.476562 60.9375 -163.09375 C 63.207031 -164.71875 64.878906 -166.609375 65.953125 -168.765625 C 65.523438 -158.421875 62.1875 -149.957031 55.9375 -143.375 C 49.6875 -136.800781 41.925781 -133.515625 32.65625 -133.515625 C 24.46875 -133.515625 17.785156 -136.265625 12.609375 -141.765625 C 7.429688 -147.265625 4.84375 -154.320312 4.84375 -162.9375 C 4.84375 -172.632812 7.535156 -181.738281 12.921875 -190.25 C 18.316406 -198.769531 25.863281 -206.257812 35.5625 -212.71875 C 45.257812 -219.1875 56.519531 -224.253906 69.34375 -227.921875 C 82.164062 -231.585938 95.90625 -233.421875 110.5625 -233.421875 C 134.0625 -233.421875 154.539062 -229.539062 172 -221.78125 C 189.457031 -214.019531 203.894531 -203.507812 215.3125 -190.25 C 226.738281 -177 235.253906 -162.238281 240.859375 -145.96875 C 246.460938 -129.695312 249.265625 -112.941406 249.265625 -95.703125 C 249.265625 -78.671875 246.566406 -62.070312 241.171875 -45.90625 C 235.785156 -29.738281 227.757812 -15.132812 217.09375 -2.09375 C 206.425781 10.9375 193.222656 21.273438 177.484375 28.921875 C 161.753906 36.578125 143.546875 40.40625 122.859375 40.40625 C 113.585938 40.40625 104.265625 39.378906 94.890625 37.328125 C 85.515625 35.285156 76.726562 32.21875 68.53125 28.125 C 63.144531 35.238281 60.453125 41.488281 60.453125 46.875 C 60.453125 49.894531 61.207031 52.160156 62.71875 53.671875 C 64.226562 55.179688 65.84375 55.9375 67.5625 55.9375 C 69.289062 55.9375 70.851562 55.179688 72.25 53.671875 C 73.65625 52.160156 74.359375 50.003906 74.359375 47.203125 C 75.429688 49.140625 76.128906 51.128906 76.453125 53.171875 C 76.773438 55.222656 76.9375 57.21875 76.9375 59.15625 C 76.9375 65.40625 75.265625 71.117188 71.921875 76.296875 C 68.585938 81.472656 63.6875 84.0625 57.21875 84.0625 Z M 57.546875 -36.203125 C 57.546875 -26.941406 59.320312 -18.484375 62.875 -10.828125 C 66.4375 -3.179688 71.234375 3.226562 77.265625 8.40625 C 79.203125 6.675781 81.140625 5.054688 83.078125 3.546875 C 85.023438 2.046875 87.078125 0.539062 89.234375 -0.96875 C 91.171875 -6.351562 92.40625 -12.332031 92.9375 -18.90625 C 93.476562 -25.476562 93.75 -30.921875 93.75 -35.234375 L 93.75 -88.90625 C 82.757812 -85.457031 73.976562 -79.046875 67.40625 -69.671875 C 60.832031 -60.296875 57.546875 -49.140625 57.546875 -36.203125 Z M 57.546875 -36.203125 "/></g></g></g><g fill="#c3cc44" fill-opacity="1"><g transform="translate(874.076769, 298.770806)"><g><path d="M 109.28125 42.03125 C 94.40625 42.03125 80.71875 39.925781 68.21875 35.71875 C 55.71875 31.519531 44.941406 25.753906 35.890625 18.421875 C 22.304688 30.921875 8.457031 41.210938 -5.65625 49.296875 C -19.769531 57.378906 -33.726562 61.421875 -47.53125 61.421875 C -57.007812 61.421875 -64.875 59.375 -71.125 55.28125 C -77.375 51.1875 -80.5 45.90625 -80.5 39.4375 C -80.5 33.832031 -78.179688 29.253906 -73.546875 25.703125 C -68.910156 22.148438 -63.253906 20.375 -56.578125 20.375 C -53.347656 20.375 -50.0625 20.800781 -46.71875 21.65625 C -43.375 22.519531 -40.191406 23.707031 -37.171875 25.21875 C -39.972656 25 -42.289062 25.644531 -44.125 27.15625 C -45.957031 28.664062 -46.875 30.601562 -46.875 32.96875 C -46.875 35.5625 -45.796875 37.664062 -43.640625 39.28125 C -41.484375 40.894531 -38.679688 41.703125 -35.234375 41.703125 C -25.535156 41.703125 -15.242188 38.898438 -4.359375 33.296875 C 6.523438 27.691406 17.351562 20.253906 28.125 10.984375 C 21.226562 3.660156 15.835938 -4.738281 11.953125 -14.21875 C 8.078125 -23.707031 6.140625 -33.835938 6.140625 -44.609375 C 6.140625 -64.867188 10.9375 -81.734375 20.53125 -95.203125 C 30.125 -108.679688 42.351562 -119.300781 57.21875 -127.0625 C 49.675781 -132.664062 43.585938 -139.503906 38.953125 -147.578125 C 34.316406 -155.660156 32 -165.304688 32 -176.515625 C 32 -188.367188 34.851562 -198.660156 40.5625 -207.390625 C 46.28125 -216.117188 54.203125 -222.960938 64.328125 -227.921875 C 74.460938 -232.878906 86.320312 -235.359375 99.90625 -235.359375 C 110.03125 -235.359375 119.132812 -234.28125 127.21875 -232.125 C 135.300781 -229.96875 142.953125 -227.757812 150.171875 -225.5 C 157.390625 -223.238281 164.554688 -222.109375 171.671875 -222.109375 C 175.984375 -222.109375 179.863281 -223.1875 183.3125 -225.34375 L 183.953125 -224.375 C 176.410156 -212.300781 169.835938 -199.472656 164.234375 -185.890625 C 158.628906 -172.316406 153.023438 -158.847656 147.421875 -145.484375 C 152.378906 -145.265625 158.035156 -144.507812 164.390625 -143.21875 C 170.753906 -141.925781 176.304688 -139.878906 181.046875 -137.078125 C 185.785156 -134.273438 188.15625 -130.285156 188.15625 -125.109375 C 188.15625 -120.804688 186.269531 -117.304688 182.5 -114.609375 C 178.726562 -111.910156 174.09375 -109.804688 168.59375 -108.296875 C 163.101562 -106.796875 157.769531 -105.773438 152.59375 -105.234375 C 147.425781 -104.691406 143.332031 -104.421875 140.3125 -104.421875 C 138.375 -104.421875 136.429688 -104.421875 134.484375 -104.421875 C 132.546875 -104.421875 130.609375 -104.53125 128.671875 -104.75 C 126.515625 -100.65625 124.195312 -96.453125 121.71875 -92.140625 C 119.238281 -87.828125 116.492188 -83.300781 113.484375 -78.5625 C 117.359375 -80.28125 121.71875 -81.675781 126.5625 -82.75 C 131.414062 -83.832031 136.535156 -84.375 141.921875 -84.375 C 153.566406 -84.375 164.078125 -82.054688 173.453125 -77.421875 C 182.828125 -72.796875 190.207031 -66.332031 195.59375 -58.03125 C 200.976562 -49.726562 203.671875 -39.972656 203.671875 -28.765625 C 203.671875 -15.191406 199.578125 -3.070312 191.390625 7.59375 C 183.203125 18.257812 171.992188 26.664062 157.765625 32.8125 C 143.546875 38.957031 127.382812 42.03125 109.28125 42.03125 Z M 43.640625 -45.90625 C 43.640625 -33.1875 46.117188 -21.65625 51.078125 -11.3125 C 63.796875 -25.101562 75.8125 -40.242188 87.125 -56.734375 C 98.445312 -73.222656 108.304688 -89.660156 116.703125 -106.046875 C 110.242188 -106.898438 103.78125 -108.132812 97.3125 -109.75 C 90.84375 -111.375 84.484375 -113.367188 78.234375 -115.734375 C 67.671875 -107.984375 59.265625 -98.070312 53.015625 -86 C 46.765625 -73.925781 43.640625 -60.5625 43.640625 -45.90625 Z M 56.25 -2.265625 C 62.289062 6.359375 70.050781 13.148438 79.53125 18.109375 C 89.007812 23.066406 99.675781 25.546875 111.53125 25.546875 C 123.601562 25.546875 134.21875 23.171875 143.375 18.421875 C 152.539062 13.679688 159.707031 7.164062 164.875 -1.125 C 170.050781 -9.425781 172.640625 -18.96875 172.640625 -29.75 C 172.640625 -40.738281 170 -49.785156 164.71875 -56.890625 C 159.4375 -64.003906 152.378906 -67.5625 143.546875 -67.5625 C 138.804688 -67.5625 134.925781 -66.429688 131.90625 -64.171875 C 128.882812 -61.910156 127.375 -58.945312 127.375 -55.28125 C 127.375 -51.832031 128.664062 -49.140625 131.25 -47.203125 C 133.84375 -45.265625 136.972656 -44.722656 140.640625 -45.578125 C 138.046875 -42.128906 134.644531 -39.597656 130.4375 -37.984375 C 126.238281 -36.367188 121.988281 -35.5625 117.6875 -35.5625 C 112.9375 -35.5625 108.191406 -36.640625 103.453125 -38.796875 C 98.710938 -40.953125 95.476562 -44.289062 93.75 -48.8125 C 88.144531 -40.84375 82.21875 -32.976562 75.96875 -25.21875 C 69.71875 -17.457031 63.144531 -9.804688 56.25 -2.265625 Z M 66.59375 -177.484375 C 66.59375 -169.078125 68.101562 -161.585938 71.125 -155.015625 C 74.144531 -148.441406 78.132812 -142.675781 83.09375 -137.71875 C 91.28125 -140.09375 99.679688 -141.976562 108.296875 -143.375 C 116.921875 -144.78125 125.546875 -145.59375 134.171875 -145.8125 C 139.335938 -160.46875 141.921875 -173.289062 141.921875 -184.28125 C 141.921875 -195.050781 138.582031 -203.773438 131.90625 -210.453125 C 125.226562 -217.140625 116.5 -220.484375 105.71875 -220.484375 C 93.4375 -220.484375 83.84375 -216.226562 76.9375 -207.71875 C 70.039062 -199.207031 66.59375 -189.128906 66.59375 -177.484375 Z M 97.953125 -126.734375 C 105.285156 -123.066406 113.691406 -120.375 123.171875 -118.65625 C 124.460938 -121.238281 125.644531 -123.769531 126.71875 -126.25 C 127.800781 -128.726562 128.773438 -131.257812 129.640625 -133.84375 C 118.003906 -133.195312 107.441406 -130.828125 97.953125 -126.734375 Z M 135.140625 -117.359375 C 137.078125 -117.359375 139.878906 -117.519531 143.546875 -117.84375 C 147.210938 -118.164062 150.550781 -118.972656 153.5625 -120.265625 C 156.582031 -121.554688 158.09375 -123.492188 158.09375 -126.078125 C 158.09375 -128.671875 156.367188 -130.554688 152.921875 -131.734375 C 149.472656 -132.921875 146.023438 -133.625 142.578125 -133.84375 C 141.492188 -131.039062 140.304688 -128.289062 139.015625 -125.59375 C 137.722656 -122.90625 136.429688 -120.160156 135.140625 -117.359375 Z M 135.140625 -117.359375 "/></g></g></g><g fill="#c3cc44" fill-opacity="1"><g transform="translate(1071.609019, 298.770806)"><g><path d="M 45.265625 46.234375 C 35.347656 46.234375 28.179688 44.1875 23.765625 40.09375 C 19.347656 36 17.140625 31.796875 17.140625 27.484375 C 17.140625 23.171875 18.378906 19.878906 20.859375 17.609375 C 23.335938 15.347656 26.082031 14.21875 29.09375 14.21875 C 32.113281 14.21875 34.914062 15.1875 37.5 17.125 C 40.082031 19.070312 41.375 22.203125 41.375 26.515625 C 41.375 28.453125 40.835938 30.5 39.765625 32.65625 C 41.054688 33.082031 42.347656 33.347656 43.640625 33.453125 C 44.929688 33.566406 46.117188 33.625 47.203125 33.625 C 58.628906 33.625 67.628906 30.5 74.203125 24.25 C 80.773438 18 85.515625 10.1875 88.421875 0.8125 C 91.328125 -8.5625 92.78125 -18.097656 92.78125 -27.796875 L 92.78125 -127.0625 C 92.78125 -141.71875 92.296875 -152.707031 91.328125 -160.03125 C 90.359375 -167.363281 88.847656 -172.535156 86.796875 -175.546875 C 84.753906 -178.566406 82.007812 -180.722656 78.5625 -182.015625 L 78.5625 -182.65625 C 88.039062 -183.519531 96.765625 -186.859375 104.734375 -192.671875 C 112.710938 -198.492188 118.210938 -205.71875 121.234375 -214.34375 C 107.867188 -214.5625 95.257812 -212.566406 83.40625 -208.359375 C 71.550781 -204.160156 61.90625 -198.34375 54.46875 -190.90625 C 47.039062 -183.46875 43.328125 -175.113281 43.328125 -165.84375 C 43.328125 -161.96875 44.347656 -159.003906 46.390625 -156.953125 C 48.441406 -154.910156 50.867188 -153.890625 53.671875 -153.890625 C 56.035156 -153.890625 58.296875 -154.484375 60.453125 -155.671875 C 62.609375 -156.859375 64.441406 -158.957031 65.953125 -161.96875 C 65.523438 -152.050781 62.1875 -143.753906 55.9375 -137.078125 C 49.6875 -130.398438 42.140625 -126.953125 33.296875 -126.734375 C 25.109375 -126.515625 18.316406 -129.207031 12.921875 -134.8125 C 7.535156 -140.414062 4.84375 -147.960938 4.84375 -157.453125 C 4.84375 -168.003906 7.96875 -177.429688 14.21875 -185.734375 C 20.46875 -194.035156 28.765625 -201.09375 39.109375 -206.90625 C 49.460938 -212.726562 60.992188 -217.144531 73.703125 -220.15625 C 86.421875 -223.175781 99.25 -224.6875 112.1875 -224.6875 C 123.820312 -224.6875 134.597656 -223.71875 144.515625 -221.78125 L 144.84375 -221.140625 C 139.019531 -218.984375 134.8125 -215.367188 132.21875 -210.296875 C 129.632812 -205.234375 128.34375 -199.898438 128.34375 -194.296875 C 128.34375 -184.390625 130.066406 -175.820312 133.515625 -168.59375 C 136.960938 -161.375 141.488281 -154.960938 147.09375 -149.359375 C 152.695312 -143.753906 158.675781 -138.3125 165.03125 -133.03125 C 171.394531 -127.75 177.539062 -121.984375 183.46875 -115.734375 C 189.394531 -109.484375 194.457031 -102.207031 198.65625 -93.90625 C 202.863281 -85.613281 205.507812 -75.648438 206.59375 -64.015625 L 208.203125 -64.015625 L 208.203125 -176.515625 C 208.203125 -188.585938 207.175781 -197.367188 205.125 -202.859375 C 203.082031 -208.359375 199.472656 -211.972656 194.296875 -213.703125 L 194.296875 -214.671875 L 251.203125 -214.671875 L 251.203125 -213.703125 C 246.023438 -211.972656 242.410156 -208.359375 240.359375 -202.859375 C 238.316406 -197.367188 237.296875 -188.585938 237.296875 -176.515625 L 237.296875 -19.078125 C 237.296875 -5.929688 238.640625 4.25 241.328125 11.46875 C 244.023438 18.695312 248.285156 23.390625 254.109375 25.546875 L 254.109375 26.515625 L 192.6875 26.515625 L 192.6875 25.546875 C 197.207031 23.816406 200.757812 19.878906 203.34375 13.734375 C 205.9375 7.597656 207.234375 0.21875 207.234375 -8.40625 C 207.234375 -19.1875 205.398438 -28.5625 201.734375 -36.53125 C 198.066406 -44.507812 193.269531 -51.625 187.34375 -57.875 C 181.414062 -64.125 175.054688 -70.210938 168.265625 -76.140625 C 161.484375 -82.066406 154.910156 -88.367188 148.546875 -95.046875 C 142.191406 -101.734375 136.804688 -109.441406 132.390625 -118.171875 C 127.972656 -126.898438 125.117188 -137.296875 123.828125 -149.359375 L 121.890625 -149.359375 L 121.890625 -38.15625 C 121.890625 -20.476562 123.394531 -6.789062 126.40625 2.90625 C 129.425781 12.601562 134.382812 19.175781 141.28125 22.625 L 137.71875 30.0625 C 130.175781 27.257812 122.421875 26.398438 114.453125 27.484375 C 114.660156 25.109375 114.007812 23.054688 112.5 21.328125 C 111 19.609375 108.953125 18.75 106.359375 18.75 C 100.972656 18.75 98.28125 21.660156 98.28125 27.484375 C 98.28125 28.773438 98.601562 29.957031 99.25 31.03125 C 90.625 33.832031 82.109375 37.066406 73.703125 40.734375 C 65.304688 44.398438 55.828125 46.234375 45.265625 46.234375 Z M 45.265625 46.234375 "/></g></g></g></g></g></svg>