<svg xmlns="http://www.w3.org/2000/svg" xmlns:xlink="http://www.w3.org/1999/xlink" width="4669" zoomAndPan="magnify" viewBox="0 0 3501.75 962.999993" height="1284" preserveAspectRatio="xMidYMid meet" version="1.0"><defs><g/></defs><g fill="#b6b8b6" fill-opacity="1"><g transform="translate(992.019761, 646.938183)"><g><path d="M 302.96875 1.203125 C 300.175781 1.203125 297.28125 1.300781 294.28125 1.5 C 291.28125 1.695312 288.378906 1.597656 285.578125 1.203125 C 279.179688 1.203125 273.984375 0.398438 269.984375 -1.203125 C 260.785156 -4.398438 256.785156 -10.597656 257.984375 -19.796875 C 258.378906 -23.398438 259.378906 -26.800781 260.984375 -30 C 262.578125 -34 264.972656 -38.398438 268.171875 -43.203125 C 276.578125 -56.796875 282.175781 -70.890625 284.96875 -85.484375 C 287.769531 -100.085938 288.375 -115.191406 286.78125 -130.796875 C 285.582031 -141.585938 284.582031 -152.28125 283.78125 -162.875 C 282.976562 -173.476562 282.773438 -184.179688 283.171875 -194.984375 C 283.171875 -201.378906 282.972656 -207.675781 282.578125 -213.875 C 282.179688 -220.082031 281.582031 -226.382812 280.78125 -232.78125 C 280.375 -237.976562 280.070312 -243.078125 279.875 -248.078125 C 279.675781 -253.078125 279.578125 -258.175781 279.578125 -263.375 C 279.179688 -277.78125 277.378906 -291.179688 274.171875 -303.578125 C 273.773438 -305.972656 273.078125 -308.46875 272.078125 -311.0625 C 271.078125 -313.664062 269.773438 -315.96875 268.171875 -317.96875 C 265.773438 -321.175781 263.078125 -322.675781 260.078125 -322.46875 C 257.078125 -322.269531 254.78125 -320.570312 253.1875 -317.375 C 251.1875 -314.175781 249.984375 -310.773438 249.578125 -307.171875 C 247.578125 -297.972656 245.976562 -289.175781 244.78125 -280.78125 C 244.382812 -275.582031 243.882812 -270.378906 243.28125 -265.171875 C 242.675781 -259.972656 241.976562 -254.976562 241.1875 -250.1875 C 240.78125 -245.382812 240.375 -240.78125 239.96875 -236.375 C 239.570312 -231.976562 239.578125 -227.582031 239.984375 -223.1875 C 240.378906 -209.988281 238.175781 -197.785156 233.375 -186.578125 C 229.78125 -177.378906 227.179688 -168.082031 225.578125 -158.6875 C 223.984375 -149.289062 222.984375 -139.59375 222.578125 -129.59375 C 222.578125 -125.59375 222.675781 -121.488281 222.875 -117.28125 C 223.082031 -113.082031 223.582031 -108.785156 224.375 -104.390625 C 225.175781 -101.992188 225.578125 -99.394531 225.578125 -96.59375 C 226.378906 -86.59375 221.78125 -79.789062 211.78125 -76.1875 C 203.382812 -73.394531 193.785156 -73.394531 182.984375 -76.1875 C 172.179688 -78.988281 164.179688 -85.789062 158.984375 -96.59375 C 150.179688 -114.1875 142.28125 -132.179688 135.28125 -150.578125 C 128.289062 -168.984375 124.394531 -188.1875 123.59375 -208.1875 C 123.1875 -219.78125 121.882812 -231.375 119.6875 -242.96875 C 117.488281 -254.570312 114.390625 -265.773438 110.390625 -276.578125 C 108.785156 -280.578125 107.382812 -284.773438 106.1875 -289.171875 C 104.988281 -293.578125 103.585938 -297.976562 101.984375 -302.375 C 101.191406 -305.175781 100.191406 -307.875 98.984375 -310.46875 C 97.785156 -313.070312 95.988281 -315.175781 93.59375 -316.78125 C 89.195312 -320.375 85.195312 -320.171875 81.59375 -316.171875 C 79.988281 -314.972656 78.6875 -313.472656 77.6875 -311.671875 C 76.6875 -309.867188 75.988281 -307.96875 75.59375 -305.96875 C 65.195312 -273.976562 61.796875 -242.179688 65.390625 -210.578125 C 66.191406 -203.785156 66.59375 -197.1875 66.59375 -190.78125 C 66.59375 -184.382812 66.191406 -177.988281 65.390625 -171.59375 C 64.191406 -160.382812 64.394531 -149.179688 66 -137.984375 C 66.789062 -133.585938 67.488281 -128.988281 68.09375 -124.1875 C 68.695312 -119.382812 69.394531 -114.785156 70.1875 -110.390625 C 71.394531 -97.585938 75.597656 -85.789062 82.796875 -75 C 86.390625 -69.394531 90.085938 -63.789062 93.890625 -58.1875 C 97.691406 -52.59375 101.789062 -47.394531 106.1875 -42.59375 C 108.1875 -40.195312 110.085938 -37.894531 111.890625 -35.6875 C 113.691406 -33.488281 115.191406 -30.992188 116.390625 -28.203125 C 120.390625 -18.203125 117.390625 -11.398438 107.390625 -7.796875 C 105.785156 -6.992188 104.585938 -6.59375 103.796875 -6.59375 C 93.796875 -5.394531 83.894531 -4.394531 74.09375 -3.59375 C 64.289062 -2.800781 54.390625 -3.40625 44.390625 -5.40625 C 41.191406 -6.195312 38.191406 -7.195312 35.390625 -8.40625 C 27.390625 -11.601562 22.191406 -17.203125 19.796875 -25.203125 C 18.992188 -28.796875 18.394531 -31.992188 18 -34.796875 C 16.800781 -45.191406 16 -55.789062 15.59375 -66.59375 C 15.195312 -77.394531 16 -88.195312 18 -99 C 19.195312 -105.394531 19.992188 -111.789062 20.390625 -118.1875 C 20.796875 -124.59375 21.195312 -130.992188 21.59375 -137.390625 C 22.394531 -150.191406 23.296875 -162.988281 24.296875 -175.78125 C 25.296875 -188.582031 26.195312 -201.382812 27 -214.1875 C 27 -216.1875 27.195312 -218.285156 27.59375 -220.484375 C 28 -222.679688 28.398438 -224.976562 28.796875 -227.375 C 29.992188 -232.976562 30.890625 -238.679688 31.484375 -244.484375 C 32.085938 -250.285156 32.390625 -256.179688 32.390625 -262.171875 C 32.796875 -271.378906 33.597656 -280.679688 34.796875 -290.078125 C 35.992188 -299.472656 37.191406 -308.769531 38.390625 -317.96875 C 39.992188 -330.769531 38.597656 -343.570312 34.203125 -356.375 C 32.597656 -361.175781 30.992188 -366.078125 29.390625 -371.078125 C 27.796875 -376.078125 26.195312 -380.972656 24.59375 -385.765625 C 23.789062 -387.765625 23.085938 -389.863281 22.484375 -392.0625 C 21.890625 -394.269531 21.59375 -396.570312 21.59375 -398.96875 C 21.195312 -407.363281 25 -413.363281 33 -416.96875 C 35.394531 -417.769531 37.789062 -418.367188 40.1875 -418.765625 C 42.59375 -419.171875 44.992188 -419.375 47.390625 -419.375 C 51.796875 -419.769531 56.097656 -419.765625 60.296875 -419.359375 C 64.492188 -418.960938 68.789062 -418.363281 73.1875 -417.5625 C 79.1875 -416.769531 85.285156 -415.875 91.484375 -414.875 C 97.691406 -413.875 103.992188 -412.769531 110.390625 -411.5625 C 126.785156 -408.769531 137.1875 -399.375 141.59375 -383.375 C 144.382812 -373.375 147.476562 -363.375 150.875 -353.375 C 154.28125 -343.375 157.382812 -333.375 160.1875 -323.375 C 162.988281 -313.375 165.488281 -303.375 167.6875 -293.375 C 169.882812 -283.375 172.382812 -273.375 175.1875 -263.375 C 175.988281 -258.976562 177.085938 -254.679688 178.484375 -250.484375 C 179.878906 -246.285156 181.179688 -241.984375 182.390625 -237.578125 C 183.179688 -235.179688 184.179688 -232.582031 185.390625 -229.78125 C 186.984375 -226.976562 188.976562 -225.578125 191.375 -225.578125 C 193.78125 -225.578125 195.984375 -226.976562 197.984375 -229.78125 C 200.785156 -234.175781 202.585938 -239.175781 203.390625 -244.78125 C 205.390625 -256.78125 207.390625 -268.878906 209.390625 -281.078125 C 211.390625 -293.273438 212.390625 -305.570312 212.390625 -317.96875 C 212.390625 -327.570312 213.085938 -337.171875 214.484375 -346.765625 C 215.878906 -356.367188 217.976562 -365.769531 220.78125 -374.96875 C 222.382812 -380.570312 224.484375 -385.769531 227.078125 -390.5625 C 229.679688 -395.363281 233.179688 -399.765625 237.578125 -403.765625 C 244.378906 -410.171875 251.78125 -413.570312 259.78125 -413.96875 C 268.175781 -413.96875 276.375 -414.066406 284.375 -414.265625 C 292.375 -414.460938 300.375 -414.5625 308.375 -414.5625 C 310.769531 -414.5625 312.96875 -414.363281 314.96875 -413.96875 C 326.570312 -411.96875 331.773438 -404.96875 330.578125 -392.96875 C 330.578125 -391.769531 330.578125 -390.96875 330.578125 -390.5625 C 326.578125 -378.164062 324.675781 -365.769531 324.875 -353.375 C 325.070312 -340.976562 324.972656 -328.378906 324.578125 -315.578125 C 324.578125 -312.773438 324.675781 -309.972656 324.875 -307.171875 C 325.070312 -304.367188 324.972656 -301.367188 324.578125 -298.171875 C 323.773438 -282.972656 324.570312 -268.070312 326.96875 -253.46875 C 329.375 -238.875 332.773438 -224.179688 337.171875 -209.390625 C 340.773438 -196.179688 343.773438 -182.675781 346.171875 -168.875 C 348.566406 -155.082031 350.367188 -141.390625 351.578125 -127.796875 C 352.367188 -116.585938 353.765625 -106.382812 355.765625 -97.1875 C 357.367188 -88.789062 358.671875 -80.390625 359.671875 -71.984375 C 360.671875 -63.585938 360.972656 -54.992188 360.578125 -46.203125 C 360.171875 -32.203125 355.566406 -20 346.765625 -9.59375 C 340.773438 -2.394531 333.378906 1.203125 324.578125 1.203125 C 320.972656 1.597656 317.367188 1.695312 313.765625 1.5 C 310.171875 1.300781 306.570312 1.203125 302.96875 1.203125 Z M 302.96875 1.203125 "/></g></g></g><g fill="#b6b8b6" fill-opacity="1"><g transform="translate(1393.390504, 646.938183)"><g><path d="M 37.203125 -417.5625 C 39.992188 -417.5625 45.289062 -417.5625 53.09375 -417.5625 C 60.894531 -417.5625 68.894531 -417.660156 77.09375 -417.859375 C 85.289062 -418.066406 91.390625 -418.367188 95.390625 -418.765625 C 98.191406 -418.765625 100.988281 -418.863281 103.78125 -419.0625 C 106.582031 -419.269531 109.585938 -419.375 112.796875 -419.375 C 123.992188 -419.375 135.191406 -419.472656 146.390625 -419.671875 C 157.585938 -419.867188 168.785156 -419.96875 179.984375 -419.96875 C 184.378906 -419.96875 188.773438 -419.867188 193.171875 -419.671875 C 197.578125 -419.472656 201.984375 -418.769531 206.390625 -417.5625 C 223.179688 -412.769531 232.976562 -402.171875 235.78125 -385.765625 C 236.582031 -380.972656 237.484375 -376.175781 238.484375 -371.375 C 239.484375 -366.570312 240.582031 -361.769531 241.78125 -356.96875 C 242.582031 -354.164062 242.984375 -351.460938 242.984375 -348.859375 C 242.984375 -346.265625 242.582031 -343.769531 241.78125 -341.375 C 240.582031 -338.570312 238.78125 -336.570312 236.375 -335.375 C 233.976562 -334.175781 231.378906 -334.375 228.578125 -335.96875 C 226.984375 -337.175781 225.382812 -338.378906 223.78125 -339.578125 C 222.175781 -340.773438 220.578125 -342.171875 218.984375 -343.765625 C 215.378906 -346.972656 211.773438 -350.273438 208.171875 -353.671875 C 204.578125 -357.066406 200.984375 -360.367188 197.390625 -363.578125 C 183.390625 -375.171875 167.390625 -378.769531 149.390625 -374.375 C 140.191406 -371.96875 131.59375 -368.460938 123.59375 -363.859375 C 115.59375 -359.265625 108.390625 -353.367188 101.984375 -346.171875 C 97.585938 -340.578125 94.085938 -334.78125 91.484375 -328.78125 C 88.890625 -322.78125 87.59375 -316.378906 87.59375 -309.578125 C 87.59375 -305.972656 87.691406 -302.472656 87.890625 -299.078125 C 88.085938 -295.679688 88.1875 -292.378906 88.1875 -289.171875 C 88.59375 -283.578125 89.992188 -278.378906 92.390625 -273.578125 C 97.992188 -263.984375 105.992188 -260.984375 116.390625 -264.578125 C 118.785156 -265.773438 120.984375 -267.070312 122.984375 -268.46875 C 124.984375 -269.875 126.785156 -271.378906 128.390625 -272.984375 C 133.585938 -276.984375 138.785156 -280.679688 143.984375 -284.078125 C 149.179688 -287.472656 154.78125 -290.375 160.78125 -292.78125 C 163.1875 -293.582031 165.785156 -294.378906 168.578125 -295.171875 C 171.378906 -295.972656 174.382812 -296.375 177.59375 -296.375 C 185.1875 -296.375 191.179688 -293.773438 195.578125 -288.578125 C 201.179688 -282.179688 205.984375 -275.28125 209.984375 -267.875 C 213.984375 -260.476562 216.984375 -252.582031 218.984375 -244.1875 C 220.179688 -240.1875 220.582031 -235.1875 220.1875 -229.1875 C 219.382812 -218.382812 213.382812 -214.179688 202.1875 -216.578125 C 200.1875 -216.984375 198.082031 -217.582031 195.875 -218.375 C 193.675781 -219.175781 191.578125 -220.175781 189.578125 -221.375 C 184.785156 -223.375 179.890625 -224.773438 174.890625 -225.578125 C 169.890625 -226.378906 164.789062 -226.78125 159.59375 -226.78125 C 153.1875 -226.78125 147.179688 -225.78125 141.578125 -223.78125 C 135.984375 -221.78125 130.585938 -219.179688 125.390625 -215.984375 C 115.785156 -209.585938 109.382812 -201.1875 106.1875 -190.78125 C 104.988281 -186.78125 103.890625 -182.878906 102.890625 -179.078125 C 101.890625 -175.285156 101.191406 -171.390625 100.796875 -167.390625 C 99.597656 -157.785156 98.894531 -148.285156 98.6875 -138.890625 C 98.488281 -129.492188 98.789062 -120.191406 99.59375 -110.984375 C 100.789062 -96.585938 105.390625 -85.085938 113.390625 -76.484375 C 121.390625 -67.890625 131.585938 -60.796875 143.984375 -55.203125 C 151.585938 -51.597656 160.585938 -51.691406 170.984375 -55.484375 C 181.378906 -59.285156 188.378906 -64.585938 191.984375 -71.390625 C 195.179688 -76.992188 196.679688 -82.492188 196.484375 -87.890625 C 196.285156 -93.296875 194.984375 -98.796875 192.578125 -104.390625 C 191.378906 -106.785156 189.976562 -109.179688 188.375 -111.578125 C 186.78125 -113.984375 184.984375 -116.390625 182.984375 -118.796875 C 181.785156 -119.992188 180.585938 -121.289062 179.390625 -122.6875 C 178.191406 -124.09375 177.191406 -125.59375 176.390625 -127.1875 C 172.390625 -134.789062 174.390625 -140.191406 182.390625 -143.390625 C 183.984375 -144.191406 185.378906 -144.59375 186.578125 -144.59375 C 192.984375 -145.382812 199.582031 -146.179688 206.375 -146.984375 C 213.175781 -147.785156 219.78125 -147.988281 226.1875 -147.59375 C 227.382812 -147.1875 228.78125 -146.984375 230.375 -146.984375 C 238.78125 -145.390625 244.679688 -142.789062 248.078125 -139.1875 C 251.484375 -135.59375 253.785156 -129.796875 254.984375 -121.796875 C 256.179688 -114.585938 256.976562 -107.582031 257.375 -100.78125 C 257.78125 -93.988281 257.382812 -86.992188 256.1875 -79.796875 C 255.78125 -75.390625 255.875 -70.785156 256.46875 -65.984375 C 257.070312 -61.191406 257.773438 -56.597656 258.578125 -52.203125 C 258.984375 -48.992188 259.285156 -45.789062 259.484375 -42.59375 C 259.679688 -39.394531 259.976562 -36.394531 260.375 -33.59375 C 260.375 -26.394531 258.773438 -20.492188 255.578125 -15.890625 C 252.378906 -11.296875 247.78125 -7.597656 241.78125 -4.796875 C 238.976562 -3.203125 236.078125 -2.101562 233.078125 -1.5 C 230.078125 -0.894531 226.976562 -0.59375 223.78125 -0.59375 C 217.78125 -0.195312 211.878906 0.296875 206.078125 0.890625 C 200.285156 1.492188 194.585938 1.597656 188.984375 1.203125 C 179.785156 0.796875 170.585938 0.492188 161.390625 0.296875 C 152.191406 0.0976562 142.992188 0.398438 133.796875 1.203125 C 131.390625 1.597656 128.984375 1.492188 126.578125 0.890625 C 124.179688 0.296875 121.785156 -0.195312 119.390625 -0.59375 C 112.191406 -1.800781 105.191406 -2.503906 98.390625 -2.703125 C 91.585938 -2.898438 84.585938 -3 77.390625 -3 C 70.992188 -3 64.394531 -2.898438 57.59375 -2.703125 C 50.789062 -2.503906 43.992188 -2.40625 37.203125 -2.40625 C 35.203125 -2.40625 33.203125 -2.503906 31.203125 -2.703125 C 29.203125 -2.898438 27.203125 -3.195312 25.203125 -3.59375 C 16.398438 -5.59375 12.597656 -11.394531 13.796875 -21 C 14.203125 -23 14.800781 -25 15.59375 -27 C 16.394531 -28.59375 17.09375 -30.085938 17.6875 -31.484375 C 18.289062 -32.890625 18.992188 -34.394531 19.796875 -36 C 25.796875 -46.394531 30.09375 -57.191406 32.6875 -68.390625 C 35.289062 -79.585938 36.796875 -90.988281 37.203125 -102.59375 C 37.597656 -115.394531 37.796875 -127.992188 37.796875 -140.390625 C 37.796875 -152.785156 37.597656 -165.382812 37.203125 -178.1875 C 37.203125 -180.1875 37 -181.382812 36.59375 -181.78125 C 34.195312 -197.78125 32.894531 -213.679688 32.6875 -229.484375 C 32.488281 -245.285156 32.191406 -261.179688 31.796875 -277.171875 C 31.398438 -288.773438 30.898438 -300.375 30.296875 -311.96875 C 29.691406 -323.570312 29.59375 -335.171875 30 -346.765625 C 30 -353.171875 29.097656 -359.171875 27.296875 -364.765625 C 25.492188 -370.367188 22.992188 -375.96875 19.796875 -381.5625 C 18.597656 -383.5625 17.296875 -385.5625 15.890625 -387.5625 C 14.492188 -389.5625 13.394531 -391.765625 12.59375 -394.171875 C 10.195312 -399.765625 10.195312 -404.660156 12.59375 -408.859375 C 15 -413.066406 19.203125 -415.769531 25.203125 -416.96875 C 27.203125 -417.363281 29.203125 -417.460938 31.203125 -417.265625 C 33.203125 -417.066406 35.203125 -417.164062 37.203125 -417.5625 Z M 37.203125 -417.5625 "/></g></g></g><g fill="#b6b8b6" fill-opacity="1"><g transform="translate(1693.368662, 646.938183)"><g><path d="M 284.375 -152.984375 C 284.78125 -150.984375 285.082031 -148.78125 285.28125 -146.375 C 285.476562 -143.976562 285.578125 -141.382812 285.578125 -138.59375 C 285.578125 -136.1875 285.476562 -133.582031 285.28125 -130.78125 C 285.082031 -127.988281 284.582031 -125.191406 283.78125 -122.390625 C 282.976562 -116.785156 282.175781 -111.082031 281.375 -105.28125 C 280.570312 -99.488281 279.972656 -93.59375 279.578125 -87.59375 C 279.179688 -79.59375 276.78125 -71.992188 272.375 -64.796875 C 269.570312 -59.597656 266.570312 -54.394531 263.375 -49.1875 C 260.175781 -43.988281 257.175781 -38.789062 254.375 -33.59375 C 247.582031 -21.59375 237.1875 -13.59375 223.1875 -9.59375 C 205.1875 -4 187.585938 -0.398438 170.390625 1.203125 C 164.785156 2.003906 158.984375 2.003906 152.984375 1.203125 C 144.585938 0.00390625 136.289062 -0.492188 128.09375 -0.296875 C 119.894531 -0.0976562 111.59375 0.195312 103.1875 0.59375 C 79.59375 2.59375 56.394531 2.195312 33.59375 -0.59375 C 32.394531 -0.59375 31.09375 -0.691406 29.6875 -0.890625 C 28.289062 -1.097656 26.992188 -1.398438 25.796875 -1.796875 C 13.796875 -5.398438 9 -13.203125 11.40625 -25.203125 C 12.195312 -29.597656 13.394531 -33.394531 15 -36.59375 C 21 -47.789062 25 -56.585938 27 -62.984375 C 29 -69.390625 30.296875 -75.492188 30.890625 -81.296875 C 31.492188 -87.097656 32.394531 -94.597656 33.59375 -103.796875 C 34.789062 -113.390625 35.789062 -122.882812 36.59375 -132.28125 C 37.394531 -141.6875 37.796875 -151.390625 37.796875 -161.390625 C 37.796875 -164.984375 37.59375 -168.476562 37.1875 -171.875 C 36.789062 -175.28125 36.394531 -178.785156 36 -182.390625 C 34 -193.585938 33.796875 -205.1875 35.390625 -217.1875 C 36.597656 -225.1875 37.203125 -233.285156 37.203125 -241.484375 C 37.203125 -249.679688 36.800781 -257.78125 36 -265.78125 C 36 -267.78125 35.796875 -269.78125 35.390625 -271.78125 C 34.992188 -273.78125 34.796875 -275.78125 34.796875 -277.78125 C 35.191406 -288.175781 35.085938 -298.472656 34.484375 -308.671875 C 33.890625 -318.867188 33.191406 -328.96875 32.390625 -338.96875 C 31.597656 -346.96875 30.398438 -354.566406 28.796875 -361.765625 C 27.191406 -368.972656 24.191406 -375.972656 19.796875 -382.765625 C 17.796875 -386.367188 16.195312 -389.570312 15 -392.375 C 12.601562 -398.769531 12.703125 -404.164062 15.296875 -408.5625 C 17.898438 -412.96875 22.597656 -415.570312 29.390625 -416.375 C 35.390625 -417.164062 41.191406 -417.164062 46.796875 -416.375 C 55.992188 -415.164062 65.09375 -414.5625 74.09375 -414.5625 C 83.09375 -414.5625 92.191406 -415.164062 101.390625 -416.375 C 108.992188 -417.164062 116.492188 -417.460938 123.890625 -417.265625 C 131.285156 -417.066406 138.582031 -416.566406 145.78125 -415.765625 C 160.1875 -414.566406 172.988281 -410.566406 184.1875 -403.765625 C 195.382812 -396.960938 205.582031 -388.164062 214.78125 -377.375 C 216.382812 -375.769531 217.785156 -373.867188 218.984375 -371.671875 C 220.179688 -369.472656 221.179688 -367.171875 221.984375 -364.765625 C 224.785156 -359.972656 227.484375 -354.972656 230.078125 -349.765625 C 232.679688 -344.566406 235.382812 -339.171875 238.1875 -333.578125 C 238.976562 -331.972656 239.773438 -330.367188 240.578125 -328.765625 C 241.378906 -327.171875 241.976562 -325.570312 242.375 -323.96875 C 244.375 -317.570312 246.875 -311.171875 249.875 -304.765625 C 252.875 -298.367188 255.976562 -292.171875 259.1875 -286.171875 C 262.382812 -278.972656 264.878906 -271.675781 266.671875 -264.28125 C 268.472656 -256.882812 269.972656 -249.382812 271.171875 -241.78125 C 271.972656 -236.582031 272.773438 -231.179688 273.578125 -225.578125 C 274.378906 -219.984375 275.179688 -214.382812 275.984375 -208.78125 C 277.578125 -199.582031 279.070312 -190.28125 280.46875 -180.875 C 281.875 -171.476562 283.175781 -162.179688 284.375 -152.984375 Z M 93 -272.375 C 92.195312 -266.375 91.59375 -260.472656 91.1875 -254.671875 C 90.789062 -248.878906 90.59375 -242.984375 90.59375 -236.984375 C 90.988281 -231.785156 91.382812 -226.382812 91.78125 -220.78125 C 92.1875 -215.1875 92.59375 -209.585938 93 -203.984375 C 93.789062 -195.984375 94.488281 -188.082031 95.09375 -180.28125 C 95.695312 -172.488281 96.394531 -164.789062 97.1875 -157.1875 C 98.394531 -145.988281 100.195312 -135.085938 102.59375 -124.484375 C 104.988281 -113.890625 107.785156 -103.394531 110.984375 -93 C 112.585938 -87.394531 114.988281 -82.492188 118.1875 -78.296875 C 121.382812 -74.097656 124.984375 -70 128.984375 -66 C 132.984375 -62 138.679688 -59.195312 146.078125 -57.59375 C 153.484375 -56 160.984375 -56.097656 168.578125 -57.890625 C 176.179688 -59.691406 182.582031 -63.992188 187.78125 -70.796875 C 193.382812 -78.390625 196.984375 -85.988281 198.578125 -93.59375 C 199.378906 -96.789062 200.179688 -100.085938 200.984375 -103.484375 C 201.785156 -106.890625 202.585938 -110.191406 203.390625 -113.390625 C 207.390625 -124.992188 209.585938 -136.789062 209.984375 -148.78125 C 210.378906 -160.78125 209.976562 -172.78125 208.78125 -184.78125 C 208.382812 -191.1875 207.984375 -197.488281 207.578125 -203.6875 C 207.179688 -209.882812 207.179688 -216.179688 207.578125 -222.578125 C 207.578125 -226.578125 207.378906 -230.578125 206.984375 -234.578125 C 206.585938 -238.578125 205.785156 -242.578125 204.578125 -246.578125 C 202.984375 -252.179688 201.582031 -257.78125 200.375 -263.375 C 199.175781 -268.976562 197.976562 -274.78125 196.78125 -280.78125 C 195.582031 -289.582031 192.582031 -298.78125 187.78125 -308.375 C 184.976562 -313.976562 182.175781 -319.578125 179.375 -325.171875 C 176.582031 -330.773438 173.785156 -336.375 170.984375 -341.96875 C 170.179688 -343.96875 169.28125 -345.867188 168.28125 -347.671875 C 167.28125 -349.472656 166.179688 -351.171875 164.984375 -352.765625 C 155.390625 -365.566406 143.59375 -368.566406 129.59375 -361.765625 C 123.59375 -358.972656 118.289062 -355.273438 113.6875 -350.671875 C 109.09375 -346.066406 105.59375 -340.566406 103.1875 -334.171875 C 101.59375 -329.773438 100.191406 -325.273438 98.984375 -320.671875 C 97.785156 -316.078125 96.789062 -311.378906 96 -306.578125 C 95.59375 -300.972656 95.1875 -295.269531 94.78125 -289.46875 C 94.382812 -283.675781 93.789062 -277.976562 93 -272.375 Z M 93 -272.375 "/></g></g></g><g fill="#b6b8b6" fill-opacity="1"><g transform="translate(2011.94535, 646.938183)"><g><path d="M 93 -0.59375 C 90.195312 -0.59375 84.992188 -0.789062 77.390625 -1.1875 C 69.796875 -1.59375 62.296875 -1.894531 54.890625 -2.09375 C 47.492188 -2.300781 42.394531 -2.601562 39.59375 -3 C 37.59375 -3 35.691406 -3.097656 33.890625 -3.296875 C 32.097656 -3.492188 30.398438 -3.796875 28.796875 -4.203125 C 19.203125 -6.203125 15.40625 -12.203125 17.40625 -22.203125 C 17.800781 -24.597656 18.398438 -26.597656 19.203125 -28.203125 C 23.597656 -36.203125 26.394531 -44.5 27.59375 -53.09375 C 28.789062 -61.695312 29.789062 -70.394531 30.59375 -79.1875 C 31 -82.394531 31.203125 -85.597656 31.203125 -88.796875 C 30.796875 -101.191406 31.191406 -113.585938 32.390625 -125.984375 C 33.597656 -138.390625 34.597656 -150.988281 35.390625 -163.78125 C 35.796875 -172.582031 36 -181.582031 36 -190.78125 C 36 -199.976562 35.597656 -209.179688 34.796875 -218.390625 C 33.191406 -233.984375 31.988281 -249.578125 31.1875 -265.171875 C 30.394531 -280.773438 30.796875 -296.375 32.390625 -311.96875 C 33.597656 -320.769531 33.203125 -329.269531 31.203125 -337.46875 C 29.203125 -345.664062 26.800781 -353.96875 24 -362.375 C 22.800781 -365.96875 21.398438 -369.460938 19.796875 -372.859375 C 18.203125 -376.265625 16.800781 -379.769531 15.59375 -383.375 C 14.394531 -385.375 13.394531 -387.570312 12.59375 -389.96875 C 11.800781 -392.363281 11.40625 -394.765625 11.40625 -397.171875 C 11 -407.171875 15.597656 -413.570312 25.203125 -416.375 C 28.796875 -417.164062 32.59375 -417.5625 36.59375 -417.5625 C 43.789062 -417.164062 50.988281 -417.164062 58.1875 -417.5625 C 65.394531 -417.96875 72.597656 -418.570312 79.796875 -419.375 C 82.992188 -419.769531 86.09375 -419.96875 89.09375 -419.96875 C 92.09375 -419.96875 95.191406 -419.769531 98.390625 -419.375 C 102.390625 -419.375 105.789062 -418.570312 108.59375 -416.96875 C 116.1875 -412.570312 119.382812 -406.769531 118.1875 -399.5625 C 117.789062 -396.769531 117.289062 -393.875 116.6875 -390.875 C 116.09375 -387.875 115.394531 -384.972656 114.59375 -382.171875 C 112.59375 -376.171875 110.789062 -370.171875 109.1875 -364.171875 C 107.59375 -358.171875 106.394531 -352.171875 105.59375 -346.171875 C 103.59375 -330.578125 101.492188 -314.976562 99.296875 -299.375 C 97.097656 -283.78125 96.796875 -268.179688 98.390625 -252.578125 C 99.191406 -244.179688 98.59375 -235.179688 96.59375 -225.578125 C 95.394531 -217.179688 95.59375 -208.382812 97.1875 -199.1875 C 99.59375 -187.1875 99.992188 -174.785156 98.390625 -161.984375 C 97.191406 -148.785156 96.789062 -135.6875 97.1875 -122.6875 C 97.59375 -109.6875 98.195312 -96.789062 99 -84 C 99.394531 -74.789062 100.59375 -65.6875 102.59375 -56.6875 C 104.59375 -47.695312 107.789062 -39.203125 112.1875 -31.203125 C 113.382812 -28.796875 114.382812 -25.796875 115.1875 -22.203125 C 117.1875 -13.796875 114.1875 -7.59375 106.1875 -3.59375 C 104.1875 -2.394531 102.085938 -1.59375 99.890625 -1.1875 C 97.691406 -0.789062 95.394531 -0.59375 93 -0.59375 Z M 93 -0.59375 "/></g></g></g><g fill="#b6b8b6" fill-opacity="1"><g transform="translate(2172.733699, 646.938183)"><g><path d="M 61.1875 -416.375 C 73.1875 -417.164062 85.1875 -418.160156 97.1875 -419.359375 C 109.1875 -420.566406 120.585938 -420.769531 131.390625 -419.96875 C 151.785156 -420.769531 170.382812 -420.171875 187.1875 -418.171875 C 190.382812 -417.765625 193.679688 -417.5625 197.078125 -417.5625 C 200.484375 -417.5625 203.785156 -417.5625 206.984375 -417.5625 C 221.378906 -417.5625 232.976562 -411.5625 241.78125 -399.5625 C 247.78125 -391.5625 253.078125 -383.363281 257.671875 -374.96875 C 262.273438 -366.570312 265.773438 -357.375 268.171875 -347.375 C 270.578125 -337.375 273.175781 -327.375 275.96875 -317.375 C 278.769531 -307.375 281.570312 -297.578125 284.375 -287.984375 C 286.375 -280.378906 288.070312 -272.875 289.46875 -265.46875 C 290.875 -258.070312 291.976562 -250.578125 292.78125 -242.984375 C 293.175781 -239.378906 293.875 -235.875 294.875 -232.46875 C 295.875 -229.070312 296.972656 -225.578125 298.171875 -221.984375 C 299.378906 -219.179688 300.476562 -216.28125 301.46875 -213.28125 C 302.46875 -210.28125 303.367188 -207.179688 304.171875 -203.984375 C 306.171875 -195.585938 308.171875 -186.988281 310.171875 -178.1875 C 312.171875 -169.382812 314.171875 -160.582031 316.171875 -151.78125 C 318.578125 -143.382812 320.078125 -134.882812 320.671875 -126.28125 C 321.273438 -117.6875 321.773438 -108.988281 322.171875 -100.1875 C 322.171875 -94.1875 322.570312 -88.1875 323.375 -82.1875 C 324.175781 -76.1875 325.175781 -70.1875 326.375 -64.1875 C 327.976562 -57.789062 329.078125 -51.390625 329.671875 -44.984375 C 330.273438 -38.585938 329.976562 -31.992188 328.78125 -25.203125 C 326.375 -10.796875 318.375 -3.394531 304.78125 -3 C 295.175781 -2.601562 285.570312 -2.003906 275.96875 -1.203125 C 266.375 -0.398438 256.78125 0.597656 247.1875 1.796875 C 239.976562 2.597656 232.375 2 224.375 0 C 221.175781 -1.195312 218.378906 -2.597656 215.984375 -4.203125 C 211.585938 -7.796875 210.390625 -12.195312 212.390625 -17.40625 C 214.390625 -22.195312 216.585938 -25.992188 218.984375 -28.796875 C 226.578125 -37.992188 232.472656 -47.992188 236.671875 -58.796875 C 240.878906 -69.597656 244.582031 -80.597656 247.78125 -91.796875 C 250.976562 -102.191406 251.378906 -112.789062 248.984375 -123.59375 C 247.785156 -131.988281 246.582031 -140.285156 245.375 -148.484375 C 244.175781 -156.679688 243.175781 -164.78125 242.375 -172.78125 C 241.175781 -183.976562 238.375 -194.175781 233.96875 -203.375 C 229.570312 -212.582031 223.175781 -220.984375 214.78125 -228.578125 C 209.582031 -232.984375 203.984375 -236.484375 197.984375 -239.078125 C 191.984375 -241.679688 185.382812 -242.78125 178.1875 -242.375 C 173.789062 -241.976562 169.390625 -241.476562 164.984375 -240.875 C 160.585938 -240.28125 156.1875 -239.78125 151.78125 -239.375 C 145.78125 -238.175781 139.785156 -235.378906 133.796875 -230.984375 C 118.585938 -219.378906 105.585938 -205.78125 94.796875 -190.1875 C 88.796875 -181.789062 85.394531 -171.789062 84.59375 -160.1875 C 84.195312 -153.789062 83.796875 -147.289062 83.390625 -140.6875 C 82.992188 -134.09375 82.992188 -127.59375 83.390625 -121.1875 C 83.796875 -108.789062 86 -97.191406 90 -86.390625 C 94 -75.585938 100.394531 -65.585938 109.1875 -56.390625 C 112.382812 -52.796875 115.785156 -49.394531 119.390625 -46.1875 C 122.992188 -42.988281 126.59375 -39.59375 130.1875 -36 C 132.1875 -34 134.1875 -32.097656 136.1875 -30.296875 C 138.1875 -28.492188 139.988281 -26.59375 141.59375 -24.59375 C 145.59375 -19.394531 146.691406 -14.394531 144.890625 -9.59375 C 143.085938 -4.800781 138.988281 -1.800781 132.59375 -0.59375 C 123.789062 0.195312 115.1875 0.992188 106.78125 1.796875 C 98.382812 2.597656 89.988281 2.398438 81.59375 1.203125 C 74.789062 0.398438 67.59375 -0.195312 60 -0.59375 C 57.195312 -0.59375 54.492188 -0.789062 51.890625 -1.1875 C 49.296875 -1.59375 46.796875 -2.394531 44.390625 -3.59375 C 32.796875 -7.59375 25.195312 -15.191406 21.59375 -26.390625 C 19.195312 -33.992188 18.597656 -41.992188 19.796875 -50.390625 C 21.796875 -62.390625 23.394531 -74.289062 24.59375 -86.09375 C 25.789062 -97.894531 27.992188 -109.394531 31.203125 -120.59375 C 31.992188 -122.988281 32.585938 -125.285156 32.984375 -127.484375 C 33.390625 -129.691406 33.992188 -131.796875 34.796875 -133.796875 C 37.597656 -142.191406 39.894531 -150.6875 41.6875 -159.28125 C 43.488281 -167.882812 44.992188 -176.382812 46.203125 -184.78125 C 46.597656 -188.78125 47.195312 -192.378906 48 -195.578125 C 50.800781 -206.378906 53.597656 -217.179688 56.390625 -227.984375 C 59.191406 -238.785156 62.191406 -249.582031 65.390625 -260.375 C 66.992188 -266.375 68.394531 -272.273438 69.59375 -278.078125 C 70.789062 -283.878906 71.59375 -289.78125 72 -295.78125 C 73.195312 -306.570312 75.394531 -316.769531 78.59375 -326.375 C 81.394531 -334.375 82.195312 -343.171875 81 -352.765625 C 80.59375 -359.566406 78.191406 -365.769531 73.796875 -371.375 C 69.390625 -376.96875 64.085938 -379.566406 57.890625 -379.171875 C 51.691406 -378.773438 46.796875 -375.375 43.203125 -368.96875 C 42.398438 -367.375 41.695312 -365.773438 41.09375 -364.171875 C 40.5 -362.566406 39.800781 -360.96875 39 -359.375 C 38.59375 -358.175781 38.085938 -356.875 37.484375 -355.46875 C 36.890625 -354.070312 36.191406 -352.972656 35.390625 -352.171875 C 31.796875 -346.972656 27.398438 -345.972656 22.203125 -349.171875 C 13.398438 -354.367188 8.296875 -361.367188 6.890625 -370.171875 C 5.492188 -378.972656 7.394531 -386.570312 12.59375 -392.96875 C 17.394531 -399.363281 22.796875 -403.960938 28.796875 -406.765625 C 33.992188 -409.566406 39.289062 -411.765625 44.6875 -413.359375 C 50.09375 -414.960938 55.59375 -415.96875 61.1875 -416.375 Z M 194.984375 -298.78125 C 205.785156 -300.78125 210.984375 -307.378906 210.578125 -318.578125 C 210.578125 -323.773438 209.378906 -329.671875 206.984375 -336.265625 C 204.585938 -342.867188 201.785156 -348.171875 198.578125 -352.171875 C 197.378906 -353.773438 195.984375 -355.375 194.390625 -356.96875 C 184.390625 -366.164062 173.585938 -367.765625 161.984375 -361.765625 C 157.179688 -359.367188 152.976562 -356.367188 149.375 -352.765625 C 145.78125 -349.171875 142.1875 -345.375 138.59375 -341.375 C 132.59375 -335.375 127.988281 -328.472656 124.78125 -320.671875 C 121.582031 -312.867188 119.1875 -304.570312 117.59375 -295.78125 C 117.1875 -294.175781 117.1875 -292.375 117.59375 -290.375 C 117.988281 -283.570312 121.785156 -279.972656 128.984375 -279.578125 C 132.585938 -279.578125 135.988281 -280.378906 139.1875 -281.984375 C 143.582031 -283.984375 147.984375 -286.179688 152.390625 -288.578125 C 161.191406 -293.378906 170.191406 -295.976562 179.390625 -296.375 C 184.984375 -296.78125 190.179688 -297.582031 194.984375 -298.78125 Z M 194.984375 -298.78125 "/></g></g></g></svg>