<svg xmlns="http://www.w3.org/2000/svg" width="4669" height="1284" version="1.0" viewBox="0 0 3501.75 963"><path fill="#b6b8b6" d="M299.078 646.344h-24c-6.398 0-12.199-1-17.406-3-11.199-3.601-15.797-11.203-13.797-22.796.407-4 1.11-8.098 2.11-12.297 1-4.207 2.297-8.313 3.89-12.313 4.801-10.789 7.5-21.785 8.094-32.984.602-11.207.504-22.61-.297-34.203-.793-8.801-.793-17.602 0-26.407 1.602-16.394 1.602-32.992 0-49.796-2.398-21.594-2.996-43.586-1.797-65.985.801-18 .301-36-1.5-54-1.804-18-4.101-36-6.89-54-.407-2.8-1.11-5.398-2.11-7.797a68.07 68.07 0 0 1-2.687-7.797 23.755 23.755 0 0 1-2.11-3.89 79.28 79.28 0 0 0-2.093-4.516c-4-12 .394-19 13.187-21 1.207-.394 2.508-.594 3.906-.594H265.172c1.801 0 3.504-.195 5.11-.593a148.749 148.749 0 0 1 26.687-2.407c9 0 18.102.2 27.313.594h8.984c3.207 0 6.41-.394 9.61-1.187a196.328 196.328 0 0 1 28.78-1.5c9.602.199 19.208 1.093 28.813 2.687 13.195 2 25.598 2.203 37.203.61 7.196-.801 14.395-.399 21.594 1.203 6.394 1.593 10.789 3.996 13.187 7.203 2.407 3.199 3.805 7.996 4.204 14.39 0 2.399-.102 4.7-.297 6.907-.2 2.199-.297 4.297-.297 6.297-.399 11.593 1.004 22.793 4.203 33.593 3.195 10.399 5.797 21.594 7.797 33.594.8 4 1.597 8 2.39 12 .801 4 1.801 8 3 12 3.207 15.606-.59 29.203-11.39 40.797a148.845 148.845 0 0 1-21 19.5c-7.606 5.805-16.008 10.305-25.203 13.5a348.58 348.58 0 0 0-20.094 7.797 1880.676 1880.676 0 0 0-19.5 8.406c-3.2 1.2-5.797 2.398-7.797 3.594-5.605 3.199-10.008 7.199-13.203 12-3.2 4.804-4.398 10.601-3.594 17.39v12c-.804 8-5 12.403-12.594 13.204h-18c-11.199.398-17.199 5.996-18 16.796-.804 6.407-1.203 13.012-1.203 19.813 0 6.793.399 13.59 1.203 20.39.801 5.2 2 9.997 3.594 14.391 2.801 6.805 5.703 13.703 8.703 20.703 3 7 6.696 13.7 11.094 20.094.8 1.211 1.399 2.414 1.797 3.61 5.602 10 3.004 17-7.797 21-5.2 1.593-10.996 2.593-17.39 3h-24Zm18.594-303.578a764.329 764.329 0 0 1-1.5 20.688c-.594 7-1.094 14.304-1.5 21.906 0 10 1.801 21 5.406 33 2.801 9.2 8.801 11.797 18 7.797a25.61 25.61 0 0 0 6.594-3.297c2-1.406 4-2.906 6-4.5 10-6.8 19.5-14.203 28.5-22.203s18.098-16 27.297-24c4-3.594 7.195-7.39 9.594-11.39 5.195-9.602 8.492-19.407 9.89-29.407 1.407-10-.492-20.195-5.687-30.594 0-.8-.102-1.5-.297-2.093-.2-.602-.5-1.102-.906-1.5-4-9.207-9.805-15.91-17.406-20.11-7.594-4.195-15.793-5.797-24.594-4.797-8.793 1-16.79 4.7-23.985 11.094-6 6-11.402 12.5-16.203 19.5-4.804 7-9.203 14.305-13.203 21.906-3.594 6-5.594 12-6 18ZM587.647 230.563c12-.789 24-1.785 36-2.984 12-1.207 23.399-1.41 34.203-.61 20.395-.8 38.992-.203 55.797 1.797 3.195.407 6.492.61 9.89.61h9.907c14.394 0 25.992 6 34.797 18 6 8 11.297 16.199 15.89 24.593 4.602 8.399 8.102 17.594 10.5 27.594 2.407 10 5.004 20 7.797 30 2.801 10 5.602 19.797 8.407 29.39 2 7.606 3.695 15.11 5.093 22.516a276.207 276.207 0 0 1 3.313 22.485 60.682 60.682 0 0 0 2.094 10.515c1 3.399 2.097 6.891 3.296 10.485a106.934 106.934 0 0 1 3.297 8.703c1 3 1.899 6.101 2.703 9.297 2 8.398 4 16.996 6 25.797l6 26.406a123.127 123.127 0 0 1 4.5 25.5c.602 8.594 1.102 17.293 1.5 26.094 0 6 .399 12 1.204 18 .8 6 1.8 12 3 18a127.411 127.411 0 0 1 3.296 19.203c.602 6.398.305 12.992-.89 19.781-2.406 14.406-10.406 21.809-24 22.203-9.606.399-19.211.996-28.813 1.797-9.593.805-19.187 1.8-28.78 3-7.212.8-14.813.203-22.813-1.797-3.2-1.195-5.997-2.597-8.391-4.203-4.398-3.594-5.594-7.992-3.594-13.203 2-4.79 4.196-8.586 6.594-11.39 7.594-9.196 13.488-19.196 17.687-30 4.207-10.801 7.91-21.801 11.11-33 3.195-10.395 3.597-20.993 1.203-31.798a5896.25 5896.25 0 0 0-3.61-24.89c-1.199-8.196-2.199-16.297-3-24.297-1.199-11.195-4-21.395-8.406-30.594-4.398-9.207-10.793-17.61-19.187-25.203-5.2-4.406-10.797-7.906-16.797-10.5-6-2.602-12.602-3.703-19.797-3.297-4.398.399-8.797.899-13.203 1.5a314.472 314.472 0 0 1-13.203 1.5c-6 1.2-11.996 3.996-17.985 8.39-15.21 11.606-28.21 25.204-39 40.798-6 8.398-9.402 18.398-10.203 30-.398 6.398-.797 12.898-1.203 19.5a159.2 159.2 0 0 0 0 19.5c.406 12.398 2.61 23.996 6.61 34.797 4 10.804 10.394 20.804 19.187 30a123.274 123.274 0 0 0 10.203 10.203c3.602 3.199 7.203 6.593 10.797 10.187 2 2 4 3.903 6 5.703a49 49 0 0 1 5.406 5.703c4 5.2 5.098 10.2 3.297 15-1.804 4.793-5.902 7.793-12.297 9-8.804.79-17.406 1.586-25.812 2.391a106.4 106.4 0 0 1-25.188-.594c-6.804-.804-14-1.398-21.593-1.797-2.805 0-5.508-.195-8.11-.593a25.609 25.609 0 0 1-7.5-2.407c-11.594-4-19.195-11.597-22.797-22.796-2.398-7.602-2.996-15.602-1.797-24 2-12 3.598-23.899 4.797-35.704 1.196-11.8 3.399-23.3 6.61-34.5.789-2.394 1.383-4.691 1.781-6.89a32.748 32.748 0 0 1 1.812-6.313c2.801-8.394 5.098-16.89 6.891-25.484a409.956 409.956 0 0 0 4.516-25.5c.394-4 .992-7.598 1.797-10.797 2.8-10.8 5.597-21.602 8.39-32.406 2.801-10.801 5.801-21.598 9-32.39 1.602-6 3.004-11.9 4.203-17.704 1.196-5.8 2-11.703 2.407-17.703 1.195-10.79 3.394-20.988 6.593-30.594 2.801-8 3.602-16.797 2.407-26.39-.407-6.801-2.809-13.004-7.204-18.61-4.406-5.594-9.71-8.191-15.906-7.797-6.199.399-11.094 3.797-14.687 10.203a48.437 48.437 0 0 0-2.11 4.797 46.995 46.995 0 0 1-2.093 4.797c-.407 1.2-.914 2.5-1.516 3.906-.594 1.399-1.293 2.497-2.094 3.297-3.594 5.2-7.992 6.2-13.187 3-8.805-5.195-13.907-12.195-15.313-21-1.398-8.8.504-16.398 5.703-22.797 4.801-6.394 10.203-10.992 16.203-13.796 5.196-2.801 10.493-5 15.891-6.594a77.761 77.761 0 0 1 16.5-3.016Zm133.797 117.594c10.8-2 16-8.598 15.594-19.797 0-5.195-1.2-11.094-3.594-17.687-2.398-6.602-5.2-11.907-8.406-15.907a44.717 44.717 0 0 0-4.188-4.797c-10-9.195-20.804-10.796-32.406-4.796-4.805 2.398-9.008 5.398-12.61 9a293.604 293.604 0 0 0-10.78 11.39c-6 6-10.606 12.903-13.813 20.703-3.2 7.805-5.594 16.102-7.188 24.89-.406 1.606-.406 3.407 0 5.407.395 6.805 4.192 10.403 11.391 10.797 3.602 0 7.004-.8 10.203-2.406 4.395-2 8.797-4.196 13.203-6.594 8.801-4.8 17.801-7.398 27-7.797 5.594-.406 10.79-1.207 15.594-2.406ZM1077.22 647.532c-10-.79-19.804-1.086-29.406-.89-9.594.199-18.59.296-26.984.296a2622.22 2622.22 0 0 0-37.203-.89c-12-.207-23.797.09-35.391.89-13.605.801-25.21-3.797-34.812-13.797-4.399-4.8-6.594-10-6.594-15.593v-9.61c2-14 3.898-27.992 5.703-41.984 1.8-14 4.3-27.801 7.5-41.406.8-2 1.5-4.098 2.094-6.297.601-2.196 1.304-4.5 2.109-6.907 3.195-8.789 8.992-14.988 17.39-18.593 11.196-5.196 23-7.395 35.407-6.594 2.789.398 5.586.996 8.39 1.797 9.602 2.804 12.801 9 9.594 18.594-.398 2.398-1.093 4.593-2.093 6.593s-2.102 3.805-3.297 5.407c-3.606 6-5.809 12-6.61 18-.793 6-.789 12.199.016 18.593 2 17.2 10.195 29.797 24.594 37.797 8.394 4.406 17.593 5.914 27.593 4.516 10-1.406 18.399-5.305 25.204-11.703 5.195-4.801 9.195-9.801 12-15a120.007 120.007 0 0 0 3.296-7.203c1-2.407 2.098-4.805 3.297-7.204 10.395-23.195 9.992-45.992-1.203-68.39-2-4.406-3.902-8.805-5.703-13.203a181.33 181.33 0 0 0-5.687-12.594c-4.805-10-12.606-17.8-23.407-23.406-7.593-4-15.496-7.196-23.703-9.594a180.727 180.727 0 0 0-24.89-5.406c-9.2-1.594-18.399-.594-27.594 3a138.922 138.922 0 0 0-8.406 2.703c-2.805 1-5.602 1.902-8.391 2.703-13.606 3.2-23.406-1.8-29.406-15-1.594-3.195-2.996-7.395-4.203-12.594a175.057 175.057 0 0 1-2.094-22.797c-.2-7.601.3-15.207 1.5-22.812.8-3.196 1.5-6.395 2.094-9.594a311.963 311.963 0 0 1 2.109-10.203c5.594-25.988 6.39-52.582 2.39-79.781a38.179 38.179 0 0 1-.89-5.11c-.2-1.8-.297-3.703-.297-5.703.395-10.789 5.79-16.789 16.188-18 5.601-.789 11.406-.789 17.406 0 14.394 1.211 28.594 1.313 42.594.313s28-1.899 42-2.703h13.203c6.394.804 12.89 1.605 19.484 2.406 6.602.793 13.102 1.59 19.5 2.39 16 1.606 27.398 9.805 34.203 24.594 2 5.211 3.598 10.211 4.797 15 2.406 12.406 3.207 25.406 2.406 39-.804 16.399-9.402 26.2-25.797 29.406-5.199 1.2-10.5 1.5-15.906.907a85.942 85.942 0 0 1-15.89-3.313c-7.606-2-11.606-7.195-12-15.594 0-2 .195-3.898.593-5.703.407-1.8.61-3.504.61-5.11.394-2.394.789-4.89 1.187-7.483.406-2.602.406-5.102 0-7.5-.398-6.801-2.695-12.399-6.89-16.797-4.2-4.407-9.903-6.805-17.11-7.203-6.793-.801-13.39-.204-19.797 1.796-6.398 2-12.593 4.602-18.593 7.797-5.2 3.606-9.7 9.008-13.5 16.203-3.805 7.2-6.008 15-6.61 23.407-.594 8.398 1.11 15.793 5.11 22.187 4 6.805 9.195 12.203 15.593 16.203a900.885 900.885 0 0 0 35.703 22.188 348.397 348.397 0 0 0 37.5 19.203c9.196 4 17.594 8.805 25.188 14.406a310.994 310.994 0 0 1 22.203 17.985c5.195 4.804 9.797 10.406 13.797 16.812a50.007 50.007 0 0 0 4.203 7.797c1.602 2.398 3.203 4.797 4.797 7.203 6 8.398 10.297 17.293 12.89 26.688 2.602 9.398 4.11 19.093 4.516 29.093.395 4.407.492 9.012.297 13.813-.2 4.793-.297 9.59-.297 14.39 0 6-.805 12.2-2.406 18.594-2 7.606-4 15.406-6 23.406-2 8.399-5.402 16.094-10.203 23.094-4.793 7-10.39 13.305-16.797 18.906-2.399 2.399-5.094 4.297-8.094 5.704a51.717 51.717 0 0 1-9.297 3.296c-12 3.594-23.601 4.989-34.797 4.188ZM1309.995 227.563h9.594c6.406 0 11.61-.195 15.61-.594 10-.394 20.097-.492 30.296-.296 10.195.199 20.297.898 30.297 2.093 4.406.407 8.805.61 13.203.61h13.797c2.395 0 4.79.101 7.188.297 2.406.199 4.812.296 7.218.296 15.989 1.2 28.188 8.797 36.594 22.797 13.195 22 16.992 45.602 11.39 70.797-1.199 5.606-2.995 10.203-5.39 13.797-2.406 2.805-5.309 4.406-8.703 4.813-3.399.398-6.297-.805-8.703-3.61-2.399-2.394-4.594-5.195-6.594-8.406-1.2-2.79-2.5-5.688-3.906-8.688-1.399-3-2.696-5.898-3.89-8.703-2.407-5.601-5.513-10.906-9.313-15.906-3.793-5-8.09-9.695-12.891-14.094-3.2-3.195-6.602-5.195-10.203-6-8-2.394-15-.992-21 4.203-6.399 5.594-10.793 12.793-13.188 21.594-3.605 12-5.605 23.805-6 35.406-.406 7.2-.511 14.399-.312 21.594.207 7.2.707 14.399 1.5 21.594 1.207 9.605 1.207 19.008 0 28.203a120.908 120.908 0 0 0-1.5 14.703c-.2 4.992-.297 9.887-.297 14.688v25.515c0 8.594.203 17.09.61 25.485.788 10.804 1.687 21.507 2.687 32.11 1 10.593 3.101 21.089 6.312 31.483 2 7.606 3.797 15.211 5.391 22.813a240.202 240.202 0 0 0 6 22.781 114.681 114.681 0 0 1 3.297 8.703c1 3 1.898 6.102 2.703 9.297a75.619 75.619 0 0 0 1.5 5.11c.602 1.793.906 3.492.906 5.093.801 7.2-2.199 11.996-9 14.39-3.199 1.212-6.402 1.813-9.61 1.813-6 0-12.1.5-18.296 1.5-6.2 1-12.496 1.899-18.89 2.688-6 1.207-12.204 1.91-18.61 2.11-6.398.195-12.594.097-18.594-.298-6 0-11.199-1.203-15.593-3.609-9.2-4-12.797-10.797-10.797-20.39a46.016 46.016 0 0 1 1.797-7.204c.8-2.394 1.8-4.593 3-6.593a574.57 574.57 0 0 1 4.796-10.5 485.307 485.307 0 0 1 4.797-9.907c2.801-5.593 4.801-11.191 6-16.797 1.196-5.601 2-11.406 2.407-17.406 2-15.594 3-31.39 3-47.39v-47.391a348.7 348.7 0 0 0-.313-15c-.2-4.8-.496-9.602-.89-14.406a32.41 32.41 0 0 0-.297-4.485 27.945 27.945 0 0 1-.297-3.906c.789-11.602.882-23.406.28-35.406-.593-12-1.089-23.797-1.483-35.39 0-8.395-.805-16.692-2.407-24.891a249.47 249.47 0 0 0-6-24.313c-2-4.789-4-9.187-6-13.187-7.199-12-17.199-15.602-30-10.813-11.199 4.406-19.398 11.211-24.593 20.406a4390.4 4390.4 0 0 1-4.797 9.594c-1.606 3.2-3.203 6.402-4.797 9.61-2.406 5.593-5.406 9.992-9 13.187-7.606 6.406-14.203 5.406-19.797-3-2.406-4-4.008-9-4.797-15-.8-8.395-.602-16.39.594-23.984a126.908 126.908 0 0 1 2.094-15.313c1-5 1.898-10.098 2.703-15.297.8-6 2.8-11.394 6-16.187 5.195-8.407 12.195-13.407 21-15 4.8-.801 9.398-1.203 13.797-1.203 11.195-.407 23.394-.504 36.593-.297 13.196.199 23.797.093 31.797-.313ZM1999.948 493.954c.406 2 .707 4.203.906 6.61.195 2.398.297 4.991.297 7.78 0 2.407-.102 5.012-.297 7.813-.2 2.793-.7 5.59-1.5 8.39a3202.474 3202.474 0 0 0-2.406 17.11 245.67 245.67 0 0 0-1.797 17.687c-.399 8-2.797 15.602-7.203 22.797a323.559 323.559 0 0 1-9 15.61c-3.2 5.199-6.2 10.398-9 15.593-6.793 12-17.188 20-31.188 24-18 5.594-35.601 9.196-52.797 10.797-5.605.801-11.406.801-17.406 0-8.398-1.199-16.695-1.695-24.89-1.5-8.2.2-16.5.492-24.907.89-23.593 2-46.793 1.602-69.593-1.187-1.2 0-2.5-.097-3.907-.296a22.904 22.904 0 0 1-3.89-.907c-12-3.601-16.797-11.406-14.391-23.406.79-4.394 1.988-8.191 3.594-11.39 6-11.196 10-19.993 12-26.391 2-6.406 3.297-12.508 3.89-18.313.602-5.8 1.504-13.3 2.704-22.5a743.084 743.084 0 0 0 3-28.484c.8-9.406 1.203-19.11 1.203-29.11a88.25 88.25 0 0 0-.61-10.484c-.398-3.406-.793-6.91-1.187-10.515-2-11.196-2.203-22.797-.61-34.797 1.207-8 1.813-16.098 1.813-24.297 0-8.196-.402-16.297-1.203-24.297 0-2-.203-4-.61-6-.398-2-.593-4-.593-6 .394-10.395.289-20.691-.313-30.89a1397.39 1397.39 0 0 0-2.094-30.298c-.793-8-1.992-15.597-3.593-22.796-1.606-7.207-4.606-14.207-9-21-2-3.602-3.602-6.805-4.797-9.61-2.399-6.394-2.297-11.789.297-16.187 2.601-4.407 7.3-7.008 14.093-7.813 6-.789 11.801-.789 17.407 0a208.913 208.913 0 0 0 27.297 1.813c9 0 18.097-.602 27.296-1.813a173.418 173.418 0 0 1 22.5-.89c7.395.199 14.692.699 21.891 1.5 14.406 1.199 27.207 5.199 38.406 12 11.196 6.804 21.395 15.601 30.594 26.39 1.602 1.606 3.004 3.508 4.203 5.703 1.195 2.2 2.195 4.5 3 6.907 2.8 4.793 5.5 9.793 8.094 15 2.601 5.199 5.305 10.593 8.11 16.187.788 1.606 1.585 3.211 2.39 4.813a23.108 23.108 0 0 1 1.797 4.796c2 6.399 4.5 12.797 7.5 19.204a392.78 392.78 0 0 0 9.312 18.593c3.196 7.2 5.692 14.496 7.485 21.89 1.8 7.4 3.3 14.9 4.5 22.5.8 5.2 1.601 10.602 2.406 16.204.8 5.594 1.601 11.195 2.406 16.797 1.594 9.2 3.086 18.5 4.485 27.906a1494.877 1494.877 0 0 1 3.906 27.89Zm-191.375-119.39c-.805 6-1.406 11.902-1.813 17.702a257.735 257.735 0 0 0-.593 17.688c.394 5.199.789 10.601 1.187 16.203l1.219 16.797c.789 8 1.488 15.902 2.094 23.703a862.1 862.1 0 0 0 2.093 23.094c1.207 11.199 3.008 22.101 5.407 32.703a427.12 427.12 0 0 0 8.39 31.484c1.602 5.606 4.004 10.508 7.203 14.703 3.196 4.2 6.797 8.297 10.797 12.297 4 4 9.695 6.805 17.094 8.406 7.406 1.594 14.906 1.497 22.5-.296 7.601-1.801 14.004-6.102 19.203-12.907 5.602-7.593 9.203-15.191 10.797-22.797.8-3.195 1.601-6.492 2.406-9.89a657.66 657.66 0 0 1 2.406-9.906c4-11.602 6.196-23.399 6.594-35.391.395-12-.008-24-1.203-36-.398-6.406-.797-12.707-1.203-18.906a149.413 149.413 0 0 1 0-18.89c0-4-.2-8-.594-12-.398-4-1.2-8-2.406-12a267.8 267.8 0 0 1-4.203-16.798 1247.43 1247.43 0 0 1-3.594-17.406c-1.2-8.8-4.2-18-9-27.594-2.805-5.601-5.605-11.203-8.406-16.797-2.793-5.601-5.59-11.203-8.39-16.797-.806-2-1.704-3.898-2.704-5.703-1-1.8-2.102-3.5-3.297-5.093-9.594-12.801-21.39-15.801-35.39-9-6 2.793-11.305 6.492-15.907 11.093-4.593 4.606-8.093 10.106-10.5 16.5a155.189 155.189 0 0 0-4.203 13.5 155.837 155.837 0 0 0-2.984 14.094c-.406 5.606-.813 11.309-1.219 17.11a241.17 241.17 0 0 1-1.781 17.093ZM2098.937 230.563c12-.789 24-1.785 36-2.984 12-1.207 23.398-1.41 34.203-.61 20.394-.8 38.992-.203 55.797 1.797 3.195.407 6.492.61 9.89.61h9.907c14.394 0 25.992 6 34.796 18 6 8 11.297 16.199 15.891 24.593 4.602 8.399 8.102 17.594 10.5 27.594 2.406 10 5.004 20 7.797 30 2.8 10 5.602 19.797 8.406 29.39 2 7.606 3.696 15.11 5.094 22.516a276.207 276.207 0 0 1 3.312 22.485 60.682 60.682 0 0 0 2.094 10.515c1 3.399 2.098 6.891 3.297 10.485a106.934 106.934 0 0 1 3.297 8.703c1 3 1.898 6.101 2.703 9.297 2 8.398 4 16.996 6 25.797l6 26.406a123.127 123.127 0 0 1 4.5 25.5c.602 8.594 1.102 17.293 1.5 26.094 0 6 .399 12 1.203 18 .801 6 1.801 12 3 18a127.411 127.411 0 0 1 3.297 19.203c.602 6.398.305 12.992-.89 19.781-2.407 14.406-10.407 21.809-24 22.203-9.606.399-19.211.996-28.813 1.797-9.594.805-19.188 1.8-28.781 3-7.211.8-14.813.203-22.813-1.797-3.199-1.195-5.996-2.597-8.39-4.203-4.399-3.594-5.594-7.992-3.594-13.203 2-4.79 4.195-8.586 6.594-11.39 7.593-9.196 13.488-19.196 17.687-30 4.207-10.801 7.91-21.801 11.11-33 3.195-10.395 3.597-20.993 1.203-31.798a5896.25 5896.25 0 0 0-3.61-24.89c-1.199-8.196-2.199-16.297-3-24.297-1.199-11.195-4-21.395-8.406-30.594-4.398-9.207-10.793-17.61-19.188-25.203-5.199-4.406-10.796-7.906-16.796-10.5-6-2.602-12.602-3.703-19.797-3.297-4.399.399-8.797.899-13.203 1.5a314.472 314.472 0 0 1-13.204 1.5c-6 1.2-11.996 3.996-17.984 8.39-15.21 11.606-28.21 25.204-39 40.798-6 8.398-9.402 18.398-10.203 30-.398 6.398-.797 12.898-1.203 19.5a159.2 159.2 0 0 0 0 19.5c.406 12.398 2.61 23.996 6.61 34.797 4 10.804 10.394 20.804 19.187 30a123.274 123.274 0 0 0 10.203 10.203c3.601 3.199 7.203 6.593 10.797 10.187 2 2 4 3.903 6 5.703a49 49 0 0 1 5.406 5.703c4 5.2 5.098 10.2 3.297 15-1.805 4.793-5.903 7.793-12.297 9-8.805.79-17.406 1.586-25.813 2.391a106.4 106.4 0 0 1-25.187-.594c-6.805-.804-14-1.398-21.594-1.797-2.804 0-5.508-.195-8.11-.593a25.609 25.609 0 0 1-7.5-2.407c-11.593-4-19.194-11.597-22.796-22.796-2.398-7.602-2.996-15.602-1.797-24 2-12 3.598-23.899 4.797-35.704 1.195-11.8 3.398-23.3 6.61-34.5.788-2.394 1.382-4.691 1.78-6.89a32.748 32.748 0 0 1 1.813-6.313c2.8-8.394 5.098-16.89 6.89-25.484a409.956 409.956 0 0 0 4.516-25.5c.395-4 .993-7.598 1.797-10.797 2.801-10.8 5.598-21.602 8.39-32.406 2.802-10.801 5.802-21.598 9-32.39 1.602-6 3.005-11.9 4.204-17.704 1.195-5.8 2-11.703 2.406-17.703 1.196-10.79 3.395-20.988 6.594-30.594 2.8-8 3.602-16.797 2.406-26.39-.406-6.801-2.808-13.004-7.203-18.61-4.406-5.594-9.71-8.191-15.906-7.797-6.2.399-11.094 3.797-14.688 10.203a48.437 48.437 0 0 0-2.109 4.797 46.995 46.995 0 0 1-2.094 4.797c-.406 1.2-.914 2.5-1.515 3.906-.594 1.399-1.293 2.497-2.094 3.297-3.594 5.2-7.992 6.2-13.188 3-8.804-5.195-13.906-12.195-15.312-21-1.399-8.8.504-16.398 5.703-22.797 4.8-6.394 10.203-10.992 16.203-13.796 5.195-2.801 10.492-5 15.89-6.594a77.761 77.761 0 0 1 16.5-3.016Zm133.797 117.594c10.8-2 16-8.598 15.593-19.797 0-5.195-1.199-11.094-3.593-17.687-2.399-6.602-5.2-11.907-8.407-15.907a44.717 44.717 0 0 0-4.187-4.797c-10-9.195-20.805-10.796-32.406-4.796-4.805 2.398-9.008 5.398-12.61 9a293.604 293.604 0 0 0-10.781 11.39c-6 6-10.606 12.903-13.813 20.703-3.199 7.805-5.593 16.102-7.187 24.89-.406 1.606-.406 3.407 0 5.407.394 6.805 4.191 10.403 11.39 10.797 3.602 0 7.004-.8 10.204-2.406 4.394-2 8.797-4.196 13.203-6.594 8.8-4.8 17.8-7.398 27-7.797 5.594-.406 10.789-1.207 15.594-2.406ZM2488.309 227.563h9.594c6.406 0 11.61-.195 15.61-.594 10-.394 20.097-.492 30.296-.296 10.195.199 20.297.898 30.297 2.093 4.406.407 8.805.61 13.203.61h13.797c2.394 0 4.789.101 7.187.297 2.407.199 4.813.296 7.22.296 15.987 1.2 28.187 8.797 36.593 22.797 13.195 22 16.992 45.602 11.39 70.797-1.199 5.606-2.996 10.203-5.39 13.797-2.406 2.805-5.309 4.406-8.703 4.813-3.399.398-6.297-.805-8.703-3.61-2.399-2.394-4.594-5.195-6.594-8.406-1.2-2.79-2.5-5.688-3.906-8.688-1.399-3-2.696-5.898-3.891-8.703-2.406-5.601-5.512-10.906-9.312-15.906-3.793-5-8.09-9.695-12.891-14.094-3.2-3.195-6.602-5.195-10.203-6-8-2.394-15-.992-21 4.203-6.399 5.594-10.793 12.793-13.188 21.594-3.605 12-5.605 23.805-6 35.406-.406 7.2-.511 14.399-.312 21.594.207 7.2.707 14.399 1.5 21.594 1.207 9.605 1.207 19.008 0 28.203a120.908 120.908 0 0 0-1.5 14.703c-.2 4.992-.297 9.887-.297 14.688v25.515c0 8.594.203 17.09.61 25.485.788 10.804 1.687 21.507 2.687 32.11 1 10.593 3.101 21.089 6.312 31.483 2 7.606 3.797 15.211 5.39 22.813a240.202 240.202 0 0 0 6 22.781 114.681 114.681 0 0 1 3.298 8.703c1 3 1.898 6.102 2.703 9.297a75.619 75.619 0 0 0 1.5 5.11c.601 1.793.906 3.492.906 5.093.8 7.2-2.2 11.996-9 14.39-3.2 1.212-6.402 1.813-9.61 1.813-6 0-12.1.5-18.296 1.5-6.2 1-12.496 1.899-18.89 2.688-6 1.207-12.204 1.91-18.61 2.11-6.399.195-12.594.097-18.594-.298-6 0-11.2-1.203-15.594-3.609-9.199-4-12.796-10.797-10.796-20.39a46.016 46.016 0 0 1 1.796-7.204c.801-2.394 1.801-4.593 3-6.593a574.57 574.57 0 0 1 4.797-10.5 485.307 485.307 0 0 1 4.797-9.907c2.8-5.593 4.8-11.191 6-16.797 1.195-5.601 2-11.406 2.406-17.406 2-15.594 3-31.39 3-47.39v-47.391a348.7 348.7 0 0 0-.312-15c-.2-4.8-.496-9.602-.89-14.406a32.41 32.41 0 0 0-.298-4.485 27.945 27.945 0 0 1-.296-3.906c.789-11.602.882-23.406.28-35.406-.593-12-1.09-23.797-1.484-35.39 0-8.395-.804-16.692-2.406-24.891a249.47 249.47 0 0 0-6-24.313c-2-4.789-4-9.187-6-13.187-7.2-12-17.2-15.602-30-10.813-11.2 4.406-19.398 11.211-24.594 20.406a4390.4 4390.4 0 0 1-4.796 9.594c-1.606 3.2-3.204 6.402-4.797 9.61-2.407 5.593-5.407 9.992-9 13.187-7.606 6.406-14.203 5.406-19.797-3-2.406-4-4.008-9-4.797-15-.8-8.395-.602-16.39.594-23.984a126.908 126.908 0 0 1 2.093-15.313c1-5 1.899-10.098 2.704-15.297.8-6 2.8-11.394 6-16.187 5.195-8.407 12.195-13.407 21-15 4.8-.801 9.398-1.203 13.796-1.203 11.196-.407 23.395-.504 36.594-.297 13.195.199 23.797.093 31.797-.313ZM2732.504 229.376h15.891c7.8 0 15.8-.098 24-.297 8.195-.207 14.297-.508 18.297-.906 2.8 0 5.598-.098 8.39-.297 2.801-.207 5.805-.313 9.016-.313 11.196 0 22.395-.097 33.594-.297 11.195-.195 22.395-.297 33.594-.297 4.394 0 8.789.102 13.187.297 4.406.2 8.813.903 13.219 2.11 16.789 4.793 26.586 15.39 29.39 31.797.801 4.793 1.704 9.59 2.704 14.39 1 4.805 2.097 9.606 3.297 14.406.8 2.805 1.203 5.508 1.203 8.11 0 2.594-.403 5.09-1.203 7.484-1.2 2.805-3 4.805-5.407 6-2.398 1.2-4.996 1-7.797-.594-1.593-1.207-3.195-2.41-4.796-3.609-1.606-1.195-3.204-2.594-4.797-4.187a498.596 498.596 0 0 1-10.813-9.907 528.564 528.564 0 0 0-10.781-9.906c-14-11.594-30-15.191-48-10.797-9.2 2.406-17.797 5.914-25.797 10.516-8 4.594-15.203 10.492-21.61 17.687-4.398 5.594-7.898 11.39-10.5 17.39-2.593 6-3.89 12.403-3.89 19.204 0 3.606.098 7.106.297 10.5.195 3.398.297 6.7.297 9.906.406 5.594 1.805 10.793 4.203 15.594 5.602 9.594 13.602 12.594 24 9 2.395-1.195 4.594-2.492 6.594-3.89 2-1.407 3.8-2.91 5.406-4.516 5.195-4 10.395-7.696 15.594-11.094 5.195-3.394 10.797-6.297 16.797-8.703a183.28 183.28 0 0 1 7.796-2.39c2.801-.801 5.805-1.204 9.016-1.204 7.594 0 13.586 2.602 17.984 7.797a112.536 112.536 0 0 1 14.407 20.703c4 7.399 7 15.293 9 23.688 1.195 4 1.597 9 1.203 15-.805 10.804-6.805 15.007-18 12.61-2-.407-4.106-1.005-6.313-1.798-2.199-.8-4.297-1.8-6.297-3a64.724 64.724 0 0 0-14.687-4.203c-5-.8-10.102-1.203-15.297-1.203-6.406 0-12.414 1-18.016 3-5.593 2-10.992 4.601-16.187 7.797-9.605 6.398-16.008 14.797-19.203 25.203-1.2 4-2.297 7.902-3.297 11.703-1 3.793-1.7 7.688-2.094 11.688a279.693 279.693 0 0 0-2.11 28.5c-.198 9.398.102 18.699.907 27.906 1.195 14.398 5.797 25.898 13.797 34.5 8 8.594 18.195 15.687 30.594 21.281 7.601 3.606 16.601 3.512 27-.281 10.394-3.801 17.394-9.102 21-15.906 3.195-5.602 4.695-11.102 4.5-16.5-.2-5.407-1.5-10.907-3.907-16.5a66.957 66.957 0 0 0-4.203-7.188 83.148 83.148 0 0 0-5.39-7.219 66.458 66.458 0 0 1-3.594-3.89 22.467 22.467 0 0 1-3-4.5c-4-7.602-2-13.004 6-16.203 1.594-.801 2.988-1.204 4.187-1.204 6.407-.789 13.004-1.586 19.797-2.39 6.801-.801 13.407-1.004 19.813-.61 1.195.407 2.594.61 4.187.61 8.407 1.594 14.305 4.195 17.703 7.797 3.407 3.593 5.708 9.39 6.907 17.39 1.195 7.211 1.992 14.215 2.39 21.016.407 6.793.008 13.789-1.187 20.984-.406 4.407-.313 9.012.281 13.813a248.128 248.128 0 0 0 2.11 13.781c.406 3.211.707 6.414.906 9.61.195 3.199.492 6.199.89 9 0 7.199-1.601 13.101-4.797 17.703-3.199 4.593-7.796 8.293-13.796 11.093-2.805 1.594-5.704 2.696-8.704 3.297-3 .606-6.101.906-9.296.906-6 .399-11.903.891-17.704 1.485-5.792.601-11.492.707-17.093.312-9.2-.406-18.399-.71-27.594-.906-9.2-.2-18.398.102-27.594.906-2.406.395-4.812.29-7.219-.312a94.29 94.29 0 0 0-7.187-1.485c-7.2-1.207-14.2-1.91-21-2.109a732.06 732.06 0 0 0-21-.297c-6.398 0-12.996.102-19.797.297-6.805.2-13.601.297-20.39.297-2 0-4-.098-6-.297-2-.195-4-.492-6-.89-8.805-2-12.606-7.801-11.407-17.407.406-2 1.004-4 1.797-6a77.68 77.68 0 0 0 2.094-4.484 82.918 82.918 0 0 1 2.11-4.516c6-10.394 10.296-21.191 12.89-32.39a178.322 178.322 0 0 0 4.515-34.204c.395-12.8.594-25.398.594-37.796 0-12.395-.199-24.993-.594-37.797 0-2-.203-3.196-.609-3.594-2.398-16-3.7-31.899-3.906-47.703-.2-15.801-.496-31.696-.89-47.688a1989.262 1989.262 0 0 0-1.5-34.797 399.192 399.192 0 0 1-.298-34.796c0-6.407-.902-12.407-2.703-18-1.804-5.602-4.304-11.204-7.5-16.797-1.199-2-2.5-4-3.906-6a25.524 25.524 0 0 1-3.297-6.61c-2.398-5.593-2.398-10.488 0-14.687 2.406-4.207 6.61-6.91 12.61-8.11 2-.394 4-.492 6-.296 2 .199 4 .101 6-.297ZM3179.467 647.532c-10-.79-19.805-1.086-29.406-.89-9.594.199-18.59.296-26.985.296a2622.22 2622.22 0 0 0-37.203-.89c-12-.207-23.797.09-35.39.89-13.606.801-25.211-3.797-34.813-13.797-4.398-4.8-6.594-10-6.594-15.593v-9.61c2-14 3.899-27.992 5.703-41.984 1.801-14 4.301-27.801 7.5-41.406.801-2 1.5-4.098 2.094-6.297.602-2.196 1.305-4.5 2.11-6.907 3.195-8.789 8.992-14.988 17.39-18.593 11.195-5.196 23-7.395 35.406-6.594 2.79.398 5.586.996 8.391 1.797 9.602 2.804 12.8 9 9.594 18.594-.399 2.398-1.094 4.593-2.094 6.593-1 2-2.102 3.805-3.297 5.407-3.605 6-5.808 12-6.61 18-.792 6-.788 12.199.016 18.593 2 17.2 10.196 29.797 24.594 37.797 8.395 4.406 17.594 5.914 27.594 4.516 10-1.406 18.398-5.305 25.203-11.703 5.195-4.801 9.195-9.801 12-15a120.007 120.007 0 0 0 3.297-7.203c1-2.407 2.098-4.805 3.297-7.204 10.394-23.195 9.992-45.992-1.203-68.39-2-4.406-3.903-8.805-5.703-13.203a181.33 181.33 0 0 0-5.688-12.594c-4.805-10-12.605-17.8-23.406-23.406-7.594-4-15.496-7.196-23.703-9.594a180.727 180.727 0 0 0-24.891-5.406c-9.2-1.594-18.398-.594-27.594 3a138.922 138.922 0 0 0-8.406 2.703c-2.805 1-5.602 1.902-8.39 2.703-13.606 3.2-23.407-1.8-29.407-15-1.594-3.195-2.996-7.395-4.203-12.594a175.057 175.057 0 0 1-2.094-22.797c-.199-7.601.301-15.207 1.5-22.812.801-3.196 1.5-6.395 2.094-9.594a311.963 311.963 0 0 1 2.11-10.203c5.593-25.988 6.39-52.582 2.39-79.781a38.179 38.179 0 0 1-.89-5.11c-.2-1.8-.297-3.703-.297-5.703.394-10.789 5.789-16.789 16.187-18 5.602-.789 11.406-.789 17.406 0 14.395 1.211 28.594 1.313 42.594.313s28-1.899 42-2.703h13.203c6.395.804 12.89 1.605 19.485 2.406 6.601.793 13.101 1.59 19.5 2.39 16 1.606 27.398 9.805 34.203 24.594 2 5.211 3.597 10.211 4.797 15 2.406 12.406 3.207 25.406 2.406 39-.805 16.399-9.403 26.2-25.797 29.406-5.2 1.2-10.5 1.5-15.906.907a85.942 85.942 0 0 1-15.891-3.313c-7.605-2-11.605-7.195-12-15.594 0-2 .195-3.898.594-5.703.406-1.8.61-3.504.61-5.11.394-2.394.788-4.89 1.187-7.483.406-2.602.406-5.102 0-7.5-.399-6.801-2.696-12.399-6.891-16.797-4.2-4.407-9.902-6.805-17.11-7.203-6.792-.801-13.39-.204-19.796 1.796-6.399 2-12.594 4.602-18.594 7.797-5.2 3.606-9.7 9.008-13.5 16.203-3.805 7.2-6.008 15-6.61 23.407-.593 8.398 1.11 15.793 5.11 22.187 4 6.805 9.195 12.203 15.594 16.203a900.885 900.885 0 0 0 35.703 22.188 348.397 348.397 0 0 0 37.5 19.203c9.195 4 17.594 8.805 25.187 14.406a310.994 310.994 0 0 1 22.204 17.985c5.195 4.804 9.796 10.406 13.796 16.812a50.007 50.007 0 0 0 4.204 7.797c1.601 2.398 3.203 4.797 4.796 7.203 6 8.398 10.297 17.293 12.891 26.688 2.602 9.398 4.11 19.093 4.516 29.093.394 4.407.492 9.012.297 13.813-.2 4.793-.297 9.59-.297 14.39 0 6-.805 12.2-2.407 18.594-2 7.606-4 15.406-6 23.406-2 8.399-5.402 16.094-10.203 23.094-4.793 7-10.39 13.305-16.797 18.906-2.398 2.399-5.093 4.297-8.093 5.704a51.717 51.717 0 0 1-9.297 3.296c-12 3.594-23.602 4.989-34.797 4.188Zm0 0"/></svg>